<svg width="237px" height="720px"
 viewBox="0.00 0.00 237.09 720.00" xmlns="http://www.w3.org/2000/svg" xmlns:xlink="http://www.w3.org/1999/xlink">
<g id="graph0" class="graph" transform="scale(0.792952 0.792952) rotate(0.0) translate(4.0 904.0)">
<title>main</title>
<polygon fill="white" stroke="none" points="-4,4 -4,-904 295,-904 295,4 -4,4"/>
<!-- 370 -->
<g id="node1" class="node">
<title>370</title>
<ellipse fill="none" stroke="black" stroke-width="2" cx="27" cy="-306" rx="27" ry="18"/>
<text text-anchor="middle" x="27" y="-300.95" font-family="Times,serif" font-size="14.00">370</text>
</g>
<!-- 74 -->
<g id="node2" class="node">
<title>74</title>
<ellipse fill="none" stroke="black" stroke-width="2" cx="161" cy="-378" rx="27" ry="18"/>
<text text-anchor="middle" x="161" y="-372.95" font-family="Times,serif" font-size="14.00">74</text>
</g>
<!-- 120 -->
<g id="node3" class="node">
<title>120</title>
<ellipse fill="none" stroke="black" stroke-width="2" cx="203" cy="-18" rx="27" ry="18"/>
<text text-anchor="middle" x="203" y="-12.95" font-family="Times,serif" font-size="14.00">120</text>
</g>
<!-- 247 -->
<g id="node4" class="node">
<title>247</title>
<ellipse fill="none" stroke="black" stroke-width="2" cx="27" cy="-450" rx="27" ry="18"/>
<text text-anchor="middle" x="27" y="-444.95" font-family="Times,serif" font-size="14.00">247</text>
</g>
<!-- 0 -->
<g id="node5" class="node">
<title>0</title>
<ellipse fill="none" stroke="black" cx="158" cy="-882" rx="27" ry="18"/>
<text text-anchor="middle" x="158" y="-876.95" font-family="Times,serif" font-size="14.00">0</text>
</g>
<!-- 21 -->
<g id="node6" class="node">
<title>21</title>
<ellipse fill="none" stroke="black" cx="158" cy="-810" rx="27" ry="18"/>
<text text-anchor="middle" x="158" y="-804.95" font-family="Times,serif" font-size="14.00">21</text>
</g>
<!-- 0&#45;&gt;21 -->
<g id="edge1" class="edge">
<title>0&#45;&gt;21</title>
<path fill="none" stroke="black" d="M158,-863.7C158,-856.24 158,-847.32 158,-838.97"/>
<polygon fill="black" stroke="black" points="161.5,-839.1 158,-829.1 154.5,-839.1 161.5,-839.1"/>
</g>
<!-- 49 -->
<g id="node9" class="node">
<title>49</title>
<ellipse fill="none" stroke="black" cx="158" cy="-738" rx="27" ry="18"/>
<text text-anchor="middle" x="158" y="-732.95" font-family="Times,serif" font-size="14.00">49</text>
</g>
<!-- 21&#45;&gt;49 -->
<g id="edge3" class="edge">
<title>21&#45;&gt;49</title>
<path fill="none" stroke="black" d="M158,-791.7C158,-784.24 158,-775.32 158,-766.97"/>
<polygon fill="black" stroke="black" points="161.5,-767.1 158,-757.1 154.5,-767.1 161.5,-767.1"/>
</g>
<!-- 17 -->
<g id="node7" class="node">
<title>17</title>
<ellipse fill="none" stroke="black" cx="65" cy="-882" rx="27" ry="18"/>
<text text-anchor="middle" x="65" y="-876.95" font-family="Times,serif" font-size="14.00">17</text>
</g>
<!-- 221 -->
<g id="node8" class="node">
<title>221</title>
<ellipse fill="none" stroke="black" cx="65" cy="-810" rx="27" ry="18"/>
<text text-anchor="middle" x="65" y="-804.95" font-family="Times,serif" font-size="14.00">221</text>
</g>
<!-- 17&#45;&gt;221 -->
<g id="edge2" class="edge">
<title>17&#45;&gt;221</title>
<path fill="none" stroke="black" d="M65,-863.7C65,-856.24 65,-847.32 65,-838.97"/>
<polygon fill="black" stroke="black" points="68.5,-839.1 65,-829.1 61.5,-839.1 68.5,-839.1"/>
</g>
<!-- 223 -->
<g id="node21" class="node">
<title>223</title>
<ellipse fill="none" stroke="black" cx="65" cy="-738" rx="27" ry="18"/>
<text text-anchor="middle" x="65" y="-732.95" font-family="Times,serif" font-size="14.00">223</text>
</g>
<!-- 221&#45;&gt;223 -->
<g id="edge20" class="edge">
<title>221&#45;&gt;223</title>
<path fill="none" stroke="black" d="M65,-791.7C65,-784.24 65,-775.32 65,-766.97"/>
<polygon fill="black" stroke="black" points="68.5,-767.1 65,-757.1 61.5,-767.1 68.5,-767.1"/>
</g>
<!-- 51 -->
<g id="node12" class="node">
<title>51</title>
<ellipse fill="none" stroke="black" cx="158" cy="-666" rx="27" ry="18"/>
<text text-anchor="middle" x="158" y="-660.95" font-family="Times,serif" font-size="14.00">51</text>
</g>
<!-- 49&#45;&gt;51 -->
<g id="edge4" class="edge">
<title>49&#45;&gt;51</title>
<path fill="none" stroke="black" d="M158,-719.7C158,-712.24 158,-703.32 158,-694.97"/>
<polygon fill="black" stroke="black" points="161.5,-695.1 158,-685.1 154.5,-695.1 161.5,-695.1"/>
</g>
<!-- 25 -->
<g id="node10" class="node">
<title>25</title>
<ellipse fill="none" stroke="black" cx="219" cy="-882" rx="27" ry="18"/>
<text text-anchor="middle" x="219" y="-876.95" font-family="Times,serif" font-size="14.00">25</text>
</g>
<!-- 140 -->
<g id="node11" class="node">
<title>140</title>
<ellipse fill="none" stroke="black" cx="264" cy="-18" rx="27" ry="18"/>
<text text-anchor="middle" x="264" y="-12.95" font-family="Times,serif" font-size="14.00">140</text>
</g>
<!-- 63 -->
<g id="node13" class="node">
<title>63</title>
<ellipse fill="none" stroke="black" cx="165" cy="-522" rx="27" ry="18"/>
<text text-anchor="middle" x="165" y="-516.95" font-family="Times,serif" font-size="14.00">63</text>
</g>
<!-- 51&#45;&gt;63 -->
<g id="edge5" class="edge">
<title>51&#45;&gt;63</title>
<path fill="none" stroke="black" d="M152.29,-648.21C146.95,-630.27 140.43,-601.04 145,-576 146.64,-567.02 149.72,-557.59 152.98,-549.21"/>
<polygon fill="black" stroke="black" points="156.5,-550.85 157.11,-540.27 150.04,-548.16 156.5,-550.85"/>
</g>
<!-- 61 -->
<g id="node14" class="node">
<title>61</title>
<ellipse fill="none" stroke="black" cx="175" cy="-594" rx="27" ry="18"/>
<text text-anchor="middle" x="175" y="-588.95" font-family="Times,serif" font-size="14.00">61</text>
</g>
<!-- 51&#45;&gt;61 -->
<g id="edge6" class="edge">
<title>51&#45;&gt;61</title>
<path fill="none" stroke="black" stroke-dasharray="5,2" d="M162.12,-648.05C163.95,-640.52 166.15,-631.44 168.22,-622.94"/>
<polygon fill="black" stroke="black" points="171.85,-623.82 170.8,-613.28 165.04,-622.17 171.85,-623.82"/>
</g>
<!-- 63&#45;&gt;74 -->
<g id="edge7" class="edge">
<title>63&#45;&gt;74</title>
<path fill="none" stroke="black" d="M164.51,-503.59C163.83,-479.5 162.6,-435.75 161.79,-407.03"/>
<polygon fill="black" stroke="black" points="165.26,-407.01 161.48,-397.11 158.27,-407.21 165.26,-407.01"/>
</g>
<!-- 68 -->
<g id="node15" class="node">
<title>68</title>
<ellipse fill="none" stroke="black" cx="199" cy="-450" rx="27" ry="18"/>
<text text-anchor="middle" x="199" y="-444.95" font-family="Times,serif" font-size="14.00">68</text>
</g>
<!-- 63&#45;&gt;68 -->
<g id="edge8" class="edge">
<title>63&#45;&gt;68</title>
<path fill="none" stroke="black" d="M173.06,-504.41C177,-496.3 181.83,-486.35 186.25,-477.25"/>
<polygon fill="black" stroke="black" points="189.78,-478.99 191,-468.47 183.48,-475.94 189.78,-478.99"/>
</g>
<!-- 61&#45;&gt;63 -->
<g id="edge19" class="edge">
<title>61&#45;&gt;63</title>
<path fill="none" stroke="black" d="M172.53,-575.7C171.46,-568.24 170.19,-559.32 169,-550.97"/>
<polygon fill="black" stroke="black" points="172.32,-550.51 167.44,-541.1 165.39,-551.5 172.32,-550.51"/>
</g>
<!-- 68&#45;&gt;74 -->
<g id="edge9" class="edge">
<title>68&#45;&gt;74</title>
<path fill="none" stroke="black" d="M190.19,-432.76C185.68,-424.46 180.08,-414.15 175,-404.79"/>
<polygon fill="black" stroke="black" points="177.61,-403.27 169.77,-396.15 171.46,-406.61 177.61,-403.27"/>
</g>
<!-- 94 -->
<g id="node16" class="node">
<title>94</title>
<ellipse fill="none" stroke="black" cx="222" cy="-378" rx="27" ry="18"/>
<text text-anchor="middle" x="222" y="-372.95" font-family="Times,serif" font-size="14.00">94</text>
</g>
<!-- 68&#45;&gt;94 -->
<g id="edge10" class="edge">
<title>68&#45;&gt;94</title>
<path fill="none" stroke="black" d="M204.57,-432.05C207.14,-424.23 210.25,-414.75 213.14,-405.98"/>
<polygon fill="black" stroke="black" points="216.69,-407.38 216.48,-396.79 210.04,-405.2 216.69,-407.38"/>
</g>
<!-- 96 -->
<g id="node17" class="node">
<title>96</title>
<ellipse fill="none" stroke="black" cx="222" cy="-306" rx="27" ry="18"/>
<text text-anchor="middle" x="222" y="-300.95" font-family="Times,serif" font-size="14.00">96</text>
</g>
<!-- 94&#45;&gt;96 -->
<g id="edge11" class="edge">
<title>94&#45;&gt;96</title>
<path fill="none" stroke="black" d="M222,-359.7C222,-352.24 222,-343.32 222,-334.97"/>
<polygon fill="black" stroke="black" points="225.5,-335.1 222,-325.1 218.5,-335.1 225.5,-335.1"/>
</g>
<!-- 108 -->
<g id="node18" class="node">
<title>108</title>
<ellipse fill="none" stroke="black" cx="222" cy="-162" rx="27" ry="18"/>
<text text-anchor="middle" x="222" y="-156.95" font-family="Times,serif" font-size="14.00">108</text>
</g>
<!-- 96&#45;&gt;108 -->
<g id="edge12" class="edge">
<title>96&#45;&gt;108</title>
<path fill="none" stroke="black" d="M217.54,-287.95C215.06,-277.63 212.25,-264.15 211,-252 209.37,-236.08 209.37,-231.92 211,-216 211.86,-207.64 213.46,-198.66 215.18,-190.51"/>
<polygon fill="black" stroke="black" points="218.75,-191.57 217.54,-181.05 211.92,-190.03 218.75,-191.57"/>
</g>
<!-- 106 -->
<g id="node19" class="node">
<title>106</title>
<ellipse fill="none" stroke="black" cx="241" cy="-234" rx="27" ry="18"/>
<text text-anchor="middle" x="241" y="-228.95" font-family="Times,serif" font-size="14.00">106</text>
</g>
<!-- 96&#45;&gt;106 -->
<g id="edge13" class="edge">
<title>96&#45;&gt;106</title>
<path fill="none" stroke="black" stroke-dasharray="5,2" d="M226.6,-288.05C228.7,-280.32 231.24,-270.96 233.6,-262.27"/>
<polygon fill="black" stroke="black" points="237.2,-263.36 236.44,-252.79 230.45,-261.52 237.2,-263.36"/>
</g>
<!-- 108&#45;&gt;120 -->
<g id="edge14" class="edge">
<title>108&#45;&gt;120</title>
<path fill="none" stroke="black" d="M217.93,-143.9C215.6,-133.56 212.79,-120.08 211,-108 208.01,-87.83 205.98,-64.91 204.72,-47.38"/>
<polygon fill="black" stroke="black" points="208.14,-47.2 203.97,-37.46 201.16,-47.68 208.14,-47.2"/>
</g>
<!-- 113 -->
<g id="node20" class="node">
<title>113</title>
<ellipse fill="none" stroke="black" cx="241" cy="-90" rx="27" ry="18"/>
<text text-anchor="middle" x="241" y="-84.95" font-family="Times,serif" font-size="14.00">113</text>
</g>
<!-- 108&#45;&gt;113 -->
<g id="edge15" class="edge">
<title>108&#45;&gt;113</title>
<path fill="none" stroke="black" d="M226.6,-144.05C228.7,-136.32 231.24,-126.96 233.6,-118.27"/>
<polygon fill="black" stroke="black" points="237.2,-119.36 236.44,-108.79 230.45,-117.52 237.2,-119.36"/>
</g>
<!-- 106&#45;&gt;108 -->
<g id="edge18" class="edge">
<title>106&#45;&gt;108</title>
<path fill="none" stroke="black" d="M236.4,-216.05C234.3,-208.32 231.76,-198.96 229.4,-190.27"/>
<polygon fill="black" stroke="black" points="232.55,-189.52 226.56,-180.79 225.8,-191.36 232.55,-189.52"/>
</g>
<!-- 113&#45;&gt;120 -->
<g id="edge16" class="edge">
<title>113&#45;&gt;120</title>
<path fill="none" stroke="black" d="M232.19,-72.76C227.68,-64.46 222.08,-54.15 217,-44.79"/>
<polygon fill="black" stroke="black" points="219.61,-43.27 211.77,-36.15 213.46,-46.61 219.61,-43.27"/>
</g>
<!-- 113&#45;&gt;140 -->
<g id="edge17" class="edge">
<title>113&#45;&gt;140</title>
<path fill="none" stroke="black" d="M246.57,-72.05C249.14,-64.23 252.25,-54.75 255.14,-45.98"/>
<polygon fill="black" stroke="black" points="258.69,-47.38 258.48,-36.79 252.04,-45.2 258.69,-47.38"/>
</g>
<!-- 235 -->
<g id="node22" class="node">
<title>235</title>
<ellipse fill="none" stroke="black" cx="53" cy="-594" rx="27" ry="18"/>
<text text-anchor="middle" x="53" y="-588.95" font-family="Times,serif" font-size="14.00">235</text>
</g>
<!-- 223&#45;&gt;235 -->
<g id="edge21" class="edge">
<title>223&#45;&gt;235</title>
<path fill="none" stroke="black" d="M60.59,-719.95C58.13,-709.62 55.32,-696.15 54,-684 51.81,-663.81 51.61,-640.89 51.93,-623.36"/>
<polygon fill="black" stroke="black" points="55.45,-623.54 52.2,-613.45 48.45,-623.36 55.45,-623.54"/>
</g>
<!-- 233 -->
<g id="node23" class="node">
<title>233</title>
<ellipse fill="none" stroke="black" cx="84" cy="-666" rx="27" ry="18"/>
<text text-anchor="middle" x="84" y="-660.95" font-family="Times,serif" font-size="14.00">233</text>
</g>
<!-- 223&#45;&gt;233 -->
<g id="edge22" class="edge">
<title>223&#45;&gt;233</title>
<path fill="none" stroke="black" stroke-dasharray="5,2" d="M69.6,-720.05C71.7,-712.32 74.24,-702.96 76.6,-694.27"/>
<polygon fill="black" stroke="black" points="80.2,-695.36 79.44,-684.79 73.45,-693.52 80.2,-695.36"/>
</g>
<!-- 235&#45;&gt;247 -->
<g id="edge23" class="edge">
<title>235&#45;&gt;247</title>
<path fill="none" stroke="black" d="M46.11,-576.1C42.22,-565.83 37.62,-552.36 35,-540 30.75,-519.93 28.76,-496.84 27.82,-479.21"/>
<polygon fill="black" stroke="black" points="31.28,-479.08 27.34,-469.24 24.28,-479.39 31.28,-479.08"/>
</g>
<!-- 240 -->
<g id="node24" class="node">
<title>240</title>
<ellipse fill="none" stroke="black" cx="65" cy="-522" rx="27" ry="18"/>
<text text-anchor="middle" x="65" y="-516.95" font-family="Times,serif" font-size="14.00">240</text>
</g>
<!-- 235&#45;&gt;240 -->
<g id="edge24" class="edge">
<title>235&#45;&gt;240</title>
<path fill="none" stroke="black" d="M55.97,-575.7C57.26,-568.15 58.81,-559.12 60.25,-550.68"/>
<polygon fill="black" stroke="black" points="63.83,-551.55 62.07,-541.1 56.93,-550.37 63.83,-551.55"/>
</g>
<!-- 233&#45;&gt;235 -->
<g id="edge31" class="edge">
<title>233&#45;&gt;235</title>
<path fill="none" stroke="black" d="M76.65,-648.41C73.06,-640.3 68.66,-630.35 64.62,-621.25"/>
<polygon fill="black" stroke="black" points="67.54,-620.2 60.29,-612.47 61.14,-623.03 67.54,-620.2"/>
</g>
<!-- 240&#45;&gt;247 -->
<g id="edge25" class="edge">
<title>240&#45;&gt;247</title>
<path fill="none" stroke="black" d="M56.19,-504.76C51.68,-496.46 46.08,-486.15 41,-476.79"/>
<polygon fill="black" stroke="black" points="43.61,-475.27 35.77,-468.15 37.46,-478.61 43.61,-475.27"/>
</g>
<!-- 267 -->
<g id="node25" class="node">
<title>267</title>
<ellipse fill="none" stroke="black" cx="88" cy="-450" rx="27" ry="18"/>
<text text-anchor="middle" x="88" y="-444.95" font-family="Times,serif" font-size="14.00">267</text>
</g>
<!-- 240&#45;&gt;267 -->
<g id="edge26" class="edge">
<title>240&#45;&gt;267</title>
<path fill="none" stroke="black" d="M70.57,-504.05C73.14,-496.23 76.25,-486.75 79.14,-477.98"/>
<polygon fill="black" stroke="black" points="82.69,-479.38 82.48,-468.79 76.04,-477.2 82.69,-479.38"/>
</g>
<!-- 270 -->
<g id="node26" class="node">
<title>270</title>
<ellipse fill="none" stroke="black" cx="88" cy="-378" rx="27" ry="18"/>
<text text-anchor="middle" x="88" y="-372.95" font-family="Times,serif" font-size="14.00">270</text>
</g>
<!-- 267&#45;&gt;270 -->
<g id="edge27" class="edge">
<title>267&#45;&gt;270</title>
<path fill="none" stroke="black" d="M88,-431.7C88,-424.24 88,-415.32 88,-406.97"/>
<polygon fill="black" stroke="black" points="91.5,-407.1 88,-397.1 84.5,-407.1 91.5,-407.1"/>
</g>
<!-- 270&#45;&gt;370 -->
<g id="edge28" class="edge">
<title>270&#45;&gt;370</title>
<path fill="none" stroke="black" d="M74.76,-361.81C66.77,-352.64 56.42,-340.76 47.4,-330.4"/>
<polygon fill="black" stroke="black" points="49.42,-328.4 40.21,-323.16 44.14,-333 49.42,-328.4"/>
</g>
<!-- 277 -->
<g id="node27" class="node">
<title>277</title>
<ellipse fill="none" stroke="black" cx="88" cy="-306" rx="27" ry="18"/>
<text text-anchor="middle" x="88" y="-300.95" font-family="Times,serif" font-size="14.00">277</text>
</g>
<!-- 270&#45;&gt;277 -->
<g id="edge29" class="edge">
<title>270&#45;&gt;277</title>
<path fill="none" stroke="black" d="M86.03,-359.7C85.77,-352.24 85.69,-343.32 85.79,-334.97"/>
<polygon fill="black" stroke="black" points="89.31,-335.18 86.03,-325.1 82.31,-335.02 89.31,-335.18"/>
</g>
<!-- 277&#45;&gt;270 -->
<g id="edge30" class="edge">
<title>277&#45;&gt;270</title>
<path fill="none" stroke="black" d="M90.62,-324.1C90.97,-331.54 91.08,-340.44 90.95,-348.81"/>
<polygon fill="black" stroke="black" points="87.42,-348.6 90.63,-358.7 94.42,-348.8 87.42,-348.6"/>
</g>
</g>
</svg>
