<svg width="174px" height="720px"
 viewBox="0.00 0.00 174.12 720.00" xmlns="http://www.w3.org/2000/svg" xmlns:xlink="http://www.w3.org/1999/xlink">
<g id="graph0" class="graph" transform="scale(0.734694 0.734694) rotate(0.0) translate(4.0 976.0)">
<title>main</title>
<polygon fill="white" stroke="none" points="-4,4 -4,-976 233,-976 233,4 -4,4"/>
<!-- 370 -->
<g id="node1" class="node">
<title>370</title>
<ellipse fill="none" stroke="black" stroke-width="2" cx="92" cy="-18" rx="27" ry="18"/>
<text text-anchor="middle" x="92" y="-12.95" font-family="Times,serif" font-size="14.00">370</text>
</g>
<!-- 74 -->
<g id="node2" class="node">
<title>74</title>
<ellipse fill="none" stroke="black" stroke-width="2" cx="69" cy="-450" rx="27" ry="18"/>
<text text-anchor="middle" x="69" y="-444.95" font-family="Times,serif" font-size="14.00">74</text>
</g>
<!-- 120 -->
<g id="node3" class="node">
<title>120</title>
<ellipse fill="none" stroke="black" stroke-width="2" cx="103" cy="-90" rx="27" ry="18"/>
<text text-anchor="middle" x="103" y="-84.95" font-family="Times,serif" font-size="14.00">120</text>
</g>
<!-- 247 -->
<g id="node4" class="node">
<title>247</title>
<ellipse fill="none" stroke="black" stroke-width="2" cx="141" cy="-162" rx="27" ry="18"/>
<text text-anchor="middle" x="141" y="-156.95" font-family="Times,serif" font-size="14.00">247</text>
</g>
<!-- 0 -->
<g id="node5" class="node">
<title>0</title>
<ellipse fill="none" stroke="black" cx="27" cy="-954" rx="27" ry="18"/>
<text text-anchor="middle" x="27" y="-948.95" font-family="Times,serif" font-size="14.00">0</text>
</g>
<!-- 21 -->
<g id="node6" class="node">
<title>21</title>
<ellipse fill="none" stroke="black" cx="57" cy="-882" rx="27" ry="18"/>
<text text-anchor="middle" x="57" y="-876.95" font-family="Times,serif" font-size="14.00">21</text>
</g>
<!-- 0&#45;&gt;21 -->
<g id="edge1" class="edge">
<title>0&#45;&gt;21</title>
<path fill="none" stroke="black" d="M34.11,-936.41C37.55,-928.39 41.76,-918.57 45.62,-909.54"/>
<polygon fill="black" stroke="black" points="49.22,-911.04 49.94,-900.47 42.79,-908.28 49.22,-911.04"/>
</g>
<!-- 25 -->
<g id="node8" class="node">
<title>25</title>
<ellipse fill="none" stroke="black" cx="27" cy="-738" rx="27" ry="18"/>
<text text-anchor="middle" x="27" y="-732.95" font-family="Times,serif" font-size="14.00">25</text>
</g>
<!-- 21&#45;&gt;25 -->
<g id="edge3" class="edge">
<title>21&#45;&gt;25</title>
<path fill="none" stroke="black" d="M53.38,-863.87C48.29,-839.78 38.96,-795.6 32.87,-766.77"/>
<polygon fill="black" stroke="black" points="36.12,-766.25 30.63,-757.19 29.27,-767.7 36.12,-766.25"/>
</g>
<!-- 49 -->
<g id="node9" class="node">
<title>49</title>
<ellipse fill="none" stroke="black" cx="82" cy="-810" rx="27" ry="18"/>
<text text-anchor="middle" x="82" y="-804.95" font-family="Times,serif" font-size="14.00">49</text>
</g>
<!-- 21&#45;&gt;49 -->
<g id="edge4" class="edge">
<title>21&#45;&gt;49</title>
<path fill="none" stroke="black" d="M63.05,-864.05C65.85,-856.23 69.23,-846.75 72.37,-837.98"/>
<polygon fill="black" stroke="black" points="75.94,-839.38 76,-828.79 69.34,-837.03 75.94,-839.38"/>
</g>
<!-- 17 -->
<g id="node7" class="node">
<title>17</title>
<ellipse fill="none" stroke="black" cx="88" cy="-954" rx="27" ry="18"/>
<text text-anchor="middle" x="88" y="-948.95" font-family="Times,serif" font-size="14.00">17</text>
</g>
<!-- 17&#45;&gt;21 -->
<g id="edge2" class="edge">
<title>17&#45;&gt;21</title>
<path fill="none" stroke="black" d="M80.65,-936.41C77.06,-928.3 72.66,-918.35 68.62,-909.25"/>
<polygon fill="black" stroke="black" points="71.54,-908.2 64.29,-900.47 65.14,-911.03 71.54,-908.2"/>
</g>
<!-- 140 -->
<g id="node10" class="node">
<title>140</title>
<ellipse fill="none" stroke="black" cx="42" cy="-90" rx="27" ry="18"/>
<text text-anchor="middle" x="42" y="-84.95" font-family="Times,serif" font-size="14.00">140</text>
</g>
<!-- 25&#45;&gt;140 -->
<g id="edge5" class="edge">
<title>25&#45;&gt;140</title>
<path fill="none" stroke="black" d="M27,-719.51C27,-692.71 27,-639.87 27,-595 27,-595 27,-595 27,-233 27,-193.13 32.92,-147.3 37.32,-118.75"/>
<polygon fill="black" stroke="black" points="40.92,-119.41 39.04,-108.99 34.01,-118.31 40.92,-119.41"/>
</g>
<!-- 51 -->
<g id="node11" class="node">
<title>51</title>
<ellipse fill="none" stroke="black" cx="88" cy="-738" rx="27" ry="18"/>
<text text-anchor="middle" x="88" y="-732.95" font-family="Times,serif" font-size="14.00">51</text>
</g>
<!-- 49&#45;&gt;51 -->
<g id="edge7" class="edge">
<title>49&#45;&gt;51</title>
<path fill="none" stroke="black" d="M83.48,-791.7C84.12,-784.24 84.89,-775.32 85.6,-766.97"/>
<polygon fill="black" stroke="black" points="89.17,-767.37 86.53,-757.1 82.19,-766.77 89.17,-767.37"/>
</g>
<!-- 140&#45;&gt;370 -->
<g id="edge6" class="edge">
<title>140&#45;&gt;370</title>
<path fill="none" stroke="black" d="M53.1,-73.46C59.44,-64.58 67.54,-53.25 74.7,-43.22"/>
<polygon fill="black" stroke="black" points="77.97,-45.66 80.93,-35.49 72.27,-41.59 77.97,-45.66"/>
</g>
<!-- 63 -->
<g id="node12" class="node">
<title>63</title>
<ellipse fill="none" stroke="black" cx="84" cy="-594" rx="27" ry="18"/>
<text text-anchor="middle" x="84" y="-588.95" font-family="Times,serif" font-size="14.00">63</text>
</g>
<!-- 51&#45;&gt;63 -->
<g id="edge8" class="edge">
<title>51&#45;&gt;63</title>
<path fill="none" stroke="black" d="M78.93,-720.87C73.72,-710.65 67.69,-696.96 65,-684 61.75,-668.33 62.26,-663.76 65,-648 66.54,-639.16 69.41,-629.85 72.47,-621.54"/>
<polygon fill="black" stroke="black" points="76.09,-622.9 76.5,-612.31 69.58,-620.33 76.09,-622.9"/>
</g>
<!-- 61 -->
<g id="node13" class="node">
<title>61</title>
<ellipse fill="none" stroke="black" cx="95" cy="-666" rx="27" ry="18"/>
<text text-anchor="middle" x="95" y="-660.95" font-family="Times,serif" font-size="14.00">61</text>
</g>
<!-- 51&#45;&gt;61 -->
<g id="edge9" class="edge">
<title>51&#45;&gt;61</title>
<path fill="none" stroke="black" stroke-dasharray="5,2" d="M89.73,-719.7C90.48,-712.24 91.37,-703.32 92.2,-694.97"/>
<polygon fill="black" stroke="black" points="95.78,-695.4 93.29,-685.1 88.81,-694.71 95.78,-695.4"/>
</g>
<!-- 63&#45;&gt;74 -->
<g id="edge10" class="edge">
<title>63&#45;&gt;74</title>
<path fill="none" stroke="black" d="M81.55,-575.84C80.11,-565.47 78.33,-551.99 77,-540 74.74,-519.64 72.68,-496.6 71.22,-479.06"/>
<polygon fill="black" stroke="black" points="74.65,-479.1 70.35,-469.42 67.68,-479.67 74.65,-479.1"/>
</g>
<!-- 68 -->
<g id="node14" class="node">
<title>68</title>
<ellipse fill="none" stroke="black" cx="107" cy="-522" rx="27" ry="18"/>
<text text-anchor="middle" x="107" y="-516.95" font-family="Times,serif" font-size="14.00">68</text>
</g>
<!-- 63&#45;&gt;68 -->
<g id="edge11" class="edge">
<title>63&#45;&gt;68</title>
<path fill="none" stroke="black" d="M89.57,-576.05C92.14,-568.23 95.25,-558.75 98.14,-549.98"/>
<polygon fill="black" stroke="black" points="101.69,-551.38 101.48,-540.79 95.04,-549.2 101.69,-551.38"/>
</g>
<!-- 61&#45;&gt;63 -->
<g id="edge22" class="edge">
<title>61&#45;&gt;63</title>
<path fill="none" stroke="black" d="M92.28,-647.7C91.11,-640.24 89.71,-631.32 88.39,-622.97"/>
<polygon fill="black" stroke="black" points="91.7,-622.44 86.69,-613.1 84.78,-623.53 91.7,-622.44"/>
</g>
<!-- 68&#45;&gt;74 -->
<g id="edge12" class="edge">
<title>68&#45;&gt;74</title>
<path fill="none" stroke="black" d="M98.19,-504.76C93.68,-496.46 88.08,-486.15 83,-476.79"/>
<polygon fill="black" stroke="black" points="85.61,-475.27 77.77,-468.15 79.46,-478.61 85.61,-475.27"/>
</g>
<!-- 94 -->
<g id="node15" class="node">
<title>94</title>
<ellipse fill="none" stroke="black" cx="130" cy="-450" rx="27" ry="18"/>
<text text-anchor="middle" x="130" y="-444.95" font-family="Times,serif" font-size="14.00">94</text>
</g>
<!-- 68&#45;&gt;94 -->
<g id="edge13" class="edge">
<title>68&#45;&gt;94</title>
<path fill="none" stroke="black" d="M112.57,-504.05C115.14,-496.23 118.25,-486.75 121.14,-477.98"/>
<polygon fill="black" stroke="black" points="124.69,-479.38 124.48,-468.79 118.04,-477.2 124.69,-479.38"/>
</g>
<!-- 96 -->
<g id="node16" class="node">
<title>96</title>
<ellipse fill="none" stroke="black" cx="130" cy="-378" rx="27" ry="18"/>
<text text-anchor="middle" x="130" y="-372.95" font-family="Times,serif" font-size="14.00">96</text>
</g>
<!-- 94&#45;&gt;96 -->
<g id="edge14" class="edge">
<title>94&#45;&gt;96</title>
<path fill="none" stroke="black" d="M130,-431.7C130,-424.24 130,-415.32 130,-406.97"/>
<polygon fill="black" stroke="black" points="133.5,-407.1 130,-397.1 126.5,-407.1 133.5,-407.1"/>
</g>
<!-- 108 -->
<g id="node17" class="node">
<title>108</title>
<ellipse fill="none" stroke="black" cx="96" cy="-234" rx="27" ry="18"/>
<text text-anchor="middle" x="96" y="-228.95" font-family="Times,serif" font-size="14.00">108</text>
</g>
<!-- 96&#45;&gt;108 -->
<g id="edge15" class="edge">
<title>96&#45;&gt;108</title>
<path fill="none" stroke="black" d="M119.3,-361.04C113.08,-350.89 105.75,-337.21 102,-324 96.38,-304.2 94.98,-280.98 94.93,-263.22"/>
<polygon fill="black" stroke="black" points="98.44,-263.47 95.06,-253.42 91.44,-263.38 98.44,-263.47"/>
</g>
<!-- 106 -->
<g id="node18" class="node">
<title>106</title>
<ellipse fill="none" stroke="black" cx="132" cy="-306" rx="27" ry="18"/>
<text text-anchor="middle" x="132" y="-300.95" font-family="Times,serif" font-size="14.00">106</text>
</g>
<!-- 96&#45;&gt;106 -->
<g id="edge16" class="edge">
<title>96&#45;&gt;106</title>
<path fill="none" stroke="black" stroke-dasharray="5,2" d="M130.49,-359.7C130.71,-352.24 130.96,-343.32 131.2,-334.97"/>
<polygon fill="black" stroke="black" points="134.72,-335.2 131.51,-325.1 127.73,-335 134.72,-335.2"/>
</g>
<!-- 108&#45;&gt;120 -->
<g id="edge17" class="edge">
<title>108&#45;&gt;120</title>
<path fill="none" stroke="black" d="M96.86,-215.59C98.05,-191.5 100.2,-147.75 101.62,-119.03"/>
<polygon fill="black" stroke="black" points="105.16,-119.27 102.16,-109.11 98.17,-118.93 105.16,-119.27"/>
</g>
<!-- 113 -->
<g id="node19" class="node">
<title>113</title>
<ellipse fill="none" stroke="black" cx="65" cy="-162" rx="27" ry="18"/>
<text text-anchor="middle" x="65" y="-156.95" font-family="Times,serif" font-size="14.00">113</text>
</g>
<!-- 108&#45;&gt;113 -->
<g id="edge18" class="edge">
<title>108&#45;&gt;113</title>
<path fill="none" stroke="black" d="M88.65,-216.41C85.06,-208.3 80.66,-198.35 76.62,-189.25"/>
<polygon fill="black" stroke="black" points="79.54,-188.2 72.29,-180.47 73.14,-191.03 79.54,-188.2"/>
</g>
<!-- 106&#45;&gt;108 -->
<g id="edge21" class="edge">
<title>106&#45;&gt;108</title>
<path fill="none" stroke="black" d="M123.65,-288.76C119.38,-280.46 114.08,-270.15 109.27,-260.79"/>
<polygon fill="black" stroke="black" points="111.99,-259.44 104.3,-252.15 105.77,-262.64 111.99,-259.44"/>
</g>
<!-- 113&#45;&gt;120 -->
<g id="edge19" class="edge">
<title>113&#45;&gt;120</title>
<path fill="none" stroke="black" d="M73.81,-144.76C78.32,-136.46 83.92,-126.15 89,-116.79"/>
<polygon fill="black" stroke="black" points="92.54,-118.61 94.23,-108.15 86.39,-115.27 92.54,-118.61"/>
</g>
<!-- 113&#45;&gt;140 -->
<g id="edge20" class="edge">
<title>113&#45;&gt;140</title>
<path fill="none" stroke="black" d="M59.43,-144.05C56.86,-136.23 53.75,-126.75 50.86,-117.98"/>
<polygon fill="black" stroke="black" points="53.96,-117.2 47.52,-108.79 47.31,-119.38 53.96,-117.2"/>
</g>
<!-- 221 -->
<g id="node20" class="node">
<title>221</title>
<ellipse fill="none" stroke="black" cx="149" cy="-954" rx="27" ry="18"/>
<text text-anchor="middle" x="149" y="-948.95" font-family="Times,serif" font-size="14.00">221</text>
</g>
<!-- 223 -->
<g id="node21" class="node">
<title>223</title>
<ellipse fill="none" stroke="black" cx="193" cy="-450" rx="27" ry="18"/>
<text text-anchor="middle" x="193" y="-444.95" font-family="Times,serif" font-size="14.00">223</text>
</g>
<!-- 233 -->
<g id="node22" class="node">
<title>233</title>
<ellipse fill="none" stroke="black" cx="193" cy="-378" rx="27" ry="18"/>
<text text-anchor="middle" x="193" y="-372.95" font-family="Times,serif" font-size="14.00">233</text>
</g>
<!-- 223&#45;&gt;233 -->
<g id="edge23" class="edge">
<title>223&#45;&gt;233</title>
<path fill="none" stroke="black" stroke-dasharray="5,2" d="M193,-431.7C193,-424.24 193,-415.32 193,-406.97"/>
<polygon fill="black" stroke="black" points="196.5,-407.1 193,-397.1 189.5,-407.1 196.5,-407.1"/>
</g>
<!-- 235 -->
<g id="node23" class="node">
<title>235</title>
<ellipse fill="none" stroke="black" cx="193" cy="-306" rx="27" ry="18"/>
<text text-anchor="middle" x="193" y="-300.95" font-family="Times,serif" font-size="14.00">235</text>
</g>
<!-- 233&#45;&gt;235 -->
<g id="edge31" class="edge">
<title>233&#45;&gt;235</title>
<path fill="none" stroke="black" d="M193,-359.7C193,-352.24 193,-343.32 193,-334.97"/>
<polygon fill="black" stroke="black" points="196.5,-335.1 193,-325.1 189.5,-335.1 196.5,-335.1"/>
</g>
<!-- 240 -->
<g id="node24" class="node">
<title>240</title>
<ellipse fill="none" stroke="black" cx="193" cy="-234" rx="27" ry="18"/>
<text text-anchor="middle" x="193" y="-228.95" font-family="Times,serif" font-size="14.00">240</text>
</g>
<!-- 235&#45;&gt;240 -->
<g id="edge24" class="edge">
<title>235&#45;&gt;240</title>
<path fill="none" stroke="black" d="M193,-287.7C193,-280.24 193,-271.32 193,-262.97"/>
<polygon fill="black" stroke="black" points="196.5,-263.1 193,-253.1 189.5,-263.1 196.5,-263.1"/>
</g>
<!-- 240&#45;&gt;247 -->
<g id="edge25" class="edge">
<title>240&#45;&gt;247</title>
<path fill="none" stroke="black" d="M181.46,-217.46C174.86,-208.58 166.44,-197.25 159,-187.22"/>
<polygon fill="black" stroke="black" points="161.28,-185.43 152.51,-179.49 155.66,-189.61 161.28,-185.43"/>
</g>
<!-- 267 -->
<g id="node25" class="node">
<title>267</title>
<ellipse fill="none" stroke="black" cx="202" cy="-162" rx="27" ry="18"/>
<text text-anchor="middle" x="202" y="-156.95" font-family="Times,serif" font-size="14.00">267</text>
</g>
<!-- 240&#45;&gt;267 -->
<g id="edge26" class="edge">
<title>240&#45;&gt;267</title>
<path fill="none" stroke="black" d="M195.22,-215.7C196.18,-208.24 197.33,-199.32 198.4,-190.97"/>
<polygon fill="black" stroke="black" points="202,-191.47 199.8,-181.1 195.05,-190.58 202,-191.47"/>
</g>
<!-- 270 -->
<g id="node26" class="node">
<title>270</title>
<ellipse fill="none" stroke="black" cx="183" cy="-90" rx="27" ry="18"/>
<text text-anchor="middle" x="183" y="-84.95" font-family="Times,serif" font-size="14.00">270</text>
</g>
<!-- 267&#45;&gt;270 -->
<g id="edge27" class="edge">
<title>267&#45;&gt;270</title>
<path fill="none" stroke="black" d="M197.4,-144.05C195.3,-136.32 192.76,-126.96 190.4,-118.27"/>
<polygon fill="black" stroke="black" points="193.55,-117.52 187.56,-108.79 186.8,-119.36 193.55,-117.52"/>
</g>
<!-- 270&#45;&gt;370 -->
<g id="edge28" class="edge">
<title>270&#45;&gt;370</title>
<path fill="none" stroke="black" d="M165.88,-75.83C152.37,-65.44 133.29,-50.76 117.91,-38.93"/>
<polygon fill="black" stroke="black" points="120.41,-35.67 110.35,-32.35 116.14,-41.22 120.41,-35.67"/>
</g>
<!-- 277 -->
<g id="node27" class="node">
<title>277</title>
<ellipse fill="none" stroke="black" cx="183" cy="-18" rx="27" ry="18"/>
<text text-anchor="middle" x="183" y="-12.95" font-family="Times,serif" font-size="14.00">277</text>
</g>
<!-- 270&#45;&gt;277 -->
<g id="edge29" class="edge">
<title>270&#45;&gt;277</title>
<path fill="none" stroke="black" d="M181.03,-71.7C180.77,-64.24 180.69,-55.32 180.79,-46.97"/>
<polygon fill="black" stroke="black" points="184.31,-47.18 181.03,-37.1 177.31,-47.02 184.31,-47.18"/>
</g>
<!-- 277&#45;&gt;270 -->
<g id="edge30" class="edge">
<title>277&#45;&gt;270</title>
<path fill="none" stroke="black" d="M185.62,-36.1C185.97,-43.54 186.08,-52.44 185.95,-60.81"/>
<polygon fill="black" stroke="black" points="182.42,-60.6 185.63,-70.7 189.42,-60.8 182.42,-60.6"/>
</g>
</g>
</svg>
