<svg width="383px" height="620px"
 viewBox="0.00 0.00 383.00 620.00" xmlns="http://www.w3.org/2000/svg" xmlns:xlink="http://www.w3.org/1999/xlink">
<g id="graph0" class="graph" transform="scale(1.0 1.0) rotate(0.0) translate(4.0 616.0)">
<title>main</title>
<polygon fill="white" stroke="none" points="-4,4 -4,-616 379,-616 379,4 -4,4"/>
<!-- 370 -->
<g id="node1" class="node">
<title>370</title>
<ellipse fill="none" stroke="black" stroke-width="2" cx="103" cy="-18" rx="27" ry="18"/>
<text text-anchor="middle" x="103" y="-12.95" font-family="Times,serif" font-size="14.00">370</text>
</g>
<!-- 74 -->
<g id="node2" class="node">
<title>74</title>
<ellipse fill="none" stroke="black" stroke-width="2" cx="261" cy="-378" rx="27" ry="18"/>
<text text-anchor="middle" x="261" y="-372.95" font-family="Times,serif" font-size="14.00">74</text>
</g>
<!-- 120 -->
<g id="node3" class="node">
<title>120</title>
<ellipse fill="none" stroke="black" stroke-width="2" cx="118" cy="-90" rx="27" ry="18"/>
<text text-anchor="middle" x="118" y="-84.95" font-family="Times,serif" font-size="14.00">120</text>
</g>
<!-- 247 -->
<g id="node4" class="node">
<title>247</title>
<ellipse fill="none" stroke="black" stroke-width="2" cx="149" cy="-162" rx="27" ry="18"/>
<text text-anchor="middle" x="149" y="-156.95" font-family="Times,serif" font-size="14.00">247</text>
</g>
<!-- 0 -->
<g id="node5" class="node">
<title>0</title>
<ellipse fill="none" stroke="black" cx="27" cy="-306" rx="27" ry="18"/>
<text text-anchor="middle" x="27" y="-300.95" font-family="Times,serif" font-size="14.00">0</text>
</g>
<!-- 21 -->
<g id="node6" class="node">
<title>21</title>
<ellipse fill="none" stroke="black" cx="27" cy="-234" rx="27" ry="18"/>
<text text-anchor="middle" x="27" y="-228.95" font-family="Times,serif" font-size="14.00">21</text>
</g>
<!-- 0&#45;&gt;21 -->
<g id="edge1" class="edge">
<title>0&#45;&gt;21</title>
<path fill="none" stroke="black" d="M27,-287.7C27,-280.24 27,-271.32 27,-262.97"/>
<polygon fill="black" stroke="black" points="30.5,-263.1 27,-253.1 23.5,-263.1 30.5,-263.1"/>
</g>
<!-- 25 -->
<g id="node9" class="node">
<title>25</title>
<ellipse fill="none" stroke="black" cx="27" cy="-162" rx="27" ry="18"/>
<text text-anchor="middle" x="27" y="-156.95" font-family="Times,serif" font-size="14.00">25</text>
</g>
<!-- 21&#45;&gt;25 -->
<g id="edge3" class="edge">
<title>21&#45;&gt;25</title>
<path fill="none" stroke="black" d="M27,-215.7C27,-208.24 27,-199.32 27,-190.97"/>
<polygon fill="black" stroke="black" points="30.5,-191.1 27,-181.1 23.5,-191.1 30.5,-191.1"/>
</g>
<!-- 17 -->
<g id="node7" class="node">
<title>17</title>
<ellipse fill="none" stroke="black" cx="146" cy="-594" rx="27" ry="18"/>
<text text-anchor="middle" x="146" y="-588.95" font-family="Times,serif" font-size="14.00">17</text>
</g>
<!-- 221 -->
<g id="node8" class="node">
<title>221</title>
<ellipse fill="none" stroke="black" cx="146" cy="-522" rx="27" ry="18"/>
<text text-anchor="middle" x="146" y="-516.95" font-family="Times,serif" font-size="14.00">221</text>
</g>
<!-- 17&#45;&gt;221 -->
<g id="edge2" class="edge">
<title>17&#45;&gt;221</title>
<path fill="none" stroke="black" d="M146,-575.7C146,-568.24 146,-559.32 146,-550.97"/>
<polygon fill="black" stroke="black" points="149.5,-551.1 146,-541.1 142.5,-551.1 149.5,-551.1"/>
</g>
<!-- 223 -->
<g id="node21" class="node">
<title>223</title>
<ellipse fill="none" stroke="black" cx="146" cy="-450" rx="27" ry="18"/>
<text text-anchor="middle" x="146" y="-444.95" font-family="Times,serif" font-size="14.00">223</text>
</g>
<!-- 221&#45;&gt;223 -->
<g id="edge15" class="edge">
<title>221&#45;&gt;223</title>
<path fill="none" stroke="black" d="M146,-503.7C146,-496.24 146,-487.32 146,-478.97"/>
<polygon fill="black" stroke="black" points="149.5,-479.1 146,-469.1 142.5,-479.1 149.5,-479.1"/>
</g>
<!-- 140 -->
<g id="node10" class="node">
<title>140</title>
<ellipse fill="none" stroke="black" cx="57" cy="-90" rx="27" ry="18"/>
<text text-anchor="middle" x="57" y="-84.95" font-family="Times,serif" font-size="14.00">140</text>
</g>
<!-- 25&#45;&gt;140 -->
<g id="edge4" class="edge">
<title>25&#45;&gt;140</title>
<path fill="none" stroke="black" d="M34.11,-144.41C37.55,-136.39 41.76,-126.57 45.62,-117.54"/>
<polygon fill="black" stroke="black" points="49.22,-119.04 49.94,-108.47 42.79,-116.28 49.22,-119.04"/>
</g>
<!-- 140&#45;&gt;370 -->
<g id="edge5" class="edge">
<title>140&#45;&gt;370</title>
<path fill="none" stroke="black" d="M67.44,-73.12C73.14,-64.43 80.34,-53.49 86.76,-43.72"/>
<polygon fill="black" stroke="black" points="90.04,-46.1 92.6,-35.82 84.19,-42.26 90.04,-46.1"/>
</g>
<!-- 49 -->
<g id="node11" class="node">
<title>49</title>
<ellipse fill="none" stroke="black" cx="287" cy="-594" rx="27" ry="18"/>
<text text-anchor="middle" x="287" y="-588.95" font-family="Times,serif" font-size="14.00">49</text>
</g>
<!-- 51 -->
<g id="node12" class="node">
<title>51</title>
<ellipse fill="none" stroke="black" cx="226" cy="-594" rx="27" ry="18"/>
<text text-anchor="middle" x="226" y="-588.95" font-family="Times,serif" font-size="14.00">51</text>
</g>
<!-- 61 -->
<g id="node13" class="node">
<title>61</title>
<ellipse fill="none" stroke="black" cx="226" cy="-522" rx="27" ry="18"/>
<text text-anchor="middle" x="226" y="-516.95" font-family="Times,serif" font-size="14.00">61</text>
</g>
<!-- 51&#45;&gt;61 -->
<g id="edge6" class="edge">
<title>51&#45;&gt;61</title>
<path fill="none" stroke="black" stroke-dasharray="5,2" d="M226,-575.7C226,-568.24 226,-559.32 226,-550.97"/>
<polygon fill="black" stroke="black" points="229.5,-551.1 226,-541.1 222.5,-551.1 229.5,-551.1"/>
</g>
<!-- 63 -->
<g id="node14" class="node">
<title>63</title>
<ellipse fill="none" stroke="black" cx="226" cy="-450" rx="27" ry="18"/>
<text text-anchor="middle" x="226" y="-444.95" font-family="Times,serif" font-size="14.00">63</text>
</g>
<!-- 61&#45;&gt;63 -->
<g id="edge14" class="edge">
<title>61&#45;&gt;63</title>
<path fill="none" stroke="black" d="M226,-503.7C226,-496.24 226,-487.32 226,-478.97"/>
<polygon fill="black" stroke="black" points="229.5,-479.1 226,-469.1 222.5,-479.1 229.5,-479.1"/>
</g>
<!-- 63&#45;&gt;74 -->
<g id="edge7" class="edge">
<title>63&#45;&gt;74</title>
<path fill="none" stroke="black" d="M234.29,-432.41C238.35,-424.3 243.32,-414.35 247.88,-405.25"/>
<polygon fill="black" stroke="black" points="251.42,-406.98 252.77,-396.47 245.16,-403.85 251.42,-406.98"/>
</g>
<!-- 68 -->
<g id="node15" class="node">
<title>68</title>
<ellipse fill="none" stroke="black" cx="287" cy="-450" rx="27" ry="18"/>
<text text-anchor="middle" x="287" y="-444.95" font-family="Times,serif" font-size="14.00">68</text>
</g>
<!-- 68&#45;&gt;74 -->
<g id="edge8" class="edge">
<title>68&#45;&gt;74</title>
<path fill="none" stroke="black" d="M280.71,-432.05C277.8,-424.23 274.28,-414.75 271.02,-405.98"/>
<polygon fill="black" stroke="black" points="274,-404.94 267.24,-396.79 267.44,-407.38 274,-404.94"/>
</g>
<!-- 94 -->
<g id="node16" class="node">
<title>94</title>
<ellipse fill="none" stroke="black" cx="348" cy="-594" rx="27" ry="18"/>
<text text-anchor="middle" x="348" y="-588.95" font-family="Times,serif" font-size="14.00">94</text>
</g>
<!-- 96 -->
<g id="node17" class="node">
<title>96</title>
<ellipse fill="none" stroke="black" cx="88" cy="-378" rx="27" ry="18"/>
<text text-anchor="middle" x="88" y="-372.95" font-family="Times,serif" font-size="14.00">96</text>
</g>
<!-- 106 -->
<g id="node18" class="node">
<title>106</title>
<ellipse fill="none" stroke="black" cx="88" cy="-306" rx="27" ry="18"/>
<text text-anchor="middle" x="88" y="-300.95" font-family="Times,serif" font-size="14.00">106</text>
</g>
<!-- 96&#45;&gt;106 -->
<g id="edge9" class="edge">
<title>96&#45;&gt;106</title>
<path fill="none" stroke="black" stroke-dasharray="5,2" d="M88,-359.7C88,-352.24 88,-343.32 88,-334.97"/>
<polygon fill="black" stroke="black" points="91.5,-335.1 88,-325.1 84.5,-335.1 91.5,-335.1"/>
</g>
<!-- 108 -->
<g id="node19" class="node">
<title>108</title>
<ellipse fill="none" stroke="black" cx="88" cy="-234" rx="27" ry="18"/>
<text text-anchor="middle" x="88" y="-228.95" font-family="Times,serif" font-size="14.00">108</text>
</g>
<!-- 106&#45;&gt;108 -->
<g id="edge13" class="edge">
<title>106&#45;&gt;108</title>
<path fill="none" stroke="black" d="M88,-287.7C88,-280.24 88,-271.32 88,-262.97"/>
<polygon fill="black" stroke="black" points="91.5,-263.1 88,-253.1 84.5,-263.1 91.5,-263.1"/>
</g>
<!-- 113 -->
<g id="node20" class="node">
<title>113</title>
<ellipse fill="none" stroke="black" cx="88" cy="-162" rx="27" ry="18"/>
<text text-anchor="middle" x="88" y="-156.95" font-family="Times,serif" font-size="14.00">113</text>
</g>
<!-- 108&#45;&gt;113 -->
<g id="edge10" class="edge">
<title>108&#45;&gt;113</title>
<path fill="none" stroke="black" d="M88,-215.7C88,-208.24 88,-199.32 88,-190.97"/>
<polygon fill="black" stroke="black" points="91.5,-191.1 88,-181.1 84.5,-191.1 91.5,-191.1"/>
</g>
<!-- 113&#45;&gt;120 -->
<g id="edge11" class="edge">
<title>113&#45;&gt;120</title>
<path fill="none" stroke="black" d="M95.11,-144.41C98.55,-136.39 102.76,-126.57 106.62,-117.54"/>
<polygon fill="black" stroke="black" points="110.22,-119.04 110.94,-108.47 103.79,-116.28 110.22,-119.04"/>
</g>
<!-- 113&#45;&gt;140 -->
<g id="edge12" class="edge">
<title>113&#45;&gt;140</title>
<path fill="none" stroke="black" d="M80.65,-144.41C77.06,-136.3 72.66,-126.35 68.62,-117.25"/>
<polygon fill="black" stroke="black" points="71.54,-116.2 64.29,-108.47 65.14,-119.03 71.54,-116.2"/>
</g>
<!-- 235 -->
<g id="node22" class="node">
<title>235</title>
<ellipse fill="none" stroke="black" cx="162" cy="-306" rx="27" ry="18"/>
<text text-anchor="middle" x="162" y="-300.95" font-family="Times,serif" font-size="14.00">235</text>
</g>
<!-- 223&#45;&gt;235 -->
<g id="edge16" class="edge">
<title>223&#45;&gt;235</title>
<path fill="none" stroke="black" d="M144.13,-431.82C142.56,-413.8 141.13,-384.73 145,-360 146.35,-351.37 148.87,-342.23 151.56,-334.01"/>
<polygon fill="black" stroke="black" points="155.11,-335.45 155.11,-324.86 148.5,-333.14 155.11,-335.45"/>
</g>
<!-- 233 -->
<g id="node23" class="node">
<title>233</title>
<ellipse fill="none" stroke="black" cx="175" cy="-378" rx="27" ry="18"/>
<text text-anchor="middle" x="175" y="-372.95" font-family="Times,serif" font-size="14.00">233</text>
</g>
<!-- 223&#45;&gt;233 -->
<g id="edge17" class="edge">
<title>223&#45;&gt;233</title>
<path fill="none" stroke="black" stroke-dasharray="5,2" d="M152.87,-432.41C156.2,-424.39 160.26,-414.57 164,-405.54"/>
<polygon fill="black" stroke="black" points="167.58,-407.05 168.18,-396.47 161.12,-404.37 167.58,-407.05"/>
</g>
<!-- 235&#45;&gt;247 -->
<g id="edge18" class="edge">
<title>235&#45;&gt;247</title>
<path fill="none" stroke="black" d="M160.36,-287.82C159.37,-277.44 158.1,-263.96 157,-252 155.12,-231.6 153.05,-208.56 151.49,-191.03"/>
<polygon fill="black" stroke="black" points="154.91,-191.05 150.54,-181.4 147.94,-191.67 154.91,-191.05"/>
</g>
<!-- 240 -->
<g id="node24" class="node">
<title>240</title>
<ellipse fill="none" stroke="black" cx="187" cy="-234" rx="27" ry="18"/>
<text text-anchor="middle" x="187" y="-228.95" font-family="Times,serif" font-size="14.00">240</text>
</g>
<!-- 235&#45;&gt;240 -->
<g id="edge19" class="edge">
<title>235&#45;&gt;240</title>
<path fill="none" stroke="black" d="M168.05,-288.05C170.85,-280.23 174.23,-270.75 177.37,-261.98"/>
<polygon fill="black" stroke="black" points="180.94,-263.38 181,-252.79 174.34,-261.03 180.94,-263.38"/>
</g>
<!-- 233&#45;&gt;235 -->
<g id="edge26" class="edge">
<title>233&#45;&gt;235</title>
<path fill="none" stroke="black" d="M171.79,-359.7C170.39,-352.15 168.71,-343.12 167.14,-334.68"/>
<polygon fill="black" stroke="black" points="170.44,-334.3 165.18,-325.1 163.56,-335.58 170.44,-334.3"/>
</g>
<!-- 240&#45;&gt;247 -->
<g id="edge20" class="edge">
<title>240&#45;&gt;247</title>
<path fill="none" stroke="black" d="M178.19,-216.76C173.68,-208.46 168.08,-198.15 163,-188.79"/>
<polygon fill="black" stroke="black" points="165.61,-187.27 157.77,-180.15 159.46,-190.61 165.61,-187.27"/>
</g>
<!-- 267 -->
<g id="node25" class="node">
<title>267</title>
<ellipse fill="none" stroke="black" cx="210" cy="-162" rx="27" ry="18"/>
<text text-anchor="middle" x="210" y="-156.95" font-family="Times,serif" font-size="14.00">267</text>
</g>
<!-- 240&#45;&gt;267 -->
<g id="edge21" class="edge">
<title>240&#45;&gt;267</title>
<path fill="none" stroke="black" d="M192.57,-216.05C195.14,-208.23 198.25,-198.75 201.14,-189.98"/>
<polygon fill="black" stroke="black" points="204.69,-191.38 204.48,-180.79 198.04,-189.2 204.69,-191.38"/>
</g>
<!-- 270 -->
<g id="node26" class="node">
<title>270</title>
<ellipse fill="none" stroke="black" cx="194" cy="-90" rx="27" ry="18"/>
<text text-anchor="middle" x="194" y="-84.95" font-family="Times,serif" font-size="14.00">270</text>
</g>
<!-- 267&#45;&gt;270 -->
<g id="edge22" class="edge">
<title>267&#45;&gt;270</title>
<path fill="none" stroke="black" d="M206.04,-143.7C204.32,-136.15 202.26,-127.12 200.33,-118.68"/>
<polygon fill="black" stroke="black" points="203.55,-118.07 197.91,-109.1 196.73,-119.63 203.55,-118.07"/>
</g>
<!-- 270&#45;&gt;370 -->
<g id="edge23" class="edge">
<title>270&#45;&gt;370</title>
<path fill="none" stroke="black" d="M176.88,-75.83C163.37,-65.44 144.29,-50.76 128.91,-38.93"/>
<polygon fill="black" stroke="black" points="131.41,-35.67 121.35,-32.35 127.14,-41.22 131.41,-35.67"/>
</g>
<!-- 277 -->
<g id="node27" class="node">
<title>277</title>
<ellipse fill="none" stroke="black" cx="194" cy="-18" rx="27" ry="18"/>
<text text-anchor="middle" x="194" y="-12.95" font-family="Times,serif" font-size="14.00">277</text>
</g>
<!-- 270&#45;&gt;277 -->
<g id="edge24" class="edge">
<title>270&#45;&gt;277</title>
<path fill="none" stroke="black" d="M192.03,-71.7C191.77,-64.24 191.69,-55.32 191.79,-46.97"/>
<polygon fill="black" stroke="black" points="195.31,-47.18 192.03,-37.1 188.31,-47.02 195.31,-47.18"/>
</g>
<!-- 277&#45;&gt;270 -->
<g id="edge25" class="edge">
<title>277&#45;&gt;270</title>
<path fill="none" stroke="black" d="M196.62,-36.1C196.97,-43.54 197.08,-52.44 196.95,-60.81"/>
<polygon fill="black" stroke="black" points="193.42,-60.6 196.63,-70.7 200.42,-60.8 193.42,-60.6"/>
</g>
</g>
</svg>
