<svg width="181px" height="720px"
 viewBox="0.00 0.00 181.47 720.00" xmlns="http://www.w3.org/2000/svg" xmlns:xlink="http://www.w3.org/1999/xlink">
<g id="graph0" class="graph" transform="scale(0.734694 0.734694) rotate(0.0) translate(4.0 976.0)">
<title>main</title>
<polygon fill="white" stroke="none" points="-4,4 -4,-976 243,-976 243,4 -4,4"/>
<!-- 370 -->
<g id="node1" class="node">
<title>370</title>
<ellipse fill="none" stroke="black" stroke-width="2" cx="151" cy="-306" rx="27" ry="18"/>
<text text-anchor="middle" x="151" y="-300.95" font-family="Times,serif" font-size="14.00">370</text>
</g>
<!-- 74 -->
<g id="node2" class="node">
<title>74</title>
<ellipse fill="none" stroke="black" stroke-width="2" cx="27" cy="-378" rx="27" ry="18"/>
<text text-anchor="middle" x="27" y="-372.95" font-family="Times,serif" font-size="14.00">74</text>
</g>
<!-- 120 -->
<g id="node3" class="node">
<title>120</title>
<ellipse fill="none" stroke="black" stroke-width="2" cx="69" cy="-18" rx="27" ry="18"/>
<text text-anchor="middle" x="69" y="-12.95" font-family="Times,serif" font-size="14.00">120</text>
</g>
<!-- 247 -->
<g id="node4" class="node">
<title>247</title>
<ellipse fill="none" stroke="black" stroke-width="2" cx="151" cy="-450" rx="27" ry="18"/>
<text text-anchor="middle" x="151" y="-444.95" font-family="Times,serif" font-size="14.00">247</text>
</g>
<!-- 0 -->
<g id="node5" class="node">
<title>0</title>
<ellipse fill="none" stroke="black" cx="112" cy="-954" rx="27" ry="18"/>
<text text-anchor="middle" x="112" y="-948.95" font-family="Times,serif" font-size="14.00">0</text>
</g>
<!-- 17 -->
<g id="node6" class="node">
<title>17</title>
<ellipse fill="none" stroke="black" cx="112" cy="-882" rx="27" ry="18"/>
<text text-anchor="middle" x="112" y="-876.95" font-family="Times,serif" font-size="14.00">17</text>
</g>
<!-- 0&#45;&gt;17 -->
<g id="edge1" class="edge">
<title>0&#45;&gt;17</title>
<path fill="none" stroke="black" d="M112,-935.7C112,-928.24 112,-919.32 112,-910.97"/>
<polygon fill="black" stroke="black" points="115.5,-911.1 112,-901.1 108.5,-911.1 115.5,-911.1"/>
</g>
<!-- 21 -->
<g id="node7" class="node">
<title>21</title>
<ellipse fill="none" stroke="black" cx="82" cy="-810" rx="27" ry="18"/>
<text text-anchor="middle" x="82" y="-804.95" font-family="Times,serif" font-size="14.00">21</text>
</g>
<!-- 17&#45;&gt;21 -->
<g id="edge2" class="edge">
<title>17&#45;&gt;21</title>
<path fill="none" stroke="black" d="M104.89,-864.41C101.45,-856.39 97.24,-846.57 93.38,-837.54"/>
<polygon fill="black" stroke="black" points="96.21,-836.28 89.06,-828.47 89.78,-839.04 96.21,-836.28"/>
</g>
<!-- 221 -->
<g id="node8" class="node">
<title>221</title>
<ellipse fill="none" stroke="black" cx="143" cy="-810" rx="27" ry="18"/>
<text text-anchor="middle" x="143" y="-804.95" font-family="Times,serif" font-size="14.00">221</text>
</g>
<!-- 17&#45;&gt;221 -->
<g id="edge3" class="edge">
<title>17&#45;&gt;221</title>
<path fill="none" stroke="black" d="M119.35,-864.41C122.94,-856.3 127.34,-846.35 131.38,-837.25"/>
<polygon fill="black" stroke="black" points="134.86,-839.03 135.71,-828.47 128.46,-836.2 134.86,-839.03"/>
</g>
<!-- 49 -->
<g id="node9" class="node">
<title>49</title>
<ellipse fill="none" stroke="black" cx="82" cy="-738" rx="27" ry="18"/>
<text text-anchor="middle" x="82" y="-732.95" font-family="Times,serif" font-size="14.00">49</text>
</g>
<!-- 21&#45;&gt;49 -->
<g id="edge4" class="edge">
<title>21&#45;&gt;49</title>
<path fill="none" stroke="black" d="M82,-791.7C82,-784.24 82,-775.32 82,-766.97"/>
<polygon fill="black" stroke="black" points="85.5,-767.1 82,-757.1 78.5,-767.1 85.5,-767.1"/>
</g>
<!-- 223 -->
<g id="node21" class="node">
<title>223</title>
<ellipse fill="none" stroke="black" cx="143" cy="-738" rx="27" ry="18"/>
<text text-anchor="middle" x="143" y="-732.95" font-family="Times,serif" font-size="14.00">223</text>
</g>
<!-- 221&#45;&gt;223 -->
<g id="edge21" class="edge">
<title>221&#45;&gt;223</title>
<path fill="none" stroke="black" d="M143,-791.7C143,-784.24 143,-775.32 143,-766.97"/>
<polygon fill="black" stroke="black" points="146.5,-767.1 143,-757.1 139.5,-767.1 146.5,-767.1"/>
</g>
<!-- 51 -->
<g id="node12" class="node">
<title>51</title>
<ellipse fill="none" stroke="black" cx="82" cy="-666" rx="27" ry="18"/>
<text text-anchor="middle" x="82" y="-660.95" font-family="Times,serif" font-size="14.00">51</text>
</g>
<!-- 49&#45;&gt;51 -->
<g id="edge5" class="edge">
<title>49&#45;&gt;51</title>
<path fill="none" stroke="black" d="M82,-719.7C82,-712.24 82,-703.32 82,-694.97"/>
<polygon fill="black" stroke="black" points="85.5,-695.1 82,-685.1 78.5,-695.1 85.5,-695.1"/>
</g>
<!-- 25 -->
<g id="node10" class="node">
<title>25</title>
<ellipse fill="none" stroke="black" cx="173" cy="-954" rx="27" ry="18"/>
<text text-anchor="middle" x="173" y="-948.95" font-family="Times,serif" font-size="14.00">25</text>
</g>
<!-- 140 -->
<g id="node11" class="node">
<title>140</title>
<ellipse fill="none" stroke="black" cx="130" cy="-18" rx="27" ry="18"/>
<text text-anchor="middle" x="130" y="-12.95" font-family="Times,serif" font-size="14.00">140</text>
</g>
<!-- 63 -->
<g id="node13" class="node">
<title>63</title>
<ellipse fill="none" stroke="black" cx="61" cy="-522" rx="27" ry="18"/>
<text text-anchor="middle" x="61" y="-516.95" font-family="Times,serif" font-size="14.00">63</text>
</g>
<!-- 51&#45;&gt;63 -->
<g id="edge6" class="edge">
<title>51&#45;&gt;63</title>
<path fill="none" stroke="black" d="M74.16,-648.72C69.64,-638.45 64.4,-624.76 62,-612 58.22,-591.92 58.08,-568.83 58.83,-551.2"/>
<polygon fill="black" stroke="black" points="62.37,-551.41 59.43,-541.24 55.39,-551.03 62.37,-551.41"/>
</g>
<!-- 61 -->
<g id="node14" class="node">
<title>61</title>
<ellipse fill="none" stroke="black" cx="92" cy="-594" rx="27" ry="18"/>
<text text-anchor="middle" x="92" y="-588.95" font-family="Times,serif" font-size="14.00">61</text>
</g>
<!-- 51&#45;&gt;61 -->
<g id="edge7" class="edge">
<title>51&#45;&gt;61</title>
<path fill="none" stroke="black" stroke-dasharray="5,2" d="M84.47,-647.7C85.54,-640.24 86.81,-631.32 88,-622.97"/>
<polygon fill="black" stroke="black" points="91.61,-623.5 89.56,-613.1 84.68,-622.51 91.61,-623.5"/>
</g>
<!-- 63&#45;&gt;74 -->
<g id="edge8" class="edge">
<title>63&#45;&gt;74</title>
<path fill="none" stroke="black" d="M51.18,-504.91C45.44,-494.71 38.65,-481.03 35,-468 29.44,-448.15 27.5,-424.92 26.92,-407.18"/>
<polygon fill="black" stroke="black" points="30.4,-407.33 26.7,-397.4 23.4,-407.46 30.4,-407.33"/>
</g>
<!-- 68 -->
<g id="node15" class="node">
<title>68</title>
<ellipse fill="none" stroke="black" cx="65" cy="-450" rx="27" ry="18"/>
<text text-anchor="middle" x="65" y="-444.95" font-family="Times,serif" font-size="14.00">68</text>
</g>
<!-- 63&#45;&gt;68 -->
<g id="edge9" class="edge">
<title>63&#45;&gt;68</title>
<path fill="none" stroke="black" d="M61.99,-503.7C62.42,-496.24 62.92,-487.32 63.4,-478.97"/>
<polygon fill="black" stroke="black" points="66.95,-479.29 64.02,-469.1 59.96,-478.89 66.95,-479.29"/>
</g>
<!-- 61&#45;&gt;63 -->
<g id="edge20" class="edge">
<title>61&#45;&gt;63</title>
<path fill="none" stroke="black" d="M84.65,-576.41C81.06,-568.3 76.66,-558.35 72.62,-549.25"/>
<polygon fill="black" stroke="black" points="75.54,-548.2 68.29,-540.47 69.14,-551.03 75.54,-548.2"/>
</g>
<!-- 68&#45;&gt;74 -->
<g id="edge10" class="edge">
<title>68&#45;&gt;74</title>
<path fill="none" stroke="black" d="M56.19,-432.76C51.68,-424.46 46.08,-414.15 41,-404.79"/>
<polygon fill="black" stroke="black" points="43.61,-403.27 35.77,-396.15 37.46,-406.61 43.61,-403.27"/>
</g>
<!-- 94 -->
<g id="node16" class="node">
<title>94</title>
<ellipse fill="none" stroke="black" cx="88" cy="-378" rx="27" ry="18"/>
<text text-anchor="middle" x="88" y="-372.95" font-family="Times,serif" font-size="14.00">94</text>
</g>
<!-- 68&#45;&gt;94 -->
<g id="edge11" class="edge">
<title>68&#45;&gt;94</title>
<path fill="none" stroke="black" d="M70.57,-432.05C73.14,-424.23 76.25,-414.75 79.14,-405.98"/>
<polygon fill="black" stroke="black" points="82.69,-407.38 82.48,-396.79 76.04,-405.2 82.69,-407.38"/>
</g>
<!-- 96 -->
<g id="node17" class="node">
<title>96</title>
<ellipse fill="none" stroke="black" cx="88" cy="-306" rx="27" ry="18"/>
<text text-anchor="middle" x="88" y="-300.95" font-family="Times,serif" font-size="14.00">96</text>
</g>
<!-- 94&#45;&gt;96 -->
<g id="edge12" class="edge">
<title>94&#45;&gt;96</title>
<path fill="none" stroke="black" d="M88,-359.7C88,-352.24 88,-343.32 88,-334.97"/>
<polygon fill="black" stroke="black" points="91.5,-335.1 88,-325.1 84.5,-335.1 91.5,-335.1"/>
</g>
<!-- 108 -->
<g id="node18" class="node">
<title>108</title>
<ellipse fill="none" stroke="black" cx="88" cy="-162" rx="27" ry="18"/>
<text text-anchor="middle" x="88" y="-156.95" font-family="Times,serif" font-size="14.00">108</text>
</g>
<!-- 96&#45;&gt;108 -->
<g id="edge13" class="edge">
<title>96&#45;&gt;108</title>
<path fill="none" stroke="black" d="M83.54,-287.95C81.06,-277.63 78.25,-264.15 77,-252 75.37,-236.08 75.37,-231.92 77,-216 77.86,-207.64 79.46,-198.66 81.18,-190.51"/>
<polygon fill="black" stroke="black" points="84.75,-191.57 83.54,-181.05 77.92,-190.03 84.75,-191.57"/>
</g>
<!-- 106 -->
<g id="node19" class="node">
<title>106</title>
<ellipse fill="none" stroke="black" cx="107" cy="-234" rx="27" ry="18"/>
<text text-anchor="middle" x="107" y="-228.95" font-family="Times,serif" font-size="14.00">106</text>
</g>
<!-- 96&#45;&gt;106 -->
<g id="edge14" class="edge">
<title>96&#45;&gt;106</title>
<path fill="none" stroke="black" stroke-dasharray="5,2" d="M92.6,-288.05C94.7,-280.32 97.24,-270.96 99.6,-262.27"/>
<polygon fill="black" stroke="black" points="103.2,-263.36 102.44,-252.79 96.45,-261.52 103.2,-263.36"/>
</g>
<!-- 108&#45;&gt;120 -->
<g id="edge15" class="edge">
<title>108&#45;&gt;120</title>
<path fill="none" stroke="black" d="M83.93,-143.9C81.6,-133.56 78.79,-120.08 77,-108 74.01,-87.83 71.98,-64.91 70.72,-47.38"/>
<polygon fill="black" stroke="black" points="74.14,-47.2 69.97,-37.46 67.16,-47.68 74.14,-47.2"/>
</g>
<!-- 113 -->
<g id="node20" class="node">
<title>113</title>
<ellipse fill="none" stroke="black" cx="107" cy="-90" rx="27" ry="18"/>
<text text-anchor="middle" x="107" y="-84.95" font-family="Times,serif" font-size="14.00">113</text>
</g>
<!-- 108&#45;&gt;113 -->
<g id="edge16" class="edge">
<title>108&#45;&gt;113</title>
<path fill="none" stroke="black" d="M92.6,-144.05C94.7,-136.32 97.24,-126.96 99.6,-118.27"/>
<polygon fill="black" stroke="black" points="103.2,-119.36 102.44,-108.79 96.45,-117.52 103.2,-119.36"/>
</g>
<!-- 106&#45;&gt;108 -->
<g id="edge19" class="edge">
<title>106&#45;&gt;108</title>
<path fill="none" stroke="black" d="M102.4,-216.05C100.3,-208.32 97.76,-198.96 95.4,-190.27"/>
<polygon fill="black" stroke="black" points="98.55,-189.52 92.56,-180.79 91.8,-191.36 98.55,-189.52"/>
</g>
<!-- 113&#45;&gt;120 -->
<g id="edge17" class="edge">
<title>113&#45;&gt;120</title>
<path fill="none" stroke="black" d="M98.19,-72.76C93.68,-64.46 88.08,-54.15 83,-44.79"/>
<polygon fill="black" stroke="black" points="85.61,-43.27 77.77,-36.15 79.46,-46.61 85.61,-43.27"/>
</g>
<!-- 113&#45;&gt;140 -->
<g id="edge18" class="edge">
<title>113&#45;&gt;140</title>
<path fill="none" stroke="black" d="M112.57,-72.05C115.14,-64.23 118.25,-54.75 121.14,-45.98"/>
<polygon fill="black" stroke="black" points="124.69,-47.38 124.48,-36.79 118.04,-45.2 124.69,-47.38"/>
</g>
<!-- 235 -->
<g id="node22" class="node">
<title>235</title>
<ellipse fill="none" stroke="black" cx="160" cy="-594" rx="27" ry="18"/>
<text text-anchor="middle" x="160" y="-588.95" font-family="Times,serif" font-size="14.00">235</text>
</g>
<!-- 223&#45;&gt;235 -->
<g id="edge22" class="edge">
<title>223&#45;&gt;235</title>
<path fill="none" stroke="black" d="M139.88,-719.77C137.15,-701.71 134.3,-672.61 139,-648 140.72,-638.98 143.96,-629.53 147.38,-621.15"/>
<polygon fill="black" stroke="black" points="150.92,-622.79 151.72,-612.23 144.51,-619.99 150.92,-622.79"/>
</g>
<!-- 233 -->
<g id="node23" class="node">
<title>233</title>
<ellipse fill="none" stroke="black" cx="169" cy="-666" rx="27" ry="18"/>
<text text-anchor="middle" x="169" y="-660.95" font-family="Times,serif" font-size="14.00">233</text>
</g>
<!-- 223&#45;&gt;233 -->
<g id="edge23" class="edge">
<title>223&#45;&gt;233</title>
<path fill="none" stroke="black" stroke-dasharray="5,2" d="M149.29,-720.05C152.2,-712.23 155.72,-702.75 158.98,-693.98"/>
<polygon fill="black" stroke="black" points="162.56,-695.38 162.76,-684.79 156,-692.94 162.56,-695.38"/>
</g>
<!-- 235&#45;&gt;247 -->
<g id="edge24" class="edge">
<title>235&#45;&gt;247</title>
<path fill="none" stroke="black" d="M158.9,-575.59C157.37,-551.5 154.6,-507.75 152.78,-479.03"/>
<polygon fill="black" stroke="black" points="156.21,-478.87 152.08,-469.11 149.22,-479.31 156.21,-478.87"/>
</g>
<!-- 240 -->
<g id="node24" class="node">
<title>240</title>
<ellipse fill="none" stroke="black" cx="189" cy="-522" rx="27" ry="18"/>
<text text-anchor="middle" x="189" y="-516.95" font-family="Times,serif" font-size="14.00">240</text>
</g>
<!-- 235&#45;&gt;240 -->
<g id="edge25" class="edge">
<title>235&#45;&gt;240</title>
<path fill="none" stroke="black" d="M166.87,-576.41C170.2,-568.39 174.26,-558.57 178,-549.54"/>
<polygon fill="black" stroke="black" points="181.58,-551.05 182.18,-540.47 175.12,-548.37 181.58,-551.05"/>
</g>
<!-- 233&#45;&gt;235 -->
<g id="edge32" class="edge">
<title>233&#45;&gt;235</title>
<path fill="none" stroke="black" d="M166.78,-647.7C165.82,-640.24 164.67,-631.32 163.6,-622.97"/>
<polygon fill="black" stroke="black" points="166.95,-622.58 162.2,-613.1 160,-623.47 166.95,-622.58"/>
</g>
<!-- 240&#45;&gt;247 -->
<g id="edge26" class="edge">
<title>240&#45;&gt;247</title>
<path fill="none" stroke="black" d="M180.19,-504.76C175.68,-496.46 170.08,-486.15 165,-476.79"/>
<polygon fill="black" stroke="black" points="167.61,-475.27 159.77,-468.15 161.46,-478.61 167.61,-475.27"/>
</g>
<!-- 267 -->
<g id="node25" class="node">
<title>267</title>
<ellipse fill="none" stroke="black" cx="212" cy="-450" rx="27" ry="18"/>
<text text-anchor="middle" x="212" y="-444.95" font-family="Times,serif" font-size="14.00">267</text>
</g>
<!-- 240&#45;&gt;267 -->
<g id="edge27" class="edge">
<title>240&#45;&gt;267</title>
<path fill="none" stroke="black" d="M194.57,-504.05C197.14,-496.23 200.25,-486.75 203.14,-477.98"/>
<polygon fill="black" stroke="black" points="206.69,-479.38 206.48,-468.79 200.04,-477.2 206.69,-479.38"/>
</g>
<!-- 270 -->
<g id="node26" class="node">
<title>270</title>
<ellipse fill="none" stroke="black" cx="212" cy="-378" rx="27" ry="18"/>
<text text-anchor="middle" x="212" y="-372.95" font-family="Times,serif" font-size="14.00">270</text>
</g>
<!-- 267&#45;&gt;270 -->
<g id="edge28" class="edge">
<title>267&#45;&gt;270</title>
<path fill="none" stroke="black" d="M212,-431.7C212,-424.24 212,-415.32 212,-406.97"/>
<polygon fill="black" stroke="black" points="215.5,-407.1 212,-397.1 208.5,-407.1 215.5,-407.1"/>
</g>
<!-- 270&#45;&gt;370 -->
<g id="edge29" class="edge">
<title>270&#45;&gt;370</title>
<path fill="none" stroke="black" d="M198.76,-361.81C190.77,-352.64 180.42,-340.76 171.4,-330.4"/>
<polygon fill="black" stroke="black" points="173.42,-328.4 164.21,-323.16 168.14,-333 173.42,-328.4"/>
</g>
<!-- 277 -->
<g id="node27" class="node">
<title>277</title>
<ellipse fill="none" stroke="black" cx="212" cy="-306" rx="27" ry="18"/>
<text text-anchor="middle" x="212" y="-300.95" font-family="Times,serif" font-size="14.00">277</text>
</g>
<!-- 270&#45;&gt;277 -->
<g id="edge30" class="edge">
<title>270&#45;&gt;277</title>
<path fill="none" stroke="black" d="M210.03,-359.7C209.77,-352.24 209.69,-343.32 209.79,-334.97"/>
<polygon fill="black" stroke="black" points="213.31,-335.18 210.03,-325.1 206.31,-335.02 213.31,-335.18"/>
</g>
<!-- 277&#45;&gt;270 -->
<g id="edge31" class="edge">
<title>277&#45;&gt;270</title>
<path fill="none" stroke="black" d="M214.62,-324.1C214.97,-331.54 215.08,-340.44 214.95,-348.81"/>
<polygon fill="black" stroke="black" points="211.42,-348.6 214.63,-358.7 218.42,-348.8 211.42,-348.6"/>
</g>
</g>
</svg>
