<svg width="518px" height="620px"
 viewBox="0.00 0.00 518.00 620.00" xmlns="http://www.w3.org/2000/svg" xmlns:xlink="http://www.w3.org/1999/xlink">
<g id="graph0" class="graph" transform="scale(1.0 1.0) rotate(0.0) translate(4.0 616.0)">
<title>main</title>
<polygon fill="white" stroke="none" points="-4,4 -4,-616 514,-616 514,4 -4,4"/>
<!-- 370 -->
<g id="node1" class="node">
<title>370</title>
<ellipse fill="none" stroke="black" stroke-width="2" cx="118" cy="-18" rx="27" ry="18"/>
<text text-anchor="middle" x="118" y="-12.95" font-family="Times,serif" font-size="14.00">370</text>
</g>
<!-- 74 -->
<g id="node2" class="node">
<title>74</title>
<ellipse fill="none" stroke="black" stroke-width="2" cx="279" cy="-378" rx="27" ry="18"/>
<text text-anchor="middle" x="279" y="-372.95" font-family="Times,serif" font-size="14.00">74</text>
</g>
<!-- 120 -->
<g id="node3" class="node">
<title>120</title>
<ellipse fill="none" stroke="black" stroke-width="2" cx="361" cy="-378" rx="27" ry="18"/>
<text text-anchor="middle" x="361" y="-372.95" font-family="Times,serif" font-size="14.00">120</text>
</g>
<!-- 247 -->
<g id="node4" class="node">
<title>247</title>
<ellipse fill="none" stroke="black" stroke-width="2" cx="149" cy="-162" rx="27" ry="18"/>
<text text-anchor="middle" x="149" y="-156.95" font-family="Times,serif" font-size="14.00">247</text>
</g>
<!-- 0 -->
<g id="node5" class="node">
<title>0</title>
<ellipse fill="none" stroke="black" cx="27" cy="-306" rx="27" ry="18"/>
<text text-anchor="middle" x="27" y="-300.95" font-family="Times,serif" font-size="14.00">0</text>
</g>
<!-- 21 -->
<g id="node6" class="node">
<title>21</title>
<ellipse fill="none" stroke="black" cx="27" cy="-234" rx="27" ry="18"/>
<text text-anchor="middle" x="27" y="-228.95" font-family="Times,serif" font-size="14.00">21</text>
</g>
<!-- 0&#45;&gt;21 -->
<g id="edge1" class="edge">
<title>0&#45;&gt;21</title>
<path fill="none" stroke="black" d="M27,-287.7C27,-280.24 27,-271.32 27,-262.97"/>
<polygon fill="black" stroke="black" points="30.5,-263.1 27,-253.1 23.5,-263.1 30.5,-263.1"/>
</g>
<!-- 25 -->
<g id="node9" class="node">
<title>25</title>
<ellipse fill="none" stroke="black" cx="27" cy="-162" rx="27" ry="18"/>
<text text-anchor="middle" x="27" y="-156.95" font-family="Times,serif" font-size="14.00">25</text>
</g>
<!-- 21&#45;&gt;25 -->
<g id="edge3" class="edge">
<title>21&#45;&gt;25</title>
<path fill="none" stroke="black" d="M27,-215.7C27,-208.24 27,-199.32 27,-190.97"/>
<polygon fill="black" stroke="black" points="30.5,-191.1 27,-181.1 23.5,-191.1 30.5,-191.1"/>
</g>
<!-- 17 -->
<g id="node7" class="node">
<title>17</title>
<ellipse fill="none" stroke="black" cx="168" cy="-594" rx="27" ry="18"/>
<text text-anchor="middle" x="168" y="-588.95" font-family="Times,serif" font-size="14.00">17</text>
</g>
<!-- 221 -->
<g id="node8" class="node">
<title>221</title>
<ellipse fill="none" stroke="black" cx="168" cy="-522" rx="27" ry="18"/>
<text text-anchor="middle" x="168" y="-516.95" font-family="Times,serif" font-size="14.00">221</text>
</g>
<!-- 17&#45;&gt;221 -->
<g id="edge2" class="edge">
<title>17&#45;&gt;221</title>
<path fill="none" stroke="black" d="M168,-575.7C168,-568.24 168,-559.32 168,-550.97"/>
<polygon fill="black" stroke="black" points="171.5,-551.1 168,-541.1 164.5,-551.1 171.5,-551.1"/>
</g>
<!-- 223 -->
<g id="node21" class="node">
<title>223</title>
<ellipse fill="none" stroke="black" cx="168" cy="-450" rx="27" ry="18"/>
<text text-anchor="middle" x="168" y="-444.95" font-family="Times,serif" font-size="14.00">223</text>
</g>
<!-- 221&#45;&gt;223 -->
<g id="edge14" class="edge">
<title>221&#45;&gt;223</title>
<path fill="none" stroke="black" d="M168,-503.7C168,-496.24 168,-487.32 168,-478.97"/>
<polygon fill="black" stroke="black" points="171.5,-479.1 168,-469.1 164.5,-479.1 171.5,-479.1"/>
</g>
<!-- 140 -->
<g id="node10" class="node">
<title>140</title>
<ellipse fill="none" stroke="black" cx="88" cy="-90" rx="27" ry="18"/>
<text text-anchor="middle" x="88" y="-84.95" font-family="Times,serif" font-size="14.00">140</text>
</g>
<!-- 25&#45;&gt;140 -->
<g id="edge4" class="edge">
<title>25&#45;&gt;140</title>
<path fill="none" stroke="black" d="M40.24,-145.81C48.23,-136.64 58.58,-124.76 67.6,-114.4"/>
<polygon fill="black" stroke="black" points="70.86,-117 74.79,-107.16 65.58,-112.4 70.86,-117"/>
</g>
<!-- 140&#45;&gt;370 -->
<g id="edge5" class="edge">
<title>140&#45;&gt;370</title>
<path fill="none" stroke="black" d="M95.11,-72.41C98.55,-64.39 102.76,-54.57 106.62,-45.54"/>
<polygon fill="black" stroke="black" points="110.22,-47.04 110.94,-36.47 103.79,-44.28 110.22,-47.04"/>
</g>
<!-- 49 -->
<g id="node11" class="node">
<title>49</title>
<ellipse fill="none" stroke="black" cx="422" cy="-594" rx="27" ry="18"/>
<text text-anchor="middle" x="422" y="-588.95" font-family="Times,serif" font-size="14.00">49</text>
</g>
<!-- 51 -->
<g id="node12" class="node">
<title>51</title>
<ellipse fill="none" stroke="black" cx="229" cy="-594" rx="27" ry="18"/>
<text text-anchor="middle" x="229" y="-588.95" font-family="Times,serif" font-size="14.00">51</text>
</g>
<!-- 61 -->
<g id="node13" class="node">
<title>61</title>
<ellipse fill="none" stroke="black" cx="229" cy="-522" rx="27" ry="18"/>
<text text-anchor="middle" x="229" y="-516.95" font-family="Times,serif" font-size="14.00">61</text>
</g>
<!-- 51&#45;&gt;61 -->
<g id="edge6" class="edge">
<title>51&#45;&gt;61</title>
<path fill="none" stroke="black" stroke-dasharray="5,2" d="M229,-575.7C229,-568.24 229,-559.32 229,-550.97"/>
<polygon fill="black" stroke="black" points="232.5,-551.1 229,-541.1 225.5,-551.1 232.5,-551.1"/>
</g>
<!-- 63 -->
<g id="node14" class="node">
<title>63</title>
<ellipse fill="none" stroke="black" cx="229" cy="-450" rx="27" ry="18"/>
<text text-anchor="middle" x="229" y="-444.95" font-family="Times,serif" font-size="14.00">63</text>
</g>
<!-- 61&#45;&gt;63 -->
<g id="edge13" class="edge">
<title>61&#45;&gt;63</title>
<path fill="none" stroke="black" d="M229,-503.7C229,-496.24 229,-487.32 229,-478.97"/>
<polygon fill="black" stroke="black" points="232.5,-479.1 229,-469.1 225.5,-479.1 232.5,-479.1"/>
</g>
<!-- 63&#45;&gt;74 -->
<g id="edge7" class="edge">
<title>63&#45;&gt;74</title>
<path fill="none" stroke="black" d="M240.1,-433.46C246.44,-424.58 254.54,-413.25 261.7,-403.22"/>
<polygon fill="black" stroke="black" points="264.97,-405.66 267.93,-395.49 259.27,-401.59 264.97,-405.66"/>
</g>
<!-- 68 -->
<g id="node15" class="node">
<title>68</title>
<ellipse fill="none" stroke="black" cx="290" cy="-450" rx="27" ry="18"/>
<text text-anchor="middle" x="290" y="-444.95" font-family="Times,serif" font-size="14.00">68</text>
</g>
<!-- 68&#45;&gt;74 -->
<g id="edge8" class="edge">
<title>68&#45;&gt;74</title>
<path fill="none" stroke="black" d="M287.28,-431.7C286.11,-424.24 284.71,-415.32 283.39,-406.97"/>
<polygon fill="black" stroke="black" points="286.7,-406.44 281.69,-397.1 279.78,-407.53 286.7,-406.44"/>
</g>
<!-- 94 -->
<g id="node16" class="node">
<title>94</title>
<ellipse fill="none" stroke="black" cx="483" cy="-594" rx="27" ry="18"/>
<text text-anchor="middle" x="483" y="-588.95" font-family="Times,serif" font-size="14.00">94</text>
</g>
<!-- 96 -->
<g id="node17" class="node">
<title>96</title>
<ellipse fill="none" stroke="black" cx="361" cy="-594" rx="27" ry="18"/>
<text text-anchor="middle" x="361" y="-588.95" font-family="Times,serif" font-size="14.00">96</text>
</g>
<!-- 106 -->
<g id="node18" class="node">
<title>106</title>
<ellipse fill="none" stroke="black" cx="361" cy="-522" rx="27" ry="18"/>
<text text-anchor="middle" x="361" y="-516.95" font-family="Times,serif" font-size="14.00">106</text>
</g>
<!-- 96&#45;&gt;106 -->
<g id="edge9" class="edge">
<title>96&#45;&gt;106</title>
<path fill="none" stroke="black" stroke-dasharray="5,2" d="M361,-575.7C361,-568.24 361,-559.32 361,-550.97"/>
<polygon fill="black" stroke="black" points="364.5,-551.1 361,-541.1 357.5,-551.1 364.5,-551.1"/>
</g>
<!-- 108 -->
<g id="node19" class="node">
<title>108</title>
<ellipse fill="none" stroke="black" cx="361" cy="-450" rx="27" ry="18"/>
<text text-anchor="middle" x="361" y="-444.95" font-family="Times,serif" font-size="14.00">108</text>
</g>
<!-- 106&#45;&gt;108 -->
<g id="edge12" class="edge">
<title>106&#45;&gt;108</title>
<path fill="none" stroke="black" d="M361,-503.7C361,-496.24 361,-487.32 361,-478.97"/>
<polygon fill="black" stroke="black" points="364.5,-479.1 361,-469.1 357.5,-479.1 364.5,-479.1"/>
</g>
<!-- 108&#45;&gt;120 -->
<g id="edge10" class="edge">
<title>108&#45;&gt;120</title>
<path fill="none" stroke="black" d="M361,-431.7C361,-424.24 361,-415.32 361,-406.97"/>
<polygon fill="black" stroke="black" points="364.5,-407.1 361,-397.1 357.5,-407.1 364.5,-407.1"/>
</g>
<!-- 113 -->
<g id="node20" class="node">
<title>113</title>
<ellipse fill="none" stroke="black" cx="88" cy="-162" rx="27" ry="18"/>
<text text-anchor="middle" x="88" y="-156.95" font-family="Times,serif" font-size="14.00">113</text>
</g>
<!-- 113&#45;&gt;140 -->
<g id="edge11" class="edge">
<title>113&#45;&gt;140</title>
<path fill="none" stroke="black" d="M88,-143.7C88,-136.24 88,-127.32 88,-118.97"/>
<polygon fill="black" stroke="black" points="91.5,-119.1 88,-109.1 84.5,-119.1 91.5,-119.1"/>
</g>
<!-- 235 -->
<g id="node22" class="node">
<title>235</title>
<ellipse fill="none" stroke="black" cx="168" cy="-306" rx="27" ry="18"/>
<text text-anchor="middle" x="168" y="-300.95" font-family="Times,serif" font-size="14.00">235</text>
</g>
<!-- 223&#45;&gt;235 -->
<g id="edge15" class="edge">
<title>223&#45;&gt;235</title>
<path fill="none" stroke="black" d="M163.54,-431.95C161.06,-421.63 158.25,-408.15 157,-396 155.37,-380.08 155.37,-375.92 157,-360 157.86,-351.64 159.46,-342.66 161.18,-334.51"/>
<polygon fill="black" stroke="black" points="164.75,-335.57 163.54,-325.05 157.92,-334.03 164.75,-335.57"/>
</g>
<!-- 233 -->
<g id="node23" class="node">
<title>233</title>
<ellipse fill="none" stroke="black" cx="187" cy="-378" rx="27" ry="18"/>
<text text-anchor="middle" x="187" y="-372.95" font-family="Times,serif" font-size="14.00">233</text>
</g>
<!-- 223&#45;&gt;233 -->
<g id="edge16" class="edge">
<title>223&#45;&gt;233</title>
<path fill="none" stroke="black" stroke-dasharray="5,2" d="M172.6,-432.05C174.7,-424.32 177.24,-414.96 179.6,-406.27"/>
<polygon fill="black" stroke="black" points="183.2,-407.36 182.44,-396.79 176.45,-405.52 183.2,-407.36"/>
</g>
<!-- 235&#45;&gt;247 -->
<g id="edge17" class="edge">
<title>235&#45;&gt;247</title>
<path fill="none" stroke="black" d="M163.93,-287.9C161.6,-277.56 158.79,-264.08 157,-252 154.01,-231.83 151.98,-208.91 150.72,-191.38"/>
<polygon fill="black" stroke="black" points="154.14,-191.2 149.97,-181.46 147.16,-191.68 154.14,-191.2"/>
</g>
<!-- 240 -->
<g id="node24" class="node">
<title>240</title>
<ellipse fill="none" stroke="black" cx="187" cy="-234" rx="27" ry="18"/>
<text text-anchor="middle" x="187" y="-228.95" font-family="Times,serif" font-size="14.00">240</text>
</g>
<!-- 235&#45;&gt;240 -->
<g id="edge18" class="edge">
<title>235&#45;&gt;240</title>
<path fill="none" stroke="black" d="M172.6,-288.05C174.7,-280.32 177.24,-270.96 179.6,-262.27"/>
<polygon fill="black" stroke="black" points="183.2,-263.36 182.44,-252.79 176.45,-261.52 183.2,-263.36"/>
</g>
<!-- 233&#45;&gt;235 -->
<g id="edge25" class="edge">
<title>233&#45;&gt;235</title>
<path fill="none" stroke="black" d="M182.4,-360.05C180.3,-352.32 177.76,-342.96 175.4,-334.27"/>
<polygon fill="black" stroke="black" points="178.55,-333.52 172.56,-324.79 171.8,-335.36 178.55,-333.52"/>
</g>
<!-- 240&#45;&gt;247 -->
<g id="edge19" class="edge">
<title>240&#45;&gt;247</title>
<path fill="none" stroke="black" d="M178.19,-216.76C173.68,-208.46 168.08,-198.15 163,-188.79"/>
<polygon fill="black" stroke="black" points="165.61,-187.27 157.77,-180.15 159.46,-190.61 165.61,-187.27"/>
</g>
<!-- 267 -->
<g id="node25" class="node">
<title>267</title>
<ellipse fill="none" stroke="black" cx="210" cy="-162" rx="27" ry="18"/>
<text text-anchor="middle" x="210" y="-156.95" font-family="Times,serif" font-size="14.00">267</text>
</g>
<!-- 240&#45;&gt;267 -->
<g id="edge20" class="edge">
<title>240&#45;&gt;267</title>
<path fill="none" stroke="black" d="M192.57,-216.05C195.14,-208.23 198.25,-198.75 201.14,-189.98"/>
<polygon fill="black" stroke="black" points="204.69,-191.38 204.48,-180.79 198.04,-189.2 204.69,-191.38"/>
</g>
<!-- 270 -->
<g id="node26" class="node">
<title>270</title>
<ellipse fill="none" stroke="black" cx="194" cy="-90" rx="27" ry="18"/>
<text text-anchor="middle" x="194" y="-84.95" font-family="Times,serif" font-size="14.00">270</text>
</g>
<!-- 267&#45;&gt;270 -->
<g id="edge21" class="edge">
<title>267&#45;&gt;270</title>
<path fill="none" stroke="black" d="M206.04,-143.7C204.32,-136.15 202.26,-127.12 200.33,-118.68"/>
<polygon fill="black" stroke="black" points="203.55,-118.07 197.91,-109.1 196.73,-119.63 203.55,-118.07"/>
</g>
<!-- 270&#45;&gt;370 -->
<g id="edge22" class="edge">
<title>270&#45;&gt;370</title>
<path fill="none" stroke="black" d="M178.62,-74.83C167.91,-64.97 153.42,-51.63 141.3,-40.46"/>
<polygon fill="black" stroke="black" points="144.08,-38.34 134.36,-34.14 139.34,-43.49 144.08,-38.34"/>
</g>
<!-- 277 -->
<g id="node27" class="node">
<title>277</title>
<ellipse fill="none" stroke="black" cx="194" cy="-18" rx="27" ry="18"/>
<text text-anchor="middle" x="194" y="-12.95" font-family="Times,serif" font-size="14.00">277</text>
</g>
<!-- 270&#45;&gt;277 -->
<g id="edge23" class="edge">
<title>270&#45;&gt;277</title>
<path fill="none" stroke="black" d="M192.03,-71.7C191.77,-64.24 191.69,-55.32 191.79,-46.97"/>
<polygon fill="black" stroke="black" points="195.31,-47.18 192.03,-37.1 188.31,-47.02 195.31,-47.18"/>
</g>
<!-- 277&#45;&gt;270 -->
<g id="edge24" class="edge">
<title>277&#45;&gt;270</title>
<path fill="none" stroke="black" d="M196.62,-36.1C196.97,-43.54 197.08,-52.44 196.95,-60.81"/>
<polygon fill="black" stroke="black" points="193.42,-60.6 196.63,-70.7 200.42,-60.8 193.42,-60.6"/>
</g>
</g>
</svg>
