<svg width="245px" height="720px"
 viewBox="0.00 0.00 245.03 720.00" xmlns="http://www.w3.org/2000/svg" xmlns:xlink="http://www.w3.org/1999/xlink">
<g id="graph0" class="graph" transform="scale(0.942408 0.942408) rotate(0.0) translate(4.0 760.0)">
<title>main</title>
<polygon fill="white" stroke="none" points="-4,4 -4,-760 256,-760 256,4 -4,4"/>
<!-- 370 -->
<g id="node1" class="node">
<title>370</title>
<ellipse fill="none" stroke="black" stroke-width="2" cx="115" cy="-18" rx="27" ry="18"/>
<text text-anchor="middle" x="115" y="-12.95" font-family="Times,serif" font-size="14.00">370</text>
</g>
<!-- 74 -->
<g id="node2" class="node">
<title>74</title>
<ellipse fill="none" stroke="black" stroke-width="2" cx="47" cy="-450" rx="27" ry="18"/>
<text text-anchor="middle" x="47" y="-444.95" font-family="Times,serif" font-size="14.00">74</text>
</g>
<!-- 120 -->
<g id="node3" class="node">
<title>120</title>
<ellipse fill="none" stroke="black" stroke-width="2" cx="126" cy="-90" rx="27" ry="18"/>
<text text-anchor="middle" x="126" y="-84.95" font-family="Times,serif" font-size="14.00">120</text>
</g>
<!-- 247 -->
<g id="node4" class="node">
<title>247</title>
<ellipse fill="none" stroke="black" stroke-width="2" cx="164" cy="-162" rx="27" ry="18"/>
<text text-anchor="middle" x="164" y="-156.95" font-family="Times,serif" font-size="14.00">247</text>
</g>
<!-- 0 -->
<g id="node5" class="node">
<title>0</title>
<ellipse fill="none" stroke="black" cx="27" cy="-306" rx="27" ry="18"/>
<text text-anchor="middle" x="27" y="-300.95" font-family="Times,serif" font-size="14.00">0</text>
</g>
<!-- 21 -->
<g id="node6" class="node">
<title>21</title>
<ellipse fill="none" stroke="black" cx="27" cy="-234" rx="27" ry="18"/>
<text text-anchor="middle" x="27" y="-228.95" font-family="Times,serif" font-size="14.00">21</text>
</g>
<!-- 0&#45;&gt;21 -->
<g id="edge1" class="edge">
<title>0&#45;&gt;21</title>
<path fill="none" stroke="black" d="M27,-287.7C27,-280.24 27,-271.32 27,-262.97"/>
<polygon fill="black" stroke="black" points="30.5,-263.1 27,-253.1 23.5,-263.1 30.5,-263.1"/>
</g>
<!-- 25 -->
<g id="node9" class="node">
<title>25</title>
<ellipse fill="none" stroke="black" cx="27" cy="-162" rx="27" ry="18"/>
<text text-anchor="middle" x="27" y="-156.95" font-family="Times,serif" font-size="14.00">25</text>
</g>
<!-- 21&#45;&gt;25 -->
<g id="edge3" class="edge">
<title>21&#45;&gt;25</title>
<path fill="none" stroke="black" d="M27,-215.7C27,-208.24 27,-199.32 27,-190.97"/>
<polygon fill="black" stroke="black" points="30.5,-191.1 27,-181.1 23.5,-191.1 30.5,-191.1"/>
</g>
<!-- 17 -->
<g id="node7" class="node">
<title>17</title>
<ellipse fill="none" stroke="black" cx="184" cy="-594" rx="27" ry="18"/>
<text text-anchor="middle" x="184" y="-588.95" font-family="Times,serif" font-size="14.00">17</text>
</g>
<!-- 221 -->
<g id="node8" class="node">
<title>221</title>
<ellipse fill="none" stroke="black" cx="184" cy="-522" rx="27" ry="18"/>
<text text-anchor="middle" x="184" y="-516.95" font-family="Times,serif" font-size="14.00">221</text>
</g>
<!-- 17&#45;&gt;221 -->
<g id="edge2" class="edge">
<title>17&#45;&gt;221</title>
<path fill="none" stroke="black" d="M184,-575.7C184,-568.24 184,-559.32 184,-550.97"/>
<polygon fill="black" stroke="black" points="187.5,-551.1 184,-541.1 180.5,-551.1 187.5,-551.1"/>
</g>
<!-- 223 -->
<g id="node21" class="node">
<title>223</title>
<ellipse fill="none" stroke="black" cx="184" cy="-450" rx="27" ry="18"/>
<text text-anchor="middle" x="184" y="-444.95" font-family="Times,serif" font-size="14.00">223</text>
</g>
<!-- 221&#45;&gt;223 -->
<g id="edge19" class="edge">
<title>221&#45;&gt;223</title>
<path fill="none" stroke="black" d="M184,-503.7C184,-496.24 184,-487.32 184,-478.97"/>
<polygon fill="black" stroke="black" points="187.5,-479.1 184,-469.1 180.5,-479.1 187.5,-479.1"/>
</g>
<!-- 140 -->
<g id="node10" class="node">
<title>140</title>
<ellipse fill="none" stroke="black" cx="65" cy="-90" rx="27" ry="18"/>
<text text-anchor="middle" x="65" y="-84.95" font-family="Times,serif" font-size="14.00">140</text>
</g>
<!-- 25&#45;&gt;140 -->
<g id="edge4" class="edge">
<title>25&#45;&gt;140</title>
<path fill="none" stroke="black" d="M35.81,-144.76C40.32,-136.46 45.92,-126.15 51,-116.79"/>
<polygon fill="black" stroke="black" points="54.54,-118.61 56.23,-108.15 48.39,-115.27 54.54,-118.61"/>
</g>
<!-- 140&#45;&gt;370 -->
<g id="edge5" class="edge">
<title>140&#45;&gt;370</title>
<path fill="none" stroke="black" d="M76.1,-73.46C82.44,-64.58 90.54,-53.25 97.7,-43.22"/>
<polygon fill="black" stroke="black" points="100.97,-45.66 103.93,-35.49 95.27,-41.59 100.97,-45.66"/>
</g>
<!-- 49 -->
<g id="node11" class="node">
<title>49</title>
<ellipse fill="none" stroke="black" cx="139" cy="-738" rx="27" ry="18"/>
<text text-anchor="middle" x="139" y="-732.95" font-family="Times,serif" font-size="14.00">49</text>
</g>
<!-- 51 -->
<g id="node12" class="node">
<title>51</title>
<ellipse fill="none" stroke="black" cx="78" cy="-738" rx="27" ry="18"/>
<text text-anchor="middle" x="78" y="-732.95" font-family="Times,serif" font-size="14.00">51</text>
</g>
<!-- 61 -->
<g id="node13" class="node">
<title>61</title>
<ellipse fill="none" stroke="black" cx="78" cy="-666" rx="27" ry="18"/>
<text text-anchor="middle" x="78" y="-660.95" font-family="Times,serif" font-size="14.00">61</text>
</g>
<!-- 51&#45;&gt;61 -->
<g id="edge6" class="edge">
<title>51&#45;&gt;61</title>
<path fill="none" stroke="black" stroke-dasharray="5,2" d="M78,-719.7C78,-712.24 78,-703.32 78,-694.97"/>
<polygon fill="black" stroke="black" points="81.5,-695.1 78,-685.1 74.5,-695.1 81.5,-695.1"/>
</g>
<!-- 63 -->
<g id="node14" class="node">
<title>63</title>
<ellipse fill="none" stroke="black" cx="78" cy="-594" rx="27" ry="18"/>
<text text-anchor="middle" x="78" y="-588.95" font-family="Times,serif" font-size="14.00">63</text>
</g>
<!-- 61&#45;&gt;63 -->
<g id="edge18" class="edge">
<title>61&#45;&gt;63</title>
<path fill="none" stroke="black" d="M78,-647.7C78,-640.24 78,-631.32 78,-622.97"/>
<polygon fill="black" stroke="black" points="81.5,-623.1 78,-613.1 74.5,-623.1 81.5,-623.1"/>
</g>
<!-- 68 -->
<g id="node15" class="node">
<title>68</title>
<ellipse fill="none" stroke="black" cx="78" cy="-522" rx="27" ry="18"/>
<text text-anchor="middle" x="78" y="-516.95" font-family="Times,serif" font-size="14.00">68</text>
</g>
<!-- 63&#45;&gt;68 -->
<g id="edge7" class="edge">
<title>63&#45;&gt;68</title>
<path fill="none" stroke="black" d="M78,-575.7C78,-568.24 78,-559.32 78,-550.97"/>
<polygon fill="black" stroke="black" points="81.5,-551.1 78,-541.1 74.5,-551.1 81.5,-551.1"/>
</g>
<!-- 68&#45;&gt;74 -->
<g id="edge8" class="edge">
<title>68&#45;&gt;74</title>
<path fill="none" stroke="black" d="M70.65,-504.41C67.06,-496.3 62.66,-486.35 58.62,-477.25"/>
<polygon fill="black" stroke="black" points="61.54,-476.2 54.29,-468.47 55.14,-479.03 61.54,-476.2"/>
</g>
<!-- 94 -->
<g id="node16" class="node">
<title>94</title>
<ellipse fill="none" stroke="black" cx="108" cy="-450" rx="27" ry="18"/>
<text text-anchor="middle" x="108" y="-444.95" font-family="Times,serif" font-size="14.00">94</text>
</g>
<!-- 68&#45;&gt;94 -->
<g id="edge9" class="edge">
<title>68&#45;&gt;94</title>
<path fill="none" stroke="black" d="M85.11,-504.41C88.55,-496.39 92.76,-486.57 96.62,-477.54"/>
<polygon fill="black" stroke="black" points="100.22,-479.04 100.94,-468.47 93.79,-476.28 100.22,-479.04"/>
</g>
<!-- 96 -->
<g id="node17" class="node">
<title>96</title>
<ellipse fill="none" stroke="black" cx="108" cy="-378" rx="27" ry="18"/>
<text text-anchor="middle" x="108" y="-372.95" font-family="Times,serif" font-size="14.00">96</text>
</g>
<!-- 94&#45;&gt;96 -->
<g id="edge10" class="edge">
<title>94&#45;&gt;96</title>
<path fill="none" stroke="black" d="M108,-431.7C108,-424.24 108,-415.32 108,-406.97"/>
<polygon fill="black" stroke="black" points="111.5,-407.1 108,-397.1 104.5,-407.1 111.5,-407.1"/>
</g>
<!-- 108 -->
<g id="node18" class="node">
<title>108</title>
<ellipse fill="none" stroke="black" cx="115" cy="-234" rx="27" ry="18"/>
<text text-anchor="middle" x="115" y="-228.95" font-family="Times,serif" font-size="14.00">108</text>
</g>
<!-- 96&#45;&gt;108 -->
<g id="edge11" class="edge">
<title>96&#45;&gt;108</title>
<path fill="none" stroke="black" d="M101.91,-360.21C96.2,-342.28 89.22,-313.04 94,-288 95.72,-278.98 98.96,-269.53 102.38,-261.15"/>
<polygon fill="black" stroke="black" points="105.92,-262.79 106.72,-252.23 99.51,-259.99 105.92,-262.79"/>
</g>
<!-- 106 -->
<g id="node19" class="node">
<title>106</title>
<ellipse fill="none" stroke="black" cx="124" cy="-306" rx="27" ry="18"/>
<text text-anchor="middle" x="124" y="-300.95" font-family="Times,serif" font-size="14.00">106</text>
</g>
<!-- 96&#45;&gt;106 -->
<g id="edge12" class="edge">
<title>96&#45;&gt;106</title>
<path fill="none" stroke="black" stroke-dasharray="5,2" d="M111.96,-359.7C113.68,-352.15 115.74,-343.12 117.67,-334.68"/>
<polygon fill="black" stroke="black" points="121.27,-335.63 120.09,-325.1 114.45,-334.07 121.27,-335.63"/>
</g>
<!-- 108&#45;&gt;120 -->
<g id="edge13" class="edge">
<title>108&#45;&gt;120</title>
<path fill="none" stroke="black" d="M116.35,-215.59C118.21,-191.5 121.6,-147.75 123.83,-119.03"/>
<polygon fill="black" stroke="black" points="127.39,-119.35 124.67,-109.11 120.41,-118.81 127.39,-119.35"/>
</g>
<!-- 113 -->
<g id="node20" class="node">
<title>113</title>
<ellipse fill="none" stroke="black" cx="88" cy="-162" rx="27" ry="18"/>
<text text-anchor="middle" x="88" y="-156.95" font-family="Times,serif" font-size="14.00">113</text>
</g>
<!-- 108&#45;&gt;113 -->
<g id="edge14" class="edge">
<title>108&#45;&gt;113</title>
<path fill="none" stroke="black" d="M108.46,-216.05C105.45,-208.23 101.79,-198.75 98.41,-189.98"/>
<polygon fill="black" stroke="black" points="101.34,-188.86 94.48,-180.79 94.81,-191.38 101.34,-188.86"/>
</g>
<!-- 106&#45;&gt;108 -->
<g id="edge17" class="edge">
<title>106&#45;&gt;108</title>
<path fill="none" stroke="black" d="M121.78,-287.7C120.82,-280.24 119.67,-271.32 118.6,-262.97"/>
<polygon fill="black" stroke="black" points="121.95,-262.58 117.2,-253.1 115,-263.47 121.95,-262.58"/>
</g>
<!-- 113&#45;&gt;120 -->
<g id="edge15" class="edge">
<title>113&#45;&gt;120</title>
<path fill="none" stroke="black" d="M96.81,-144.76C101.32,-136.46 106.92,-126.15 112,-116.79"/>
<polygon fill="black" stroke="black" points="115.54,-118.61 117.23,-108.15 109.39,-115.27 115.54,-118.61"/>
</g>
<!-- 113&#45;&gt;140 -->
<g id="edge16" class="edge">
<title>113&#45;&gt;140</title>
<path fill="none" stroke="black" d="M82.43,-144.05C79.86,-136.23 76.75,-126.75 73.86,-117.98"/>
<polygon fill="black" stroke="black" points="76.96,-117.2 70.52,-108.79 70.31,-119.38 76.96,-117.2"/>
</g>
<!-- 235 -->
<g id="node22" class="node">
<title>235</title>
<ellipse fill="none" stroke="black" cx="192" cy="-306" rx="27" ry="18"/>
<text text-anchor="middle" x="192" y="-300.95" font-family="Times,serif" font-size="14.00">235</text>
</g>
<!-- 223&#45;&gt;235 -->
<g id="edge20" class="edge">
<title>223&#45;&gt;235</title>
<path fill="none" stroke="black" d="M177.44,-432.2C171.31,-414.25 163.81,-385.01 169,-360 170.89,-350.88 174.44,-341.41 178.18,-333.04"/>
<polygon fill="black" stroke="black" points="181.77,-334.66 182.93,-324.13 175.45,-331.64 181.77,-334.66"/>
</g>
<!-- 233 -->
<g id="node23" class="node">
<title>233</title>
<ellipse fill="none" stroke="black" cx="199" cy="-378" rx="27" ry="18"/>
<text text-anchor="middle" x="199" y="-372.95" font-family="Times,serif" font-size="14.00">233</text>
</g>
<!-- 223&#45;&gt;233 -->
<g id="edge21" class="edge">
<title>223&#45;&gt;233</title>
<path fill="none" stroke="black" stroke-dasharray="5,2" d="M187.71,-431.7C189.32,-424.15 191.26,-415.12 193.07,-406.68"/>
<polygon fill="black" stroke="black" points="196.66,-407.62 195.33,-397.1 189.82,-406.15 196.66,-407.62"/>
</g>
<!-- 235&#45;&gt;247 -->
<g id="edge22" class="edge">
<title>235&#45;&gt;247</title>
<path fill="none" stroke="black" d="M184.51,-288.65C180.13,-278.35 174.9,-264.65 172,-252 167.42,-232 165.43,-208.91 164.59,-191.26"/>
<polygon fill="black" stroke="black" points="168.05,-191.14 164.17,-181.28 161.05,-191.4 168.05,-191.14"/>
</g>
<!-- 240 -->
<g id="node24" class="node">
<title>240</title>
<ellipse fill="none" stroke="black" cx="202" cy="-234" rx="27" ry="18"/>
<text text-anchor="middle" x="202" y="-228.95" font-family="Times,serif" font-size="14.00">240</text>
</g>
<!-- 235&#45;&gt;240 -->
<g id="edge23" class="edge">
<title>235&#45;&gt;240</title>
<path fill="none" stroke="black" d="M194.47,-287.7C195.54,-280.24 196.81,-271.32 198,-262.97"/>
<polygon fill="black" stroke="black" points="201.61,-263.5 199.56,-253.1 194.68,-262.51 201.61,-263.5"/>
</g>
<!-- 233&#45;&gt;235 -->
<g id="edge30" class="edge">
<title>233&#45;&gt;235</title>
<path fill="none" stroke="black" d="M197.27,-359.7C196.52,-352.24 195.63,-343.32 194.8,-334.97"/>
<polygon fill="black" stroke="black" points="198.19,-334.71 193.71,-325.1 191.22,-335.4 198.19,-334.71"/>
</g>
<!-- 240&#45;&gt;247 -->
<g id="edge24" class="edge">
<title>240&#45;&gt;247</title>
<path fill="none" stroke="black" d="M193.19,-216.76C188.68,-208.46 183.08,-198.15 178,-188.79"/>
<polygon fill="black" stroke="black" points="180.61,-187.27 172.77,-180.15 174.46,-190.61 180.61,-187.27"/>
</g>
<!-- 267 -->
<g id="node25" class="node">
<title>267</title>
<ellipse fill="none" stroke="black" cx="225" cy="-162" rx="27" ry="18"/>
<text text-anchor="middle" x="225" y="-156.95" font-family="Times,serif" font-size="14.00">267</text>
</g>
<!-- 240&#45;&gt;267 -->
<g id="edge25" class="edge">
<title>240&#45;&gt;267</title>
<path fill="none" stroke="black" d="M207.57,-216.05C210.14,-208.23 213.25,-198.75 216.14,-189.98"/>
<polygon fill="black" stroke="black" points="219.69,-191.38 219.48,-180.79 213.04,-189.2 219.69,-191.38"/>
</g>
<!-- 270 -->
<g id="node26" class="node">
<title>270</title>
<ellipse fill="none" stroke="black" cx="206" cy="-90" rx="27" ry="18"/>
<text text-anchor="middle" x="206" y="-84.95" font-family="Times,serif" font-size="14.00">270</text>
</g>
<!-- 267&#45;&gt;270 -->
<g id="edge26" class="edge">
<title>267&#45;&gt;270</title>
<path fill="none" stroke="black" d="M220.4,-144.05C218.3,-136.32 215.76,-126.96 213.4,-118.27"/>
<polygon fill="black" stroke="black" points="216.55,-117.52 210.56,-108.79 209.8,-119.36 216.55,-117.52"/>
</g>
<!-- 270&#45;&gt;370 -->
<g id="edge27" class="edge">
<title>270&#45;&gt;370</title>
<path fill="none" stroke="black" d="M188.88,-75.83C175.37,-65.44 156.29,-50.76 140.91,-38.93"/>
<polygon fill="black" stroke="black" points="143.41,-35.67 133.35,-32.35 139.14,-41.22 143.41,-35.67"/>
</g>
<!-- 277 -->
<g id="node27" class="node">
<title>277</title>
<ellipse fill="none" stroke="black" cx="206" cy="-18" rx="27" ry="18"/>
<text text-anchor="middle" x="206" y="-12.95" font-family="Times,serif" font-size="14.00">277</text>
</g>
<!-- 270&#45;&gt;277 -->
<g id="edge28" class="edge">
<title>270&#45;&gt;277</title>
<path fill="none" stroke="black" d="M204.03,-71.7C203.77,-64.24 203.69,-55.32 203.79,-46.97"/>
<polygon fill="black" stroke="black" points="207.31,-47.18 204.03,-37.1 200.31,-47.02 207.31,-47.18"/>
</g>
<!-- 277&#45;&gt;270 -->
<g id="edge29" class="edge">
<title>277&#45;&gt;270</title>
<path fill="none" stroke="black" d="M208.62,-36.1C208.97,-43.54 209.08,-52.44 208.95,-60.81"/>
<polygon fill="black" stroke="black" points="205.42,-60.6 208.63,-70.7 212.42,-60.8 205.42,-60.6"/>
</g>
</g>
</svg>
