<svg width="282px" height="720px"
 viewBox="0.00 0.00 282.12 720.00" xmlns="http://www.w3.org/2000/svg" xmlns:xlink="http://www.w3.org/1999/xlink">
<g id="graph0" class="graph" transform="scale(0.734694 0.734694) rotate(0.0) translate(4.0 976.0)">
<title>main</title>
<polygon fill="white" stroke="none" points="-4,4 -4,-976 380,-976 380,4 -4,4"/>
<!-- 370 -->
<g id="node1" class="node">
<title>370</title>
<ellipse fill="none" stroke="black" stroke-width="2" cx="39" cy="-18" rx="27" ry="18"/>
<text text-anchor="middle" x="39" y="-12.95" font-family="Times,serif" font-size="14.00">370</text>
</g>
<!-- 74 -->
<g id="node2" class="node">
<title>74</title>
<ellipse fill="none" stroke="black" stroke-width="2" cx="72" cy="-450" rx="27" ry="18"/>
<text text-anchor="middle" x="72" y="-444.95" font-family="Times,serif" font-size="14.00">74</text>
</g>
<!-- 120 -->
<g id="node3" class="node">
<title>120</title>
<ellipse fill="none" stroke="black" stroke-width="2" cx="104" cy="-90" rx="27" ry="18"/>
<text text-anchor="middle" x="104" y="-84.95" font-family="Times,serif" font-size="14.00">120</text>
</g>
<!-- 247 -->
<g id="node4" class="node">
<title>247</title>
<ellipse fill="none" stroke="black" stroke-width="2" cx="184" cy="-738" rx="27" ry="18"/>
<text text-anchor="middle" x="184" y="-732.95" font-family="Times,serif" font-size="14.00">247</text>
</g>
<!-- 0 -->
<g id="node5" class="node">
<title>0</title>
<ellipse fill="none" stroke="black" cx="27" cy="-954" rx="27" ry="18"/>
<text text-anchor="middle" x="27" y="-948.95" font-family="Times,serif" font-size="14.00">0</text>
</g>
<!-- 21 -->
<g id="node6" class="node">
<title>21</title>
<ellipse fill="none" stroke="black" cx="32" cy="-882" rx="27" ry="18"/>
<text text-anchor="middle" x="32" y="-876.95" font-family="Times,serif" font-size="14.00">21</text>
</g>
<!-- 0&#45;&gt;21 -->
<g id="edge1" class="edge">
<title>0&#45;&gt;21</title>
<path fill="none" stroke="black" d="M28.24,-935.7C28.77,-928.24 29.41,-919.32 30,-910.97"/>
<polygon fill="black" stroke="black" points="33.56,-911.33 30.78,-901.1 26.57,-910.83 33.56,-911.33"/>
</g>
<!-- 25 -->
<g id="node8" class="node">
<title>25</title>
<ellipse fill="none" stroke="black" cx="32" cy="-738" rx="27" ry="18"/>
<text text-anchor="middle" x="32" y="-732.95" font-family="Times,serif" font-size="14.00">25</text>
</g>
<!-- 21&#45;&gt;25 -->
<g id="edge3" class="edge">
<title>21&#45;&gt;25</title>
<path fill="none" stroke="black" d="M32,-863.59C32,-839.5 32,-795.75 32,-767.03"/>
<polygon fill="black" stroke="black" points="35.5,-767.11 32,-757.11 28.5,-767.11 35.5,-767.11"/>
</g>
<!-- 49 -->
<g id="node9" class="node">
<title>49</title>
<ellipse fill="none" stroke="black" cx="82" cy="-810" rx="27" ry="18"/>
<text text-anchor="middle" x="82" y="-804.95" font-family="Times,serif" font-size="14.00">49</text>
</g>
<!-- 21&#45;&gt;49 -->
<g id="edge4" class="edge">
<title>21&#45;&gt;49</title>
<path fill="none" stroke="black" d="M43.1,-865.46C49.44,-856.58 57.54,-845.25 64.7,-835.22"/>
<polygon fill="black" stroke="black" points="67.97,-837.66 70.93,-827.49 62.27,-833.59 67.97,-837.66"/>
</g>
<!-- 17 -->
<g id="node7" class="node">
<title>17</title>
<ellipse fill="none" stroke="black" cx="88" cy="-954" rx="27" ry="18"/>
<text text-anchor="middle" x="88" y="-948.95" font-family="Times,serif" font-size="14.00">17</text>
</g>
<!-- 17&#45;&gt;21 -->
<g id="edge2" class="edge">
<title>17&#45;&gt;21</title>
<path fill="none" stroke="black" d="M75.85,-937.81C68.58,-928.73 59.2,-917 50.97,-906.72"/>
<polygon fill="black" stroke="black" points="53.11,-904.78 44.13,-899.16 47.64,-909.15 53.11,-904.78"/>
</g>
<!-- 140 -->
<g id="node10" class="node">
<title>140</title>
<ellipse fill="none" stroke="black" cx="39" cy="-90" rx="27" ry="18"/>
<text text-anchor="middle" x="39" y="-84.95" font-family="Times,serif" font-size="14.00">140</text>
</g>
<!-- 25&#45;&gt;140 -->
<g id="edge5" class="edge">
<title>25&#45;&gt;140</title>
<path fill="none" stroke="black" d="M32,-719.51C32,-692.71 32,-639.87 32,-595 32,-595 32,-595 32,-233 32,-193.52 34.73,-147.93 36.78,-119.29"/>
<polygon fill="black" stroke="black" points="40.34,-119.71 37.58,-109.48 33.36,-119.19 40.34,-119.71"/>
</g>
<!-- 51 -->
<g id="node11" class="node">
<title>51</title>
<ellipse fill="none" stroke="black" cx="93" cy="-738" rx="27" ry="18"/>
<text text-anchor="middle" x="93" y="-732.95" font-family="Times,serif" font-size="14.00">51</text>
</g>
<!-- 49&#45;&gt;51 -->
<g id="edge7" class="edge">
<title>49&#45;&gt;51</title>
<path fill="none" stroke="black" d="M84.72,-791.7C85.89,-784.24 87.29,-775.32 88.61,-766.97"/>
<polygon fill="black" stroke="black" points="92.22,-767.53 90.31,-757.1 85.3,-766.44 92.22,-767.53"/>
</g>
<!-- 140&#45;&gt;370 -->
<g id="edge6" class="edge">
<title>140&#45;&gt;370</title>
<path fill="none" stroke="black" d="M39,-71.7C39,-64.24 39,-55.32 39,-46.97"/>
<polygon fill="black" stroke="black" points="42.5,-47.1 39,-37.1 35.5,-47.1 42.5,-47.1"/>
</g>
<!-- 63 -->
<g id="node12" class="node">
<title>63</title>
<ellipse fill="none" stroke="black" cx="82" cy="-594" rx="27" ry="18"/>
<text text-anchor="middle" x="82" y="-588.95" font-family="Times,serif" font-size="14.00">63</text>
</g>
<!-- 51&#45;&gt;63 -->
<g id="edge8" class="edge">
<title>51&#45;&gt;63</title>
<path fill="none" stroke="black" d="M86.11,-720.14C82.3,-709.88 77.94,-696.41 76,-684 72.82,-663.67 74.56,-640.46 76.96,-622.84"/>
<polygon fill="black" stroke="black" points="80.55,-623.58 78.6,-613.16 73.63,-622.52 80.55,-623.58"/>
</g>
<!-- 61 -->
<g id="node13" class="node">
<title>61</title>
<ellipse fill="none" stroke="black" cx="106" cy="-666" rx="27" ry="18"/>
<text text-anchor="middle" x="106" y="-660.95" font-family="Times,serif" font-size="14.00">61</text>
</g>
<!-- 51&#45;&gt;61 -->
<g id="edge9" class="edge">
<title>51&#45;&gt;61</title>
<path fill="none" stroke="black" stroke-dasharray="5,2" d="M96.21,-719.7C97.61,-712.15 99.29,-703.12 100.86,-694.68"/>
<polygon fill="black" stroke="black" points="104.44,-695.58 102.82,-685.1 97.56,-694.3 104.44,-695.58"/>
</g>
<!-- 63&#45;&gt;74 -->
<g id="edge10" class="edge">
<title>63&#45;&gt;74</title>
<path fill="none" stroke="black" d="M80.77,-575.59C79.08,-551.5 76,-507.75 73.97,-479.03"/>
<polygon fill="black" stroke="black" points="77.4,-478.84 73.2,-469.11 70.42,-479.33 77.4,-478.84"/>
</g>
<!-- 68 -->
<g id="node14" class="node">
<title>68</title>
<ellipse fill="none" stroke="black" cx="110" cy="-522" rx="27" ry="18"/>
<text text-anchor="middle" x="110" y="-516.95" font-family="Times,serif" font-size="14.00">68</text>
</g>
<!-- 63&#45;&gt;68 -->
<g id="edge11" class="edge">
<title>63&#45;&gt;68</title>
<path fill="none" stroke="black" d="M88.64,-576.41C91.84,-568.39 95.77,-558.57 99.38,-549.54"/>
<polygon fill="black" stroke="black" points="102.95,-551.05 103.41,-540.47 96.45,-548.45 102.95,-551.05"/>
</g>
<!-- 61&#45;&gt;63 -->
<g id="edge22" class="edge">
<title>61&#45;&gt;63</title>
<path fill="none" stroke="black" d="M100.19,-648.05C97.51,-640.23 94.26,-630.75 91.25,-621.98"/>
<polygon fill="black" stroke="black" points="94.31,-621.11 87.76,-612.79 87.69,-623.38 94.31,-621.11"/>
</g>
<!-- 68&#45;&gt;74 -->
<g id="edge12" class="edge">
<title>68&#45;&gt;74</title>
<path fill="none" stroke="black" d="M101.19,-504.76C96.68,-496.46 91.08,-486.15 86,-476.79"/>
<polygon fill="black" stroke="black" points="88.61,-475.27 80.77,-468.15 82.46,-478.61 88.61,-475.27"/>
</g>
<!-- 94 -->
<g id="node15" class="node">
<title>94</title>
<ellipse fill="none" stroke="black" cx="133" cy="-450" rx="27" ry="18"/>
<text text-anchor="middle" x="133" y="-444.95" font-family="Times,serif" font-size="14.00">94</text>
</g>
<!-- 68&#45;&gt;94 -->
<g id="edge13" class="edge">
<title>68&#45;&gt;94</title>
<path fill="none" stroke="black" d="M115.57,-504.05C118.14,-496.23 121.25,-486.75 124.14,-477.98"/>
<polygon fill="black" stroke="black" points="127.69,-479.38 127.48,-468.79 121.04,-477.2 127.69,-479.38"/>
</g>
<!-- 96 -->
<g id="node16" class="node">
<title>96</title>
<ellipse fill="none" stroke="black" cx="133" cy="-378" rx="27" ry="18"/>
<text text-anchor="middle" x="133" y="-372.95" font-family="Times,serif" font-size="14.00">96</text>
</g>
<!-- 94&#45;&gt;96 -->
<g id="edge14" class="edge">
<title>94&#45;&gt;96</title>
<path fill="none" stroke="black" d="M133,-431.7C133,-424.24 133,-415.32 133,-406.97"/>
<polygon fill="black" stroke="black" points="136.5,-407.1 133,-397.1 129.5,-407.1 136.5,-407.1"/>
</g>
<!-- 108 -->
<g id="node17" class="node">
<title>108</title>
<ellipse fill="none" stroke="black" cx="106" cy="-234" rx="27" ry="18"/>
<text text-anchor="middle" x="106" y="-228.95" font-family="Times,serif" font-size="14.00">108</text>
</g>
<!-- 96&#45;&gt;108 -->
<g id="edge15" class="edge">
<title>96&#45;&gt;108</title>
<path fill="none" stroke="black" d="M122.81,-361.01C116.95,-350.84 110.13,-337.16 107,-324 102.25,-304.02 102.16,-280.8 103.17,-263.09"/>
<polygon fill="black" stroke="black" points="106.72,-263.57 103.96,-253.34 99.74,-263.05 106.72,-263.57"/>
</g>
<!-- 106 -->
<g id="node18" class="node">
<title>106</title>
<ellipse fill="none" stroke="black" cx="137" cy="-306" rx="27" ry="18"/>
<text text-anchor="middle" x="137" y="-300.95" font-family="Times,serif" font-size="14.00">106</text>
</g>
<!-- 96&#45;&gt;106 -->
<g id="edge16" class="edge">
<title>96&#45;&gt;106</title>
<path fill="none" stroke="black" stroke-dasharray="5,2" d="M133.99,-359.7C134.42,-352.24 134.92,-343.32 135.4,-334.97"/>
<polygon fill="black" stroke="black" points="138.95,-335.29 136.02,-325.1 131.96,-334.89 138.95,-335.29"/>
</g>
<!-- 108&#45;&gt;120 -->
<g id="edge17" class="edge">
<title>108&#45;&gt;120</title>
<path fill="none" stroke="black" d="M105.75,-215.59C105.42,-191.5 104.8,-147.75 104.39,-119.03"/>
<polygon fill="black" stroke="black" points="107.88,-119.06 104.24,-109.11 100.88,-119.16 107.88,-119.06"/>
</g>
<!-- 113 -->
<g id="node19" class="node">
<title>113</title>
<ellipse fill="none" stroke="black" cx="70" cy="-162" rx="27" ry="18"/>
<text text-anchor="middle" x="70" y="-156.95" font-family="Times,serif" font-size="14.00">113</text>
</g>
<!-- 108&#45;&gt;113 -->
<g id="edge18" class="edge">
<title>108&#45;&gt;113</title>
<path fill="none" stroke="black" d="M97.65,-216.76C93.38,-208.46 88.08,-198.15 83.27,-188.79"/>
<polygon fill="black" stroke="black" points="85.99,-187.44 78.3,-180.15 79.77,-190.64 85.99,-187.44"/>
</g>
<!-- 106&#45;&gt;108 -->
<g id="edge21" class="edge">
<title>106&#45;&gt;108</title>
<path fill="none" stroke="black" d="M129.65,-288.41C126.06,-280.3 121.66,-270.35 117.62,-261.25"/>
<polygon fill="black" stroke="black" points="120.54,-260.2 113.29,-252.47 114.14,-263.03 120.54,-260.2"/>
</g>
<!-- 113&#45;&gt;120 -->
<g id="edge19" class="edge">
<title>113&#45;&gt;120</title>
<path fill="none" stroke="black" d="M78.06,-144.41C82,-136.3 86.83,-126.35 91.25,-117.25"/>
<polygon fill="black" stroke="black" points="94.78,-118.99 96,-108.47 88.48,-115.94 94.78,-118.99"/>
</g>
<!-- 113&#45;&gt;140 -->
<g id="edge20" class="edge">
<title>113&#45;&gt;140</title>
<path fill="none" stroke="black" d="M62.65,-144.41C59.06,-136.3 54.66,-126.35 50.62,-117.25"/>
<polygon fill="black" stroke="black" points="53.54,-116.2 46.29,-108.47 47.14,-119.03 53.54,-116.2"/>
</g>
<!-- 221 -->
<g id="node20" class="node">
<title>221</title>
<ellipse fill="none" stroke="black" cx="227" cy="-954" rx="27" ry="18"/>
<text text-anchor="middle" x="227" y="-948.95" font-family="Times,serif" font-size="14.00">221</text>
</g>
<!-- 223 -->
<g id="node21" class="node">
<title>223</title>
<ellipse fill="none" stroke="black" cx="166" cy="-954" rx="27" ry="18"/>
<text text-anchor="middle" x="166" y="-948.95" font-family="Times,serif" font-size="14.00">223</text>
</g>
<!-- 233 -->
<g id="node22" class="node">
<title>233</title>
<ellipse fill="none" stroke="black" cx="166" cy="-882" rx="27" ry="18"/>
<text text-anchor="middle" x="166" y="-876.95" font-family="Times,serif" font-size="14.00">233</text>
</g>
<!-- 223&#45;&gt;233 -->
<g id="edge23" class="edge">
<title>223&#45;&gt;233</title>
<path fill="none" stroke="black" stroke-dasharray="5,2" d="M166,-935.7C166,-928.24 166,-919.32 166,-910.97"/>
<polygon fill="black" stroke="black" points="169.5,-911.1 166,-901.1 162.5,-911.1 169.5,-911.1"/>
</g>
<!-- 235 -->
<g id="node23" class="node">
<title>235</title>
<ellipse fill="none" stroke="black" cx="166" cy="-810" rx="27" ry="18"/>
<text text-anchor="middle" x="166" y="-804.95" font-family="Times,serif" font-size="14.00">235</text>
</g>
<!-- 233&#45;&gt;235 -->
<g id="edge28" class="edge">
<title>233&#45;&gt;235</title>
<path fill="none" stroke="black" d="M166,-863.7C166,-856.24 166,-847.32 166,-838.97"/>
<polygon fill="black" stroke="black" points="169.5,-839.1 166,-829.1 162.5,-839.1 169.5,-839.1"/>
</g>
<!-- 235&#45;&gt;247 -->
<g id="edge24" class="edge">
<title>235&#45;&gt;247</title>
<path fill="none" stroke="black" d="M170.36,-792.05C172.35,-784.32 174.75,-774.96 176.99,-766.27"/>
<polygon fill="black" stroke="black" points="180.58,-767.35 179.68,-756.79 173.8,-765.6 180.58,-767.35"/>
</g>
<!-- 240 -->
<g id="node24" class="node">
<title>240</title>
<ellipse fill="none" stroke="black" cx="227" cy="-810" rx="27" ry="18"/>
<text text-anchor="middle" x="227" y="-804.95" font-family="Times,serif" font-size="14.00">240</text>
</g>
<!-- 240&#45;&gt;247 -->
<g id="edge25" class="edge">
<title>240&#45;&gt;247</title>
<path fill="none" stroke="black" d="M217.03,-792.76C211.87,-784.37 205.46,-773.93 199.66,-764.5"/>
<polygon fill="black" stroke="black" points="202.14,-762.84 193.92,-756.15 196.17,-766.5 202.14,-762.84"/>
</g>
<!-- 267 -->
<g id="node25" class="node">
<title>267</title>
<ellipse fill="none" stroke="black" cx="288" cy="-954" rx="27" ry="18"/>
<text text-anchor="middle" x="288" y="-948.95" font-family="Times,serif" font-size="14.00">267</text>
</g>
<!-- 270 -->
<g id="node26" class="node">
<title>270</title>
<ellipse fill="none" stroke="black" cx="349" cy="-954" rx="27" ry="18"/>
<text text-anchor="middle" x="349" y="-948.95" font-family="Times,serif" font-size="14.00">270</text>
</g>
<!-- 277 -->
<g id="node27" class="node">
<title>277</title>
<ellipse fill="none" stroke="black" cx="349" cy="-882" rx="27" ry="18"/>
<text text-anchor="middle" x="349" y="-876.95" font-family="Times,serif" font-size="14.00">277</text>
</g>
<!-- 270&#45;&gt;277 -->
<g id="edge26" class="edge">
<title>270&#45;&gt;277</title>
<path fill="none" stroke="black" d="M347.03,-935.7C346.77,-928.24 346.69,-919.32 346.79,-910.97"/>
<polygon fill="black" stroke="black" points="350.31,-911.18 347.03,-901.1 343.31,-911.02 350.31,-911.18"/>
</g>
<!-- 277&#45;&gt;270 -->
<g id="edge27" class="edge">
<title>277&#45;&gt;270</title>
<path fill="none" stroke="black" d="M351.62,-900.1C351.97,-907.54 352.08,-916.44 351.95,-924.81"/>
<polygon fill="black" stroke="black" points="348.42,-924.6 351.63,-934.7 355.42,-924.8 348.42,-924.6"/>
</g>
</g>
</svg>
