<svg width="238px" height="720px"
 viewBox="0.00 0.00 238.04 720.00" xmlns="http://www.w3.org/2000/svg" xmlns:xlink="http://www.w3.org/1999/xlink">
<g id="graph0" class="graph" transform="scale(0.734694 0.734694) rotate(0.0) translate(4.0 976.0)">
<title>main</title>
<polygon fill="white" stroke="none" points="-4,4 -4,-976 320,-976 320,4 -4,4"/>
<!-- 370 -->
<g id="node1" class="node">
<title>370</title>
<ellipse fill="none" stroke="black" stroke-width="2" cx="69" cy="-18" rx="27" ry="18"/>
<text text-anchor="middle" x="69" y="-12.95" font-family="Times,serif" font-size="14.00">370</text>
</g>
<!-- 74 -->
<g id="node2" class="node">
<title>74</title>
<ellipse fill="none" stroke="black" stroke-width="2" cx="67" cy="-450" rx="27" ry="18"/>
<text text-anchor="middle" x="67" y="-444.95" font-family="Times,serif" font-size="14.00">74</text>
</g>
<!-- 120 -->
<g id="node3" class="node">
<title>120</title>
<ellipse fill="none" stroke="black" stroke-width="2" cx="99" cy="-90" rx="27" ry="18"/>
<text text-anchor="middle" x="99" y="-84.95" font-family="Times,serif" font-size="14.00">120</text>
</g>
<!-- 247 -->
<g id="node4" class="node">
<title>247</title>
<ellipse fill="none" stroke="black" stroke-width="2" cx="167" cy="-810" rx="27" ry="18"/>
<text text-anchor="middle" x="167" y="-804.95" font-family="Times,serif" font-size="14.00">247</text>
</g>
<!-- 0 -->
<g id="node5" class="node">
<title>0</title>
<ellipse fill="none" stroke="black" cx="45" cy="-954" rx="27" ry="18"/>
<text text-anchor="middle" x="45" y="-948.95" font-family="Times,serif" font-size="14.00">0</text>
</g>
<!-- 21 -->
<g id="node6" class="node">
<title>21</title>
<ellipse fill="none" stroke="black" cx="68" cy="-882" rx="27" ry="18"/>
<text text-anchor="middle" x="68" y="-876.95" font-family="Times,serif" font-size="14.00">21</text>
</g>
<!-- 0&#45;&gt;21 -->
<g id="edge1" class="edge">
<title>0&#45;&gt;21</title>
<path fill="none" stroke="black" d="M50.57,-936.05C53.14,-928.23 56.25,-918.75 59.14,-909.98"/>
<polygon fill="black" stroke="black" points="62.69,-911.38 62.48,-900.79 56.04,-909.2 62.69,-911.38"/>
</g>
<!-- 25 -->
<g id="node8" class="node">
<title>25</title>
<ellipse fill="none" stroke="black" cx="27" cy="-738" rx="27" ry="18"/>
<text text-anchor="middle" x="27" y="-732.95" font-family="Times,serif" font-size="14.00">25</text>
</g>
<!-- 21&#45;&gt;25 -->
<g id="edge3" class="edge">
<title>21&#45;&gt;25</title>
<path fill="none" stroke="black" d="M62.44,-864.35C59.02,-853.94 54.61,-840.23 51,-828 44.95,-807.51 38.69,-784.18 34.07,-766.55"/>
<polygon fill="black" stroke="black" points="37.27,-765.93 31.36,-757.13 30.49,-767.69 37.27,-765.93"/>
</g>
<!-- 49 -->
<g id="node9" class="node">
<title>49</title>
<ellipse fill="none" stroke="black" cx="82" cy="-810" rx="27" ry="18"/>
<text text-anchor="middle" x="82" y="-804.95" font-family="Times,serif" font-size="14.00">49</text>
</g>
<!-- 21&#45;&gt;49 -->
<g id="edge4" class="edge">
<title>21&#45;&gt;49</title>
<path fill="none" stroke="black" d="M71.46,-863.7C72.97,-856.15 74.78,-847.12 76.46,-838.68"/>
<polygon fill="black" stroke="black" points="80.05,-839.6 78.58,-829.1 73.19,-838.22 80.05,-839.6"/>
</g>
<!-- 17 -->
<g id="node7" class="node">
<title>17</title>
<ellipse fill="none" stroke="black" cx="106" cy="-954" rx="27" ry="18"/>
<text text-anchor="middle" x="106" y="-948.95" font-family="Times,serif" font-size="14.00">17</text>
</g>
<!-- 17&#45;&gt;21 -->
<g id="edge2" class="edge">
<title>17&#45;&gt;21</title>
<path fill="none" stroke="black" d="M97.19,-936.76C92.68,-928.46 87.08,-918.15 82,-908.79"/>
<polygon fill="black" stroke="black" points="84.61,-907.27 76.77,-900.15 78.46,-910.61 84.61,-907.27"/>
</g>
<!-- 140 -->
<g id="node10" class="node">
<title>140</title>
<ellipse fill="none" stroke="black" cx="38" cy="-90" rx="27" ry="18"/>
<text text-anchor="middle" x="38" y="-84.95" font-family="Times,serif" font-size="14.00">140</text>
</g>
<!-- 25&#45;&gt;140 -->
<g id="edge5" class="edge">
<title>25&#45;&gt;140</title>
<path fill="none" stroke="black" d="M27,-719.51C27,-692.71 27,-639.87 27,-595 27,-595 27,-595 27,-233 27,-193.23 31.34,-147.38 34.57,-118.79"/>
<polygon fill="black" stroke="black" points="38.14,-119.35 35.83,-109.02 31.19,-118.54 38.14,-119.35"/>
</g>
<!-- 51 -->
<g id="node11" class="node">
<title>51</title>
<ellipse fill="none" stroke="black" cx="88" cy="-738" rx="27" ry="18"/>
<text text-anchor="middle" x="88" y="-732.95" font-family="Times,serif" font-size="14.00">51</text>
</g>
<!-- 49&#45;&gt;51 -->
<g id="edge7" class="edge">
<title>49&#45;&gt;51</title>
<path fill="none" stroke="black" d="M83.48,-791.7C84.12,-784.24 84.89,-775.32 85.6,-766.97"/>
<polygon fill="black" stroke="black" points="89.17,-767.37 86.53,-757.1 82.19,-766.77 89.17,-767.37"/>
</g>
<!-- 140&#45;&gt;370 -->
<g id="edge6" class="edge">
<title>140&#45;&gt;370</title>
<path fill="none" stroke="black" d="M45.35,-72.41C48.94,-64.3 53.34,-54.35 57.38,-45.25"/>
<polygon fill="black" stroke="black" points="60.86,-47.03 61.71,-36.47 54.46,-44.2 60.86,-47.03"/>
</g>
<!-- 63 -->
<g id="node12" class="node">
<title>63</title>
<ellipse fill="none" stroke="black" cx="77" cy="-594" rx="27" ry="18"/>
<text text-anchor="middle" x="77" y="-588.95" font-family="Times,serif" font-size="14.00">63</text>
</g>
<!-- 51&#45;&gt;63 -->
<g id="edge8" class="edge">
<title>51&#45;&gt;63</title>
<path fill="none" stroke="black" d="M81.11,-720.14C77.3,-709.88 72.94,-696.41 71,-684 67.82,-663.67 69.56,-640.46 71.96,-622.84"/>
<polygon fill="black" stroke="black" points="75.55,-623.58 73.6,-613.16 68.63,-622.52 75.55,-623.58"/>
</g>
<!-- 61 -->
<g id="node13" class="node">
<title>61</title>
<ellipse fill="none" stroke="black" cx="101" cy="-666" rx="27" ry="18"/>
<text text-anchor="middle" x="101" y="-660.95" font-family="Times,serif" font-size="14.00">61</text>
</g>
<!-- 51&#45;&gt;61 -->
<g id="edge9" class="edge">
<title>51&#45;&gt;61</title>
<path fill="none" stroke="black" stroke-dasharray="5,2" d="M91.21,-719.7C92.61,-712.15 94.29,-703.12 95.86,-694.68"/>
<polygon fill="black" stroke="black" points="99.44,-695.58 97.82,-685.1 92.56,-694.3 99.44,-695.58"/>
</g>
<!-- 63&#45;&gt;74 -->
<g id="edge10" class="edge">
<title>63&#45;&gt;74</title>
<path fill="none" stroke="black" d="M75.77,-575.59C74.08,-551.5 71,-507.75 68.97,-479.03"/>
<polygon fill="black" stroke="black" points="72.4,-478.84 68.2,-469.11 65.42,-479.33 72.4,-478.84"/>
</g>
<!-- 68 -->
<g id="node14" class="node">
<title>68</title>
<ellipse fill="none" stroke="black" cx="105" cy="-522" rx="27" ry="18"/>
<text text-anchor="middle" x="105" y="-516.95" font-family="Times,serif" font-size="14.00">68</text>
</g>
<!-- 63&#45;&gt;68 -->
<g id="edge11" class="edge">
<title>63&#45;&gt;68</title>
<path fill="none" stroke="black" d="M83.64,-576.41C86.84,-568.39 90.77,-558.57 94.38,-549.54"/>
<polygon fill="black" stroke="black" points="97.95,-551.05 98.41,-540.47 91.45,-548.45 97.95,-551.05"/>
</g>
<!-- 61&#45;&gt;63 -->
<g id="edge22" class="edge">
<title>61&#45;&gt;63</title>
<path fill="none" stroke="black" d="M95.19,-648.05C92.51,-640.23 89.26,-630.75 86.25,-621.98"/>
<polygon fill="black" stroke="black" points="89.31,-621.11 82.76,-612.79 82.69,-623.38 89.31,-621.11"/>
</g>
<!-- 68&#45;&gt;74 -->
<g id="edge12" class="edge">
<title>68&#45;&gt;74</title>
<path fill="none" stroke="black" d="M96.19,-504.76C91.68,-496.46 86.08,-486.15 81,-476.79"/>
<polygon fill="black" stroke="black" points="83.61,-475.27 75.77,-468.15 77.46,-478.61 83.61,-475.27"/>
</g>
<!-- 94 -->
<g id="node15" class="node">
<title>94</title>
<ellipse fill="none" stroke="black" cx="128" cy="-450" rx="27" ry="18"/>
<text text-anchor="middle" x="128" y="-444.95" font-family="Times,serif" font-size="14.00">94</text>
</g>
<!-- 68&#45;&gt;94 -->
<g id="edge13" class="edge">
<title>68&#45;&gt;94</title>
<path fill="none" stroke="black" d="M110.57,-504.05C113.14,-496.23 116.25,-486.75 119.14,-477.98"/>
<polygon fill="black" stroke="black" points="122.69,-479.38 122.48,-468.79 116.04,-477.2 122.69,-479.38"/>
</g>
<!-- 96 -->
<g id="node16" class="node">
<title>96</title>
<ellipse fill="none" stroke="black" cx="128" cy="-378" rx="27" ry="18"/>
<text text-anchor="middle" x="128" y="-372.95" font-family="Times,serif" font-size="14.00">96</text>
</g>
<!-- 94&#45;&gt;96 -->
<g id="edge14" class="edge">
<title>94&#45;&gt;96</title>
<path fill="none" stroke="black" d="M128,-431.7C128,-424.24 128,-415.32 128,-406.97"/>
<polygon fill="black" stroke="black" points="131.5,-407.1 128,-397.1 124.5,-407.1 131.5,-407.1"/>
</g>
<!-- 108 -->
<g id="node17" class="node">
<title>108</title>
<ellipse fill="none" stroke="black" cx="96" cy="-234" rx="27" ry="18"/>
<text text-anchor="middle" x="96" y="-228.95" font-family="Times,serif" font-size="14.00">108</text>
</g>
<!-- 96&#45;&gt;108 -->
<g id="edge15" class="edge">
<title>96&#45;&gt;108</title>
<path fill="none" stroke="black" d="M118.07,-360.94C112.3,-350.75 105.5,-337.07 102,-324 96.68,-304.12 95.26,-280.9 95.13,-263.16"/>
<polygon fill="black" stroke="black" points="98.64,-263.41 95.21,-253.38 91.64,-263.36 98.64,-263.41"/>
</g>
<!-- 106 -->
<g id="node18" class="node">
<title>106</title>
<ellipse fill="none" stroke="black" cx="132" cy="-306" rx="27" ry="18"/>
<text text-anchor="middle" x="132" y="-300.95" font-family="Times,serif" font-size="14.00">106</text>
</g>
<!-- 96&#45;&gt;106 -->
<g id="edge16" class="edge">
<title>96&#45;&gt;106</title>
<path fill="none" stroke="black" stroke-dasharray="5,2" d="M128.99,-359.7C129.42,-352.24 129.92,-343.32 130.4,-334.97"/>
<polygon fill="black" stroke="black" points="133.95,-335.29 131.02,-325.1 126.96,-334.89 133.95,-335.29"/>
</g>
<!-- 108&#45;&gt;120 -->
<g id="edge17" class="edge">
<title>108&#45;&gt;120</title>
<path fill="none" stroke="black" d="M96.37,-215.59C96.88,-191.5 97.8,-147.75 98.41,-119.03"/>
<polygon fill="black" stroke="black" points="101.93,-119.18 98.64,-109.11 94.93,-119.03 101.93,-119.18"/>
</g>
<!-- 113 -->
<g id="node19" class="node">
<title>113</title>
<ellipse fill="none" stroke="black" cx="65" cy="-162" rx="27" ry="18"/>
<text text-anchor="middle" x="65" y="-156.95" font-family="Times,serif" font-size="14.00">113</text>
</g>
<!-- 108&#45;&gt;113 -->
<g id="edge18" class="edge">
<title>108&#45;&gt;113</title>
<path fill="none" stroke="black" d="M88.65,-216.41C85.06,-208.3 80.66,-198.35 76.62,-189.25"/>
<polygon fill="black" stroke="black" points="79.54,-188.2 72.29,-180.47 73.14,-191.03 79.54,-188.2"/>
</g>
<!-- 106&#45;&gt;108 -->
<g id="edge21" class="edge">
<title>106&#45;&gt;108</title>
<path fill="none" stroke="black" d="M123.65,-288.76C119.38,-280.46 114.08,-270.15 109.27,-260.79"/>
<polygon fill="black" stroke="black" points="111.99,-259.44 104.3,-252.15 105.77,-262.64 111.99,-259.44"/>
</g>
<!-- 113&#45;&gt;120 -->
<g id="edge19" class="edge">
<title>113&#45;&gt;120</title>
<path fill="none" stroke="black" d="M73.06,-144.41C77,-136.3 81.83,-126.35 86.25,-117.25"/>
<polygon fill="black" stroke="black" points="89.78,-118.99 91,-108.47 83.48,-115.94 89.78,-118.99"/>
</g>
<!-- 113&#45;&gt;140 -->
<g id="edge20" class="edge">
<title>113&#45;&gt;140</title>
<path fill="none" stroke="black" d="M58.46,-144.05C55.45,-136.23 51.79,-126.75 48.41,-117.98"/>
<polygon fill="black" stroke="black" points="51.34,-116.86 44.48,-108.79 44.81,-119.38 51.34,-116.86"/>
</g>
<!-- 221 -->
<g id="node20" class="node">
<title>221</title>
<ellipse fill="none" stroke="black" cx="228" cy="-954" rx="27" ry="18"/>
<text text-anchor="middle" x="228" y="-948.95" font-family="Times,serif" font-size="14.00">221</text>
</g>
<!-- 223 -->
<g id="node21" class="node">
<title>223</title>
<ellipse fill="none" stroke="black" cx="167" cy="-954" rx="27" ry="18"/>
<text text-anchor="middle" x="167" y="-948.95" font-family="Times,serif" font-size="14.00">223</text>
</g>
<!-- 235 -->
<g id="node22" class="node">
<title>235</title>
<ellipse fill="none" stroke="black" cx="167" cy="-882" rx="27" ry="18"/>
<text text-anchor="middle" x="167" y="-876.95" font-family="Times,serif" font-size="14.00">235</text>
</g>
<!-- 223&#45;&gt;235 -->
<g id="edge23" class="edge">
<title>223&#45;&gt;235</title>
<path fill="none" stroke="black" d="M167,-935.7C167,-928.24 167,-919.32 167,-910.97"/>
<polygon fill="black" stroke="black" points="170.5,-911.1 167,-901.1 163.5,-911.1 170.5,-911.1"/>
</g>
<!-- 235&#45;&gt;247 -->
<g id="edge24" class="edge">
<title>235&#45;&gt;247</title>
<path fill="none" stroke="black" d="M167,-863.7C167,-856.24 167,-847.32 167,-838.97"/>
<polygon fill="black" stroke="black" points="170.5,-839.1 167,-829.1 163.5,-839.1 170.5,-839.1"/>
</g>
<!-- 240 -->
<g id="node23" class="node">
<title>240</title>
<ellipse fill="none" stroke="black" cx="160" cy="-234" rx="27" ry="18"/>
<text text-anchor="middle" x="160" y="-228.95" font-family="Times,serif" font-size="14.00">240</text>
</g>
<!-- 267 -->
<g id="node24" class="node">
<title>267</title>
<ellipse fill="none" stroke="black" cx="160" cy="-162" rx="27" ry="18"/>
<text text-anchor="middle" x="160" y="-156.95" font-family="Times,serif" font-size="14.00">267</text>
</g>
<!-- 240&#45;&gt;267 -->
<g id="edge25" class="edge">
<title>240&#45;&gt;267</title>
<path fill="none" stroke="black" d="M160,-215.7C160,-208.24 160,-199.32 160,-190.97"/>
<polygon fill="black" stroke="black" points="163.5,-191.1 160,-181.1 156.5,-191.1 163.5,-191.1"/>
</g>
<!-- 270 -->
<g id="node25" class="node">
<title>270</title>
<ellipse fill="none" stroke="black" cx="160" cy="-90" rx="27" ry="18"/>
<text text-anchor="middle" x="160" y="-84.95" font-family="Times,serif" font-size="14.00">270</text>
</g>
<!-- 267&#45;&gt;270 -->
<g id="edge26" class="edge">
<title>267&#45;&gt;270</title>
<path fill="none" stroke="black" d="M160,-143.7C160,-136.24 160,-127.32 160,-118.97"/>
<polygon fill="black" stroke="black" points="163.5,-119.1 160,-109.1 156.5,-119.1 163.5,-119.1"/>
</g>
<!-- 270&#45;&gt;370 -->
<g id="edge27" class="edge">
<title>270&#45;&gt;370</title>
<path fill="none" stroke="black" d="M142.88,-75.83C129.37,-65.44 110.29,-50.76 94.91,-38.93"/>
<polygon fill="black" stroke="black" points="97.41,-35.67 87.35,-32.35 93.14,-41.22 97.41,-35.67"/>
</g>
<!-- 277 -->
<g id="node26" class="node">
<title>277</title>
<ellipse fill="none" stroke="black" cx="160" cy="-18" rx="27" ry="18"/>
<text text-anchor="middle" x="160" y="-12.95" font-family="Times,serif" font-size="14.00">277</text>
</g>
<!-- 270&#45;&gt;277 -->
<g id="edge28" class="edge">
<title>270&#45;&gt;277</title>
<path fill="none" stroke="black" d="M158.03,-71.7C157.77,-64.24 157.69,-55.32 157.79,-46.97"/>
<polygon fill="black" stroke="black" points="161.31,-47.18 158.03,-37.1 154.31,-47.02 161.31,-47.18"/>
</g>
<!-- 277&#45;&gt;270 -->
<g id="edge29" class="edge">
<title>277&#45;&gt;270</title>
<path fill="none" stroke="black" d="M162.62,-36.1C162.97,-43.54 163.08,-52.44 162.95,-60.81"/>
<polygon fill="black" stroke="black" points="159.42,-60.6 162.63,-70.7 166.42,-60.8 159.42,-60.6"/>
</g>
<!-- 233 -->
<g id="node27" class="node">
<title>233</title>
<ellipse fill="none" stroke="black" cx="289" cy="-954" rx="27" ry="18"/>
<text text-anchor="middle" x="289" y="-948.95" font-family="Times,serif" font-size="14.00">233</text>
</g>
</g>
</svg>
