<svg width="276px" height="720px"
 viewBox="0.00 0.00 276.24 720.00" xmlns="http://www.w3.org/2000/svg" xmlns:xlink="http://www.w3.org/1999/xlink">
<g id="graph0" class="graph" transform="scale(0.734694 0.734694) rotate(0.0) translate(4.0 976.0)">
<title>main</title>
<polygon fill="white" stroke="none" points="-4,4 -4,-976 372,-976 372,4 -4,4"/>
<!-- 370 -->
<g id="node1" class="node">
<title>370</title>
<ellipse fill="none" stroke="black" stroke-width="2" cx="98" cy="-18" rx="27" ry="18"/>
<text text-anchor="middle" x="98" y="-12.95" font-family="Times,serif" font-size="14.00">370</text>
</g>
<!-- 74 -->
<g id="node2" class="node">
<title>74</title>
<ellipse fill="none" stroke="black" stroke-width="2" cx="70" cy="-450" rx="27" ry="18"/>
<text text-anchor="middle" x="70" y="-444.95" font-family="Times,serif" font-size="14.00">74</text>
</g>
<!-- 120 -->
<g id="node3" class="node">
<title>120</title>
<ellipse fill="none" stroke="black" stroke-width="2" cx="98" cy="-90" rx="27" ry="18"/>
<text text-anchor="middle" x="98" y="-84.95" font-family="Times,serif" font-size="14.00">120</text>
</g>
<!-- 247 -->
<g id="node4" class="node">
<title>247</title>
<ellipse fill="none" stroke="black" stroke-width="2" cx="171" cy="-738" rx="27" ry="18"/>
<text text-anchor="middle" x="171" y="-732.95" font-family="Times,serif" font-size="14.00">247</text>
</g>
<!-- 0 -->
<g id="node5" class="node">
<title>0</title>
<ellipse fill="none" stroke="black" cx="27" cy="-954" rx="27" ry="18"/>
<text text-anchor="middle" x="27" y="-948.95" font-family="Times,serif" font-size="14.00">0</text>
</g>
<!-- 21 -->
<g id="node6" class="node">
<title>21</title>
<ellipse fill="none" stroke="black" cx="60" cy="-882" rx="27" ry="18"/>
<text text-anchor="middle" x="60" y="-876.95" font-family="Times,serif" font-size="14.00">21</text>
</g>
<!-- 0&#45;&gt;21 -->
<g id="edge1" class="edge">
<title>0&#45;&gt;21</title>
<path fill="none" stroke="black" d="M34.82,-936.41C38.64,-928.3 43.33,-918.35 47.63,-909.25"/>
<polygon fill="black" stroke="black" points="51.14,-911.01 52.24,-900.47 44.81,-908.02 51.14,-911.01"/>
</g>
<!-- 25 -->
<g id="node8" class="node">
<title>25</title>
<ellipse fill="none" stroke="black" cx="30" cy="-738" rx="27" ry="18"/>
<text text-anchor="middle" x="30" y="-732.95" font-family="Times,serif" font-size="14.00">25</text>
</g>
<!-- 21&#45;&gt;25 -->
<g id="edge3" class="edge">
<title>21&#45;&gt;25</title>
<path fill="none" stroke="black" d="M56.38,-863.87C51.29,-839.78 41.96,-795.6 35.87,-766.77"/>
<polygon fill="black" stroke="black" points="39.12,-766.25 33.63,-757.19 32.27,-767.7 39.12,-766.25"/>
</g>
<!-- 49 -->
<g id="node9" class="node">
<title>49</title>
<ellipse fill="none" stroke="black" cx="85" cy="-810" rx="27" ry="18"/>
<text text-anchor="middle" x="85" y="-804.95" font-family="Times,serif" font-size="14.00">49</text>
</g>
<!-- 21&#45;&gt;49 -->
<g id="edge4" class="edge">
<title>21&#45;&gt;49</title>
<path fill="none" stroke="black" d="M66.05,-864.05C68.85,-856.23 72.23,-846.75 75.37,-837.98"/>
<polygon fill="black" stroke="black" points="78.94,-839.38 79,-828.79 72.34,-837.03 78.94,-839.38"/>
</g>
<!-- 17 -->
<g id="node7" class="node">
<title>17</title>
<ellipse fill="none" stroke="black" cx="88" cy="-954" rx="27" ry="18"/>
<text text-anchor="middle" x="88" y="-948.95" font-family="Times,serif" font-size="14.00">17</text>
</g>
<!-- 17&#45;&gt;21 -->
<g id="edge2" class="edge">
<title>17&#45;&gt;21</title>
<path fill="none" stroke="black" d="M81.36,-936.41C78.16,-928.39 74.23,-918.57 70.62,-909.54"/>
<polygon fill="black" stroke="black" points="73.55,-908.45 66.59,-900.47 67.05,-911.05 73.55,-908.45"/>
</g>
<!-- 140 -->
<g id="node10" class="node">
<title>140</title>
<ellipse fill="none" stroke="black" cx="37" cy="-90" rx="27" ry="18"/>
<text text-anchor="middle" x="37" y="-84.95" font-family="Times,serif" font-size="14.00">140</text>
</g>
<!-- 25&#45;&gt;140 -->
<g id="edge5" class="edge">
<title>25&#45;&gt;140</title>
<path fill="none" stroke="black" d="M30,-719.51C30,-692.71 30,-639.87 30,-595 30,-595 30,-595 30,-233 30,-193.52 32.73,-147.93 34.78,-119.29"/>
<polygon fill="black" stroke="black" points="38.34,-119.71 35.58,-109.48 31.36,-119.19 38.34,-119.71"/>
</g>
<!-- 51 -->
<g id="node11" class="node">
<title>51</title>
<ellipse fill="none" stroke="black" cx="91" cy="-738" rx="27" ry="18"/>
<text text-anchor="middle" x="91" y="-732.95" font-family="Times,serif" font-size="14.00">51</text>
</g>
<!-- 49&#45;&gt;51 -->
<g id="edge7" class="edge">
<title>49&#45;&gt;51</title>
<path fill="none" stroke="black" d="M86.48,-791.7C87.12,-784.24 87.89,-775.32 88.6,-766.97"/>
<polygon fill="black" stroke="black" points="92.17,-767.37 89.53,-757.1 85.19,-766.77 92.17,-767.37"/>
</g>
<!-- 140&#45;&gt;370 -->
<g id="edge6" class="edge">
<title>140&#45;&gt;370</title>
<path fill="none" stroke="black" d="M50.24,-73.81C58.23,-64.64 68.58,-52.76 77.6,-42.4"/>
<polygon fill="black" stroke="black" points="80.86,-45 84.79,-35.16 75.58,-40.4 80.86,-45"/>
</g>
<!-- 63 -->
<g id="node12" class="node">
<title>63</title>
<ellipse fill="none" stroke="black" cx="80" cy="-594" rx="27" ry="18"/>
<text text-anchor="middle" x="80" y="-588.95" font-family="Times,serif" font-size="14.00">63</text>
</g>
<!-- 51&#45;&gt;63 -->
<g id="edge8" class="edge">
<title>51&#45;&gt;63</title>
<path fill="none" stroke="black" d="M84.11,-720.14C80.3,-709.88 75.94,-696.41 74,-684 70.82,-663.67 72.56,-640.46 74.96,-622.84"/>
<polygon fill="black" stroke="black" points="78.55,-623.58 76.6,-613.16 71.63,-622.52 78.55,-623.58"/>
</g>
<!-- 61 -->
<g id="node13" class="node">
<title>61</title>
<ellipse fill="none" stroke="black" cx="104" cy="-666" rx="27" ry="18"/>
<text text-anchor="middle" x="104" y="-660.95" font-family="Times,serif" font-size="14.00">61</text>
</g>
<!-- 51&#45;&gt;61 -->
<g id="edge9" class="edge">
<title>51&#45;&gt;61</title>
<path fill="none" stroke="black" stroke-dasharray="5,2" d="M94.21,-719.7C95.61,-712.15 97.29,-703.12 98.86,-694.68"/>
<polygon fill="black" stroke="black" points="102.44,-695.58 100.82,-685.1 95.56,-694.3 102.44,-695.58"/>
</g>
<!-- 63&#45;&gt;74 -->
<g id="edge10" class="edge">
<title>63&#45;&gt;74</title>
<path fill="none" stroke="black" d="M78.77,-575.59C77.08,-551.5 74,-507.75 71.97,-479.03"/>
<polygon fill="black" stroke="black" points="75.4,-478.84 71.2,-469.11 68.42,-479.33 75.4,-478.84"/>
</g>
<!-- 68 -->
<g id="node14" class="node">
<title>68</title>
<ellipse fill="none" stroke="black" cx="108" cy="-522" rx="27" ry="18"/>
<text text-anchor="middle" x="108" y="-516.95" font-family="Times,serif" font-size="14.00">68</text>
</g>
<!-- 63&#45;&gt;68 -->
<g id="edge11" class="edge">
<title>63&#45;&gt;68</title>
<path fill="none" stroke="black" d="M86.64,-576.41C89.84,-568.39 93.77,-558.57 97.38,-549.54"/>
<polygon fill="black" stroke="black" points="100.95,-551.05 101.41,-540.47 94.45,-548.45 100.95,-551.05"/>
</g>
<!-- 61&#45;&gt;63 -->
<g id="edge22" class="edge">
<title>61&#45;&gt;63</title>
<path fill="none" stroke="black" d="M98.19,-648.05C95.51,-640.23 92.26,-630.75 89.25,-621.98"/>
<polygon fill="black" stroke="black" points="92.31,-621.11 85.76,-612.79 85.69,-623.38 92.31,-621.11"/>
</g>
<!-- 68&#45;&gt;74 -->
<g id="edge12" class="edge">
<title>68&#45;&gt;74</title>
<path fill="none" stroke="black" d="M99.19,-504.76C94.68,-496.46 89.08,-486.15 84,-476.79"/>
<polygon fill="black" stroke="black" points="86.61,-475.27 78.77,-468.15 80.46,-478.61 86.61,-475.27"/>
</g>
<!-- 94 -->
<g id="node15" class="node">
<title>94</title>
<ellipse fill="none" stroke="black" cx="131" cy="-450" rx="27" ry="18"/>
<text text-anchor="middle" x="131" y="-444.95" font-family="Times,serif" font-size="14.00">94</text>
</g>
<!-- 68&#45;&gt;94 -->
<g id="edge13" class="edge">
<title>68&#45;&gt;94</title>
<path fill="none" stroke="black" d="M113.57,-504.05C116.14,-496.23 119.25,-486.75 122.14,-477.98"/>
<polygon fill="black" stroke="black" points="125.69,-479.38 125.48,-468.79 119.04,-477.2 125.69,-479.38"/>
</g>
<!-- 96 -->
<g id="node16" class="node">
<title>96</title>
<ellipse fill="none" stroke="black" cx="131" cy="-378" rx="27" ry="18"/>
<text text-anchor="middle" x="131" y="-372.95" font-family="Times,serif" font-size="14.00">96</text>
</g>
<!-- 94&#45;&gt;96 -->
<g id="edge14" class="edge">
<title>94&#45;&gt;96</title>
<path fill="none" stroke="black" d="M131,-431.7C131,-424.24 131,-415.32 131,-406.97"/>
<polygon fill="black" stroke="black" points="134.5,-407.1 131,-397.1 127.5,-407.1 134.5,-407.1"/>
</g>
<!-- 108 -->
<g id="node17" class="node">
<title>108</title>
<ellipse fill="none" stroke="black" cx="104" cy="-234" rx="27" ry="18"/>
<text text-anchor="middle" x="104" y="-228.95" font-family="Times,serif" font-size="14.00">108</text>
</g>
<!-- 96&#45;&gt;108 -->
<g id="edge15" class="edge">
<title>96&#45;&gt;108</title>
<path fill="none" stroke="black" d="M120.81,-361.01C114.95,-350.84 108.13,-337.16 105,-324 100.25,-304.02 100.16,-280.8 101.17,-263.09"/>
<polygon fill="black" stroke="black" points="104.72,-263.57 101.96,-253.34 97.74,-263.05 104.72,-263.57"/>
</g>
<!-- 106 -->
<g id="node18" class="node">
<title>106</title>
<ellipse fill="none" stroke="black" cx="135" cy="-306" rx="27" ry="18"/>
<text text-anchor="middle" x="135" y="-300.95" font-family="Times,serif" font-size="14.00">106</text>
</g>
<!-- 96&#45;&gt;106 -->
<g id="edge16" class="edge">
<title>96&#45;&gt;106</title>
<path fill="none" stroke="black" stroke-dasharray="5,2" d="M131.99,-359.7C132.42,-352.24 132.92,-343.32 133.4,-334.97"/>
<polygon fill="black" stroke="black" points="136.95,-335.29 134.02,-325.1 129.96,-334.89 136.95,-335.29"/>
</g>
<!-- 108&#45;&gt;120 -->
<g id="edge17" class="edge">
<title>108&#45;&gt;120</title>
<path fill="none" stroke="black" d="M103.26,-215.59C102.25,-191.5 100.4,-147.75 99.18,-119.03"/>
<polygon fill="black" stroke="black" points="102.64,-118.95 98.72,-109.11 95.65,-119.25 102.64,-118.95"/>
</g>
<!-- 113 -->
<g id="node19" class="node">
<title>113</title>
<ellipse fill="none" stroke="black" cx="68" cy="-162" rx="27" ry="18"/>
<text text-anchor="middle" x="68" y="-156.95" font-family="Times,serif" font-size="14.00">113</text>
</g>
<!-- 108&#45;&gt;113 -->
<g id="edge18" class="edge">
<title>108&#45;&gt;113</title>
<path fill="none" stroke="black" d="M95.65,-216.76C91.38,-208.46 86.08,-198.15 81.27,-188.79"/>
<polygon fill="black" stroke="black" points="83.99,-187.44 76.3,-180.15 77.77,-190.64 83.99,-187.44"/>
</g>
<!-- 106&#45;&gt;108 -->
<g id="edge21" class="edge">
<title>106&#45;&gt;108</title>
<path fill="none" stroke="black" d="M127.65,-288.41C124.06,-280.3 119.66,-270.35 115.62,-261.25"/>
<polygon fill="black" stroke="black" points="118.54,-260.2 111.29,-252.47 112.14,-263.03 118.54,-260.2"/>
</g>
<!-- 113&#45;&gt;120 -->
<g id="edge19" class="edge">
<title>113&#45;&gt;120</title>
<path fill="none" stroke="black" d="M75.11,-144.41C78.55,-136.39 82.76,-126.57 86.62,-117.54"/>
<polygon fill="black" stroke="black" points="90.22,-119.04 90.94,-108.47 83.79,-116.28 90.22,-119.04"/>
</g>
<!-- 113&#45;&gt;140 -->
<g id="edge20" class="edge">
<title>113&#45;&gt;140</title>
<path fill="none" stroke="black" d="M60.65,-144.41C57.06,-136.3 52.66,-126.35 48.62,-117.25"/>
<polygon fill="black" stroke="black" points="51.54,-116.2 44.29,-108.47 45.14,-119.03 51.54,-116.2"/>
</g>
<!-- 221 -->
<g id="node20" class="node">
<title>221</title>
<ellipse fill="none" stroke="black" cx="219" cy="-954" rx="27" ry="18"/>
<text text-anchor="middle" x="219" y="-948.95" font-family="Times,serif" font-size="14.00">221</text>
</g>
<!-- 223 -->
<g id="node21" class="node">
<title>223</title>
<ellipse fill="none" stroke="black" cx="158" cy="-954" rx="27" ry="18"/>
<text text-anchor="middle" x="158" y="-948.95" font-family="Times,serif" font-size="14.00">223</text>
</g>
<!-- 233 -->
<g id="node22" class="node">
<title>233</title>
<ellipse fill="none" stroke="black" cx="158" cy="-882" rx="27" ry="18"/>
<text text-anchor="middle" x="158" y="-876.95" font-family="Times,serif" font-size="14.00">233</text>
</g>
<!-- 223&#45;&gt;233 -->
<g id="edge23" class="edge">
<title>223&#45;&gt;233</title>
<path fill="none" stroke="black" stroke-dasharray="5,2" d="M158,-935.7C158,-928.24 158,-919.32 158,-910.97"/>
<polygon fill="black" stroke="black" points="161.5,-911.1 158,-901.1 154.5,-911.1 161.5,-911.1"/>
</g>
<!-- 235 -->
<g id="node23" class="node">
<title>235</title>
<ellipse fill="none" stroke="black" cx="158" cy="-810" rx="27" ry="18"/>
<text text-anchor="middle" x="158" y="-804.95" font-family="Times,serif" font-size="14.00">235</text>
</g>
<!-- 233&#45;&gt;235 -->
<g id="edge27" class="edge">
<title>233&#45;&gt;235</title>
<path fill="none" stroke="black" d="M158,-863.7C158,-856.24 158,-847.32 158,-838.97"/>
<polygon fill="black" stroke="black" points="161.5,-839.1 158,-829.1 154.5,-839.1 161.5,-839.1"/>
</g>
<!-- 235&#45;&gt;247 -->
<g id="edge24" class="edge">
<title>235&#45;&gt;247</title>
<path fill="none" stroke="black" d="M161.21,-791.7C162.61,-784.15 164.29,-775.12 165.86,-766.68"/>
<polygon fill="black" stroke="black" points="169.44,-767.58 167.82,-757.1 162.56,-766.3 169.44,-767.58"/>
</g>
<!-- 240 -->
<g id="node24" class="node">
<title>240</title>
<ellipse fill="none" stroke="black" cx="219" cy="-810" rx="27" ry="18"/>
<text text-anchor="middle" x="219" y="-804.95" font-family="Times,serif" font-size="14.00">240</text>
</g>
<!-- 240&#45;&gt;247 -->
<g id="edge25" class="edge">
<title>240&#45;&gt;247</title>
<path fill="none" stroke="black" d="M208.11,-793.12C202.16,-784.43 194.65,-773.49 187.95,-763.72"/>
<polygon fill="black" stroke="black" points="190.39,-762.09 181.85,-755.82 184.62,-766.05 190.39,-762.09"/>
</g>
<!-- 267 -->
<g id="node25" class="node">
<title>267</title>
<ellipse fill="none" stroke="black" cx="280" cy="-954" rx="27" ry="18"/>
<text text-anchor="middle" x="280" y="-948.95" font-family="Times,serif" font-size="14.00">267</text>
</g>
<!-- 270 -->
<g id="node26" class="node">
<title>270</title>
<ellipse fill="none" stroke="black" cx="159" cy="-90" rx="27" ry="18"/>
<text text-anchor="middle" x="159" y="-84.95" font-family="Times,serif" font-size="14.00">270</text>
</g>
<!-- 270&#45;&gt;370 -->
<g id="edge26" class="edge">
<title>270&#45;&gt;370</title>
<path fill="none" stroke="black" d="M145.76,-73.81C137.77,-64.64 127.42,-52.76 118.4,-42.4"/>
<polygon fill="black" stroke="black" points="120.42,-40.4 111.21,-35.16 115.14,-45 120.42,-40.4"/>
</g>
<!-- 277 -->
<g id="node27" class="node">
<title>277</title>
<ellipse fill="none" stroke="black" cx="341" cy="-954" rx="27" ry="18"/>
<text text-anchor="middle" x="341" y="-948.95" font-family="Times,serif" font-size="14.00">277</text>
</g>
</g>
</svg>
