<svg width="540px" height="579px"
 viewBox="0.00 0.00 540.00 579.24" xmlns="http://www.w3.org/2000/svg" xmlns:xlink="http://www.w3.org/1999/xlink">
<g id="graph0" class="graph" transform="scale(0.934256 0.934256) rotate(0.0) translate(4.0 616.0)">
<title>main</title>
<polygon fill="white" stroke="none" points="-4,4 -4,-616 574,-616 574,4 -4,4"/>
<!-- 370 -->
<g id="node1" class="node">
<title>370</title>
<ellipse fill="none" stroke="black" stroke-width="2" cx="118" cy="-18" rx="27" ry="18"/>
<text text-anchor="middle" x="118" y="-12.95" font-family="Times,serif" font-size="14.00">370</text>
</g>
<!-- 74 -->
<g id="node2" class="node">
<title>74</title>
<ellipse fill="none" stroke="black" stroke-width="2" cx="273" cy="-378" rx="27" ry="18"/>
<text text-anchor="middle" x="273" y="-372.95" font-family="Times,serif" font-size="14.00">74</text>
</g>
<!-- 120 -->
<g id="node3" class="node">
<title>120</title>
<ellipse fill="none" stroke="black" stroke-width="2" cx="360" cy="-450" rx="27" ry="18"/>
<text text-anchor="middle" x="360" y="-444.95" font-family="Times,serif" font-size="14.00">120</text>
</g>
<!-- 247 -->
<g id="node4" class="node">
<title>247</title>
<ellipse fill="none" stroke="black" stroke-width="2" cx="149" cy="-162" rx="27" ry="18"/>
<text text-anchor="middle" x="149" y="-156.95" font-family="Times,serif" font-size="14.00">247</text>
</g>
<!-- 0 -->
<g id="node5" class="node">
<title>0</title>
<ellipse fill="none" stroke="black" cx="27" cy="-306" rx="27" ry="18"/>
<text text-anchor="middle" x="27" y="-300.95" font-family="Times,serif" font-size="14.00">0</text>
</g>
<!-- 21 -->
<g id="node6" class="node">
<title>21</title>
<ellipse fill="none" stroke="black" cx="27" cy="-234" rx="27" ry="18"/>
<text text-anchor="middle" x="27" y="-228.95" font-family="Times,serif" font-size="14.00">21</text>
</g>
<!-- 0&#45;&gt;21 -->
<g id="edge1" class="edge">
<title>0&#45;&gt;21</title>
<path fill="none" stroke="black" d="M27,-287.7C27,-280.24 27,-271.32 27,-262.97"/>
<polygon fill="black" stroke="black" points="30.5,-263.1 27,-253.1 23.5,-263.1 30.5,-263.1"/>
</g>
<!-- 25 -->
<g id="node9" class="node">
<title>25</title>
<ellipse fill="none" stroke="black" cx="27" cy="-162" rx="27" ry="18"/>
<text text-anchor="middle" x="27" y="-156.95" font-family="Times,serif" font-size="14.00">25</text>
</g>
<!-- 21&#45;&gt;25 -->
<g id="edge3" class="edge">
<title>21&#45;&gt;25</title>
<path fill="none" stroke="black" d="M27,-215.7C27,-208.24 27,-199.32 27,-190.97"/>
<polygon fill="black" stroke="black" points="30.5,-191.1 27,-181.1 23.5,-191.1 30.5,-191.1"/>
</g>
<!-- 17 -->
<g id="node7" class="node">
<title>17</title>
<ellipse fill="none" stroke="black" cx="158" cy="-594" rx="27" ry="18"/>
<text text-anchor="middle" x="158" y="-588.95" font-family="Times,serif" font-size="14.00">17</text>
</g>
<!-- 221 -->
<g id="node8" class="node">
<title>221</title>
<ellipse fill="none" stroke="black" cx="158" cy="-522" rx="27" ry="18"/>
<text text-anchor="middle" x="158" y="-516.95" font-family="Times,serif" font-size="14.00">221</text>
</g>
<!-- 17&#45;&gt;221 -->
<g id="edge2" class="edge">
<title>17&#45;&gt;221</title>
<path fill="none" stroke="black" d="M158,-575.7C158,-568.24 158,-559.32 158,-550.97"/>
<polygon fill="black" stroke="black" points="161.5,-551.1 158,-541.1 154.5,-551.1 161.5,-551.1"/>
</g>
<!-- 223 -->
<g id="node21" class="node">
<title>223</title>
<ellipse fill="none" stroke="black" cx="158" cy="-450" rx="27" ry="18"/>
<text text-anchor="middle" x="158" y="-444.95" font-family="Times,serif" font-size="14.00">223</text>
</g>
<!-- 221&#45;&gt;223 -->
<g id="edge13" class="edge">
<title>221&#45;&gt;223</title>
<path fill="none" stroke="black" d="M158,-503.7C158,-496.24 158,-487.32 158,-478.97"/>
<polygon fill="black" stroke="black" points="161.5,-479.1 158,-469.1 154.5,-479.1 161.5,-479.1"/>
</g>
<!-- 140 -->
<g id="node10" class="node">
<title>140</title>
<ellipse fill="none" stroke="black" cx="88" cy="-90" rx="27" ry="18"/>
<text text-anchor="middle" x="88" y="-84.95" font-family="Times,serif" font-size="14.00">140</text>
</g>
<!-- 25&#45;&gt;140 -->
<g id="edge4" class="edge">
<title>25&#45;&gt;140</title>
<path fill="none" stroke="black" d="M40.24,-145.81C48.23,-136.64 58.58,-124.76 67.6,-114.4"/>
<polygon fill="black" stroke="black" points="70.86,-117 74.79,-107.16 65.58,-112.4 70.86,-117"/>
</g>
<!-- 140&#45;&gt;370 -->
<g id="edge5" class="edge">
<title>140&#45;&gt;370</title>
<path fill="none" stroke="black" d="M95.11,-72.41C98.55,-64.39 102.76,-54.57 106.62,-45.54"/>
<polygon fill="black" stroke="black" points="110.22,-47.04 110.94,-36.47 103.79,-44.28 110.22,-47.04"/>
</g>
<!-- 49 -->
<g id="node11" class="node">
<title>49</title>
<ellipse fill="none" stroke="black" cx="421" cy="-594" rx="27" ry="18"/>
<text text-anchor="middle" x="421" y="-588.95" font-family="Times,serif" font-size="14.00">49</text>
</g>
<!-- 51 -->
<g id="node12" class="node">
<title>51</title>
<ellipse fill="none" stroke="black" cx="238" cy="-594" rx="27" ry="18"/>
<text text-anchor="middle" x="238" y="-588.95" font-family="Times,serif" font-size="14.00">51</text>
</g>
<!-- 61 -->
<g id="node13" class="node">
<title>61</title>
<ellipse fill="none" stroke="black" cx="238" cy="-522" rx="27" ry="18"/>
<text text-anchor="middle" x="238" y="-516.95" font-family="Times,serif" font-size="14.00">61</text>
</g>
<!-- 51&#45;&gt;61 -->
<g id="edge6" class="edge">
<title>51&#45;&gt;61</title>
<path fill="none" stroke="black" stroke-dasharray="5,2" d="M238,-575.7C238,-568.24 238,-559.32 238,-550.97"/>
<polygon fill="black" stroke="black" points="241.5,-551.1 238,-541.1 234.5,-551.1 241.5,-551.1"/>
</g>
<!-- 63 -->
<g id="node14" class="node">
<title>63</title>
<ellipse fill="none" stroke="black" cx="238" cy="-450" rx="27" ry="18"/>
<text text-anchor="middle" x="238" y="-444.95" font-family="Times,serif" font-size="14.00">63</text>
</g>
<!-- 61&#45;&gt;63 -->
<g id="edge12" class="edge">
<title>61&#45;&gt;63</title>
<path fill="none" stroke="black" d="M238,-503.7C238,-496.24 238,-487.32 238,-478.97"/>
<polygon fill="black" stroke="black" points="241.5,-479.1 238,-469.1 234.5,-479.1 241.5,-479.1"/>
</g>
<!-- 63&#45;&gt;74 -->
<g id="edge7" class="edge">
<title>63&#45;&gt;74</title>
<path fill="none" stroke="black" d="M246.29,-432.41C250.35,-424.3 255.32,-414.35 259.88,-405.25"/>
<polygon fill="black" stroke="black" points="263.42,-406.98 264.77,-396.47 257.16,-403.85 263.42,-406.98"/>
</g>
<!-- 68 -->
<g id="node15" class="node">
<title>68</title>
<ellipse fill="none" stroke="black" cx="299" cy="-450" rx="27" ry="18"/>
<text text-anchor="middle" x="299" y="-444.95" font-family="Times,serif" font-size="14.00">68</text>
</g>
<!-- 68&#45;&gt;74 -->
<g id="edge8" class="edge">
<title>68&#45;&gt;74</title>
<path fill="none" stroke="black" d="M292.71,-432.05C289.8,-424.23 286.28,-414.75 283.02,-405.98"/>
<polygon fill="black" stroke="black" points="286,-404.94 279.24,-396.79 279.44,-407.38 286,-404.94"/>
</g>
<!-- 94 -->
<g id="node16" class="node">
<title>94</title>
<ellipse fill="none" stroke="black" cx="482" cy="-594" rx="27" ry="18"/>
<text text-anchor="middle" x="482" y="-588.95" font-family="Times,serif" font-size="14.00">94</text>
</g>
<!-- 96 -->
<g id="node17" class="node">
<title>96</title>
<ellipse fill="none" stroke="black" cx="360" cy="-594" rx="27" ry="18"/>
<text text-anchor="middle" x="360" y="-588.95" font-family="Times,serif" font-size="14.00">96</text>
</g>
<!-- 108 -->
<g id="node18" class="node">
<title>108</title>
<ellipse fill="none" stroke="black" cx="360" cy="-522" rx="27" ry="18"/>
<text text-anchor="middle" x="360" y="-516.95" font-family="Times,serif" font-size="14.00">108</text>
</g>
<!-- 96&#45;&gt;108 -->
<g id="edge9" class="edge">
<title>96&#45;&gt;108</title>
<path fill="none" stroke="black" d="M360,-575.7C360,-568.24 360,-559.32 360,-550.97"/>
<polygon fill="black" stroke="black" points="363.5,-551.1 360,-541.1 356.5,-551.1 363.5,-551.1"/>
</g>
<!-- 108&#45;&gt;120 -->
<g id="edge10" class="edge">
<title>108&#45;&gt;120</title>
<path fill="none" stroke="black" d="M360,-503.7C360,-496.24 360,-487.32 360,-478.97"/>
<polygon fill="black" stroke="black" points="363.5,-479.1 360,-469.1 356.5,-479.1 363.5,-479.1"/>
</g>
<!-- 113 -->
<g id="node19" class="node">
<title>113</title>
<ellipse fill="none" stroke="black" cx="88" cy="-162" rx="27" ry="18"/>
<text text-anchor="middle" x="88" y="-156.95" font-family="Times,serif" font-size="14.00">113</text>
</g>
<!-- 113&#45;&gt;140 -->
<g id="edge11" class="edge">
<title>113&#45;&gt;140</title>
<path fill="none" stroke="black" d="M88,-143.7C88,-136.24 88,-127.32 88,-118.97"/>
<polygon fill="black" stroke="black" points="91.5,-119.1 88,-109.1 84.5,-119.1 91.5,-119.1"/>
</g>
<!-- 106 -->
<g id="node20" class="node">
<title>106</title>
<ellipse fill="none" stroke="black" cx="543" cy="-594" rx="27" ry="18"/>
<text text-anchor="middle" x="543" y="-588.95" font-family="Times,serif" font-size="14.00">106</text>
</g>
<!-- 235 -->
<g id="node22" class="node">
<title>235</title>
<ellipse fill="none" stroke="black" cx="168" cy="-306" rx="27" ry="18"/>
<text text-anchor="middle" x="168" y="-300.95" font-family="Times,serif" font-size="14.00">235</text>
</g>
<!-- 223&#45;&gt;235 -->
<g id="edge14" class="edge">
<title>223&#45;&gt;235</title>
<path fill="none" stroke="black" d="M156.64,-431.55C155.51,-413.57 154.46,-384.75 157,-360 157.86,-351.64 159.46,-342.66 161.18,-334.51"/>
<polygon fill="black" stroke="black" points="164.75,-335.57 163.54,-325.05 157.92,-334.03 164.75,-335.57"/>
</g>
<!-- 233 -->
<g id="node23" class="node">
<title>233</title>
<ellipse fill="none" stroke="black" cx="187" cy="-378" rx="27" ry="18"/>
<text text-anchor="middle" x="187" y="-372.95" font-family="Times,serif" font-size="14.00">233</text>
</g>
<!-- 223&#45;&gt;233 -->
<g id="edge15" class="edge">
<title>223&#45;&gt;233</title>
<path fill="none" stroke="black" stroke-dasharray="5,2" d="M164.87,-432.41C168.2,-424.39 172.26,-414.57 176,-405.54"/>
<polygon fill="black" stroke="black" points="179.58,-407.05 180.18,-396.47 173.12,-404.37 179.58,-407.05"/>
</g>
<!-- 235&#45;&gt;247 -->
<g id="edge16" class="edge">
<title>235&#45;&gt;247</title>
<path fill="none" stroke="black" d="M163.93,-287.9C161.6,-277.56 158.79,-264.08 157,-252 154.01,-231.83 151.98,-208.91 150.72,-191.38"/>
<polygon fill="black" stroke="black" points="154.14,-191.2 149.97,-181.46 147.16,-191.68 154.14,-191.2"/>
</g>
<!-- 240 -->
<g id="node24" class="node">
<title>240</title>
<ellipse fill="none" stroke="black" cx="187" cy="-234" rx="27" ry="18"/>
<text text-anchor="middle" x="187" y="-228.95" font-family="Times,serif" font-size="14.00">240</text>
</g>
<!-- 235&#45;&gt;240 -->
<g id="edge17" class="edge">
<title>235&#45;&gt;240</title>
<path fill="none" stroke="black" d="M172.6,-288.05C174.7,-280.32 177.24,-270.96 179.6,-262.27"/>
<polygon fill="black" stroke="black" points="183.2,-263.36 182.44,-252.79 176.45,-261.52 183.2,-263.36"/>
</g>
<!-- 233&#45;&gt;235 -->
<g id="edge24" class="edge">
<title>233&#45;&gt;235</title>
<path fill="none" stroke="black" d="M182.4,-360.05C180.3,-352.32 177.76,-342.96 175.4,-334.27"/>
<polygon fill="black" stroke="black" points="178.55,-333.52 172.56,-324.79 171.8,-335.36 178.55,-333.52"/>
</g>
<!-- 240&#45;&gt;247 -->
<g id="edge18" class="edge">
<title>240&#45;&gt;247</title>
<path fill="none" stroke="black" d="M178.19,-216.76C173.68,-208.46 168.08,-198.15 163,-188.79"/>
<polygon fill="black" stroke="black" points="165.61,-187.27 157.77,-180.15 159.46,-190.61 165.61,-187.27"/>
</g>
<!-- 267 -->
<g id="node25" class="node">
<title>267</title>
<ellipse fill="none" stroke="black" cx="210" cy="-162" rx="27" ry="18"/>
<text text-anchor="middle" x="210" y="-156.95" font-family="Times,serif" font-size="14.00">267</text>
</g>
<!-- 240&#45;&gt;267 -->
<g id="edge19" class="edge">
<title>240&#45;&gt;267</title>
<path fill="none" stroke="black" d="M192.57,-216.05C195.14,-208.23 198.25,-198.75 201.14,-189.98"/>
<polygon fill="black" stroke="black" points="204.69,-191.38 204.48,-180.79 198.04,-189.2 204.69,-191.38"/>
</g>
<!-- 270 -->
<g id="node26" class="node">
<title>270</title>
<ellipse fill="none" stroke="black" cx="194" cy="-90" rx="27" ry="18"/>
<text text-anchor="middle" x="194" y="-84.95" font-family="Times,serif" font-size="14.00">270</text>
</g>
<!-- 267&#45;&gt;270 -->
<g id="edge20" class="edge">
<title>267&#45;&gt;270</title>
<path fill="none" stroke="black" d="M206.04,-143.7C204.32,-136.15 202.26,-127.12 200.33,-118.68"/>
<polygon fill="black" stroke="black" points="203.55,-118.07 197.91,-109.1 196.73,-119.63 203.55,-118.07"/>
</g>
<!-- 270&#45;&gt;370 -->
<g id="edge21" class="edge">
<title>270&#45;&gt;370</title>
<path fill="none" stroke="black" d="M178.62,-74.83C167.91,-64.97 153.42,-51.63 141.3,-40.46"/>
<polygon fill="black" stroke="black" points="144.08,-38.34 134.36,-34.14 139.34,-43.49 144.08,-38.34"/>
</g>
<!-- 277 -->
<g id="node27" class="node">
<title>277</title>
<ellipse fill="none" stroke="black" cx="194" cy="-18" rx="27" ry="18"/>
<text text-anchor="middle" x="194" y="-12.95" font-family="Times,serif" font-size="14.00">277</text>
</g>
<!-- 270&#45;&gt;277 -->
<g id="edge22" class="edge">
<title>270&#45;&gt;277</title>
<path fill="none" stroke="black" d="M192.03,-71.7C191.77,-64.24 191.69,-55.32 191.79,-46.97"/>
<polygon fill="black" stroke="black" points="195.31,-47.18 192.03,-37.1 188.31,-47.02 195.31,-47.18"/>
</g>
<!-- 277&#45;&gt;270 -->
<g id="edge23" class="edge">
<title>277&#45;&gt;270</title>
<path fill="none" stroke="black" d="M196.62,-36.1C196.97,-43.54 197.08,-52.44 196.95,-60.81"/>
<polygon fill="black" stroke="black" points="193.42,-60.6 196.63,-70.7 200.42,-60.8 193.42,-60.6"/>
</g>
</g>
</svg>
