<svg width="523px" height="620px"
 viewBox="0.00 0.00 523.00 620.00" xmlns="http://www.w3.org/2000/svg" xmlns:xlink="http://www.w3.org/1999/xlink">
<g id="graph0" class="graph" transform="scale(1.0 1.0) rotate(0.0) translate(4.0 616.0)">
<title>main</title>
<polygon fill="white" stroke="none" points="-4,4 -4,-616 519,-616 519,4 -4,4"/>
<!-- 370 -->
<g id="node1" class="node">
<title>370</title>
<ellipse fill="none" stroke="black" stroke-width="2" cx="27" cy="-18" rx="27" ry="18"/>
<text text-anchor="middle" x="27" y="-12.95" font-family="Times,serif" font-size="14.00">370</text>
</g>
<!-- 74 -->
<g id="node2" class="node">
<title>74</title>
<ellipse fill="none" stroke="black" stroke-width="2" cx="137" cy="-378" rx="27" ry="18"/>
<text text-anchor="middle" x="137" y="-372.95" font-family="Times,serif" font-size="14.00">74</text>
</g>
<!-- 120 -->
<g id="node3" class="node">
<title>120</title>
<ellipse fill="none" stroke="black" stroke-width="2" cx="274" cy="-378" rx="27" ry="18"/>
<text text-anchor="middle" x="274" y="-372.95" font-family="Times,serif" font-size="14.00">120</text>
</g>
<!-- 247 -->
<g id="node4" class="node">
<title>247</title>
<ellipse fill="none" stroke="black" stroke-width="2" cx="27" cy="-162" rx="27" ry="18"/>
<text text-anchor="middle" x="27" y="-156.95" font-family="Times,serif" font-size="14.00">247</text>
</g>
<!-- 0 -->
<g id="node5" class="node">
<title>0</title>
<ellipse fill="none" stroke="black" cx="366" cy="-594" rx="27" ry="18"/>
<text text-anchor="middle" x="366" y="-588.95" font-family="Times,serif" font-size="14.00">0</text>
</g>
<!-- 21 -->
<g id="node6" class="node">
<title>21</title>
<ellipse fill="none" stroke="black" cx="366" cy="-522" rx="27" ry="18"/>
<text text-anchor="middle" x="366" y="-516.95" font-family="Times,serif" font-size="14.00">21</text>
</g>
<!-- 0&#45;&gt;21 -->
<g id="edge1" class="edge">
<title>0&#45;&gt;21</title>
<path fill="none" stroke="black" d="M366,-575.7C366,-568.24 366,-559.32 366,-550.97"/>
<polygon fill="black" stroke="black" points="369.5,-551.1 366,-541.1 362.5,-551.1 369.5,-551.1"/>
</g>
<!-- 25 -->
<g id="node9" class="node">
<title>25</title>
<ellipse fill="none" stroke="black" cx="366" cy="-450" rx="27" ry="18"/>
<text text-anchor="middle" x="366" y="-444.95" font-family="Times,serif" font-size="14.00">25</text>
</g>
<!-- 21&#45;&gt;25 -->
<g id="edge3" class="edge">
<title>21&#45;&gt;25</title>
<path fill="none" stroke="black" d="M366,-503.7C366,-496.24 366,-487.32 366,-478.97"/>
<polygon fill="black" stroke="black" points="369.5,-479.1 366,-469.1 362.5,-479.1 369.5,-479.1"/>
</g>
<!-- 17 -->
<g id="node7" class="node">
<title>17</title>
<ellipse fill="none" stroke="black" cx="46" cy="-594" rx="27" ry="18"/>
<text text-anchor="middle" x="46" y="-588.95" font-family="Times,serif" font-size="14.00">17</text>
</g>
<!-- 221 -->
<g id="node8" class="node">
<title>221</title>
<ellipse fill="none" stroke="black" cx="46" cy="-522" rx="27" ry="18"/>
<text text-anchor="middle" x="46" y="-516.95" font-family="Times,serif" font-size="14.00">221</text>
</g>
<!-- 17&#45;&gt;221 -->
<g id="edge2" class="edge">
<title>17&#45;&gt;221</title>
<path fill="none" stroke="black" d="M46,-575.7C46,-568.24 46,-559.32 46,-550.97"/>
<polygon fill="black" stroke="black" points="49.5,-551.1 46,-541.1 42.5,-551.1 49.5,-551.1"/>
</g>
<!-- 223 -->
<g id="node21" class="node">
<title>223</title>
<ellipse fill="none" stroke="black" cx="46" cy="-450" rx="27" ry="18"/>
<text text-anchor="middle" x="46" y="-444.95" font-family="Times,serif" font-size="14.00">223</text>
</g>
<!-- 221&#45;&gt;223 -->
<g id="edge13" class="edge">
<title>221&#45;&gt;223</title>
<path fill="none" stroke="black" d="M46,-503.7C46,-496.24 46,-487.32 46,-478.97"/>
<polygon fill="black" stroke="black" points="49.5,-479.1 46,-469.1 42.5,-479.1 49.5,-479.1"/>
</g>
<!-- 140 -->
<g id="node10" class="node">
<title>140</title>
<ellipse fill="none" stroke="black" cx="366" cy="-378" rx="27" ry="18"/>
<text text-anchor="middle" x="366" y="-372.95" font-family="Times,serif" font-size="14.00">140</text>
</g>
<!-- 25&#45;&gt;140 -->
<g id="edge4" class="edge">
<title>25&#45;&gt;140</title>
<path fill="none" stroke="black" d="M366,-431.7C366,-424.24 366,-415.32 366,-406.97"/>
<polygon fill="black" stroke="black" points="369.5,-407.1 366,-397.1 362.5,-407.1 369.5,-407.1"/>
</g>
<!-- 49 -->
<g id="node11" class="node">
<title>49</title>
<ellipse fill="none" stroke="black" cx="427" cy="-594" rx="27" ry="18"/>
<text text-anchor="middle" x="427" y="-588.95" font-family="Times,serif" font-size="14.00">49</text>
</g>
<!-- 51 -->
<g id="node12" class="node">
<title>51</title>
<ellipse fill="none" stroke="black" cx="122" cy="-594" rx="27" ry="18"/>
<text text-anchor="middle" x="122" y="-588.95" font-family="Times,serif" font-size="14.00">51</text>
</g>
<!-- 61 -->
<g id="node13" class="node">
<title>61</title>
<ellipse fill="none" stroke="black" cx="122" cy="-522" rx="27" ry="18"/>
<text text-anchor="middle" x="122" y="-516.95" font-family="Times,serif" font-size="14.00">61</text>
</g>
<!-- 51&#45;&gt;61 -->
<g id="edge5" class="edge">
<title>51&#45;&gt;61</title>
<path fill="none" stroke="black" stroke-dasharray="5,2" d="M122,-575.7C122,-568.24 122,-559.32 122,-550.97"/>
<polygon fill="black" stroke="black" points="125.5,-551.1 122,-541.1 118.5,-551.1 125.5,-551.1"/>
</g>
<!-- 63 -->
<g id="node14" class="node">
<title>63</title>
<ellipse fill="none" stroke="black" cx="122" cy="-450" rx="27" ry="18"/>
<text text-anchor="middle" x="122" y="-444.95" font-family="Times,serif" font-size="14.00">63</text>
</g>
<!-- 61&#45;&gt;63 -->
<g id="edge12" class="edge">
<title>61&#45;&gt;63</title>
<path fill="none" stroke="black" d="M122,-503.7C122,-496.24 122,-487.32 122,-478.97"/>
<polygon fill="black" stroke="black" points="125.5,-479.1 122,-469.1 118.5,-479.1 125.5,-479.1"/>
</g>
<!-- 63&#45;&gt;74 -->
<g id="edge6" class="edge">
<title>63&#45;&gt;74</title>
<path fill="none" stroke="black" d="M125.71,-431.7C127.32,-424.15 129.26,-415.12 131.07,-406.68"/>
<polygon fill="black" stroke="black" points="134.66,-407.62 133.33,-397.1 127.82,-406.15 134.66,-407.62"/>
</g>
<!-- 68 -->
<g id="node15" class="node">
<title>68</title>
<ellipse fill="none" stroke="black" cx="183" cy="-450" rx="27" ry="18"/>
<text text-anchor="middle" x="183" y="-444.95" font-family="Times,serif" font-size="14.00">68</text>
</g>
<!-- 68&#45;&gt;74 -->
<g id="edge7" class="edge">
<title>68&#45;&gt;74</title>
<path fill="none" stroke="black" d="M172.56,-433.12C166.86,-424.43 159.66,-413.49 153.24,-403.72"/>
<polygon fill="black" stroke="black" points="155.81,-402.26 147.4,-395.82 149.96,-406.1 155.81,-402.26"/>
</g>
<!-- 94 -->
<g id="node16" class="node">
<title>94</title>
<ellipse fill="none" stroke="black" cx="488" cy="-594" rx="27" ry="18"/>
<text text-anchor="middle" x="488" y="-588.95" font-family="Times,serif" font-size="14.00">94</text>
</g>
<!-- 96 -->
<g id="node17" class="node">
<title>96</title>
<ellipse fill="none" stroke="black" cx="244" cy="-594" rx="27" ry="18"/>
<text text-anchor="middle" x="244" y="-588.95" font-family="Times,serif" font-size="14.00">96</text>
</g>
<!-- 106 -->
<g id="node18" class="node">
<title>106</title>
<ellipse fill="none" stroke="black" cx="244" cy="-522" rx="27" ry="18"/>
<text text-anchor="middle" x="244" y="-516.95" font-family="Times,serif" font-size="14.00">106</text>
</g>
<!-- 96&#45;&gt;106 -->
<g id="edge8" class="edge">
<title>96&#45;&gt;106</title>
<path fill="none" stroke="black" stroke-dasharray="5,2" d="M244,-575.7C244,-568.24 244,-559.32 244,-550.97"/>
<polygon fill="black" stroke="black" points="247.5,-551.1 244,-541.1 240.5,-551.1 247.5,-551.1"/>
</g>
<!-- 108 -->
<g id="node19" class="node">
<title>108</title>
<ellipse fill="none" stroke="black" cx="244" cy="-450" rx="27" ry="18"/>
<text text-anchor="middle" x="244" y="-444.95" font-family="Times,serif" font-size="14.00">108</text>
</g>
<!-- 106&#45;&gt;108 -->
<g id="edge11" class="edge">
<title>106&#45;&gt;108</title>
<path fill="none" stroke="black" d="M244,-503.7C244,-496.24 244,-487.32 244,-478.97"/>
<polygon fill="black" stroke="black" points="247.5,-479.1 244,-469.1 240.5,-479.1 247.5,-479.1"/>
</g>
<!-- 108&#45;&gt;120 -->
<g id="edge9" class="edge">
<title>108&#45;&gt;120</title>
<path fill="none" stroke="black" d="M251.11,-432.41C254.55,-424.39 258.76,-414.57 262.62,-405.54"/>
<polygon fill="black" stroke="black" points="266.22,-407.04 266.94,-396.47 259.79,-404.28 266.22,-407.04"/>
</g>
<!-- 113 -->
<g id="node20" class="node">
<title>113</title>
<ellipse fill="none" stroke="black" cx="305" cy="-450" rx="27" ry="18"/>
<text text-anchor="middle" x="305" y="-444.95" font-family="Times,serif" font-size="14.00">113</text>
</g>
<!-- 113&#45;&gt;120 -->
<g id="edge10" class="edge">
<title>113&#45;&gt;120</title>
<path fill="none" stroke="black" d="M297.65,-432.41C294.06,-424.3 289.66,-414.35 285.62,-405.25"/>
<polygon fill="black" stroke="black" points="288.54,-404.2 281.29,-396.47 282.14,-407.03 288.54,-404.2"/>
</g>
<!-- 235 -->
<g id="node22" class="node">
<title>235</title>
<ellipse fill="none" stroke="black" cx="46" cy="-306" rx="27" ry="18"/>
<text text-anchor="middle" x="46" y="-300.95" font-family="Times,serif" font-size="14.00">235</text>
</g>
<!-- 223&#45;&gt;235 -->
<g id="edge14" class="edge">
<title>223&#45;&gt;235</title>
<path fill="none" stroke="black" d="M41.54,-431.95C39.06,-421.63 36.25,-408.15 35,-396 33.37,-380.08 33.37,-375.92 35,-360 35.86,-351.64 37.46,-342.66 39.18,-334.51"/>
<polygon fill="black" stroke="black" points="42.75,-335.57 41.54,-325.05 35.92,-334.03 42.75,-335.57"/>
</g>
<!-- 233 -->
<g id="node23" class="node">
<title>233</title>
<ellipse fill="none" stroke="black" cx="65" cy="-378" rx="27" ry="18"/>
<text text-anchor="middle" x="65" y="-372.95" font-family="Times,serif" font-size="14.00">233</text>
</g>
<!-- 223&#45;&gt;233 -->
<g id="edge15" class="edge">
<title>223&#45;&gt;233</title>
<path fill="none" stroke="black" stroke-dasharray="5,2" d="M50.6,-432.05C52.7,-424.32 55.24,-414.96 57.6,-406.27"/>
<polygon fill="black" stroke="black" points="61.2,-407.36 60.44,-396.79 54.45,-405.52 61.2,-407.36"/>
</g>
<!-- 235&#45;&gt;247 -->
<g id="edge16" class="edge">
<title>235&#45;&gt;247</title>
<path fill="none" stroke="black" d="M41.93,-287.9C39.6,-277.56 36.79,-264.08 35,-252 32.01,-231.83 29.98,-208.91 28.72,-191.38"/>
<polygon fill="black" stroke="black" points="32.14,-191.2 27.97,-181.46 25.16,-191.68 32.14,-191.2"/>
</g>
<!-- 240 -->
<g id="node24" class="node">
<title>240</title>
<ellipse fill="none" stroke="black" cx="65" cy="-234" rx="27" ry="18"/>
<text text-anchor="middle" x="65" y="-228.95" font-family="Times,serif" font-size="14.00">240</text>
</g>
<!-- 235&#45;&gt;240 -->
<g id="edge17" class="edge">
<title>235&#45;&gt;240</title>
<path fill="none" stroke="black" d="M50.6,-288.05C52.7,-280.32 55.24,-270.96 57.6,-262.27"/>
<polygon fill="black" stroke="black" points="61.2,-263.36 60.44,-252.79 54.45,-261.52 61.2,-263.36"/>
</g>
<!-- 233&#45;&gt;235 -->
<g id="edge24" class="edge">
<title>233&#45;&gt;235</title>
<path fill="none" stroke="black" d="M60.4,-360.05C58.3,-352.32 55.76,-342.96 53.4,-334.27"/>
<polygon fill="black" stroke="black" points="56.55,-333.52 50.56,-324.79 49.8,-335.36 56.55,-333.52"/>
</g>
<!-- 240&#45;&gt;247 -->
<g id="edge18" class="edge">
<title>240&#45;&gt;247</title>
<path fill="none" stroke="black" d="M56.19,-216.76C51.68,-208.46 46.08,-198.15 41,-188.79"/>
<polygon fill="black" stroke="black" points="43.61,-187.27 35.77,-180.15 37.46,-190.61 43.61,-187.27"/>
</g>
<!-- 267 -->
<g id="node25" class="node">
<title>267</title>
<ellipse fill="none" stroke="black" cx="88" cy="-162" rx="27" ry="18"/>
<text text-anchor="middle" x="88" y="-156.95" font-family="Times,serif" font-size="14.00">267</text>
</g>
<!-- 240&#45;&gt;267 -->
<g id="edge19" class="edge">
<title>240&#45;&gt;267</title>
<path fill="none" stroke="black" d="M70.57,-216.05C73.14,-208.23 76.25,-198.75 79.14,-189.98"/>
<polygon fill="black" stroke="black" points="82.69,-191.38 82.48,-180.79 76.04,-189.2 82.69,-191.38"/>
</g>
<!-- 270 -->
<g id="node26" class="node">
<title>270</title>
<ellipse fill="none" stroke="black" cx="88" cy="-90" rx="27" ry="18"/>
<text text-anchor="middle" x="88" y="-84.95" font-family="Times,serif" font-size="14.00">270</text>
</g>
<!-- 267&#45;&gt;270 -->
<g id="edge20" class="edge">
<title>267&#45;&gt;270</title>
<path fill="none" stroke="black" d="M88,-143.7C88,-136.24 88,-127.32 88,-118.97"/>
<polygon fill="black" stroke="black" points="91.5,-119.1 88,-109.1 84.5,-119.1 91.5,-119.1"/>
</g>
<!-- 270&#45;&gt;370 -->
<g id="edge21" class="edge">
<title>270&#45;&gt;370</title>
<path fill="none" stroke="black" d="M74.76,-73.81C66.77,-64.64 56.42,-52.76 47.4,-42.4"/>
<polygon fill="black" stroke="black" points="49.42,-40.4 40.21,-35.16 44.14,-45 49.42,-40.4"/>
</g>
<!-- 277 -->
<g id="node27" class="node">
<title>277</title>
<ellipse fill="none" stroke="black" cx="88" cy="-18" rx="27" ry="18"/>
<text text-anchor="middle" x="88" y="-12.95" font-family="Times,serif" font-size="14.00">277</text>
</g>
<!-- 270&#45;&gt;277 -->
<g id="edge22" class="edge">
<title>270&#45;&gt;277</title>
<path fill="none" stroke="black" d="M86.03,-71.7C85.77,-64.24 85.69,-55.32 85.79,-46.97"/>
<polygon fill="black" stroke="black" points="89.31,-47.18 86.03,-37.1 82.31,-47.02 89.31,-47.18"/>
</g>
<!-- 277&#45;&gt;270 -->
<g id="edge23" class="edge">
<title>277&#45;&gt;270</title>
<path fill="none" stroke="black" d="M90.62,-36.1C90.97,-43.54 91.08,-52.44 90.95,-60.81"/>
<polygon fill="black" stroke="black" points="87.42,-60.6 90.63,-70.7 94.42,-60.8 87.42,-60.6"/>
</g>
</g>
</svg>
